G75*
%MOIN*%
%OFA0B0*%
%FSLAX25Y25*%
%IPPOS*%
%LPD*%
%AMOC8*
5,1,8,0,0,1.08239X$1,22.5*
%
%ADD10C,0.00400*%
%ADD11C,0.00200*%
%ADD12C,0.00500*%
%ADD13C,0.01000*%
%ADD14C,0.00800*%
%ADD15C,0.00600*%
%ADD16C,0.01600*%
%ADD17R,0.09646X0.02657*%
%ADD18C,0.01000*%
D10*
X0062255Y0076003D02*
X0065324Y0076003D01*
X0062255Y0076003D02*
X0062255Y0080607D01*
X0087412Y0025489D02*
X0087412Y0020885D01*
X0088946Y0020885D02*
X0085877Y0020885D01*
X0085877Y0023954D02*
X0087412Y0025489D01*
X0152806Y0064192D02*
X0155876Y0067261D01*
X0155876Y0068029D01*
X0155108Y0068796D01*
X0153574Y0068796D01*
X0152806Y0068029D01*
X0152806Y0064192D02*
X0155876Y0064192D01*
X0157410Y0066494D02*
X0159712Y0068796D01*
X0159712Y0064192D01*
X0160480Y0066494D02*
X0157410Y0066494D01*
X0177196Y0025489D02*
X0176428Y0024722D01*
X0177196Y0025489D02*
X0178730Y0025489D01*
X0179498Y0024722D01*
X0179498Y0023954D01*
X0176428Y0020885D01*
X0179498Y0020885D01*
X0181032Y0021652D02*
X0181800Y0020885D01*
X0183334Y0020885D01*
X0184102Y0021652D01*
X0184102Y0023187D01*
X0183334Y0023954D01*
X0182567Y0023954D01*
X0181032Y0023187D01*
X0181032Y0025489D01*
X0184102Y0025489D01*
X0243357Y0066494D02*
X0246427Y0066494D01*
X0247961Y0065727D02*
X0248729Y0066494D01*
X0250263Y0066494D01*
X0251031Y0065727D01*
X0251031Y0064959D01*
X0250263Y0064192D01*
X0248729Y0064192D01*
X0247961Y0064959D01*
X0247961Y0065727D01*
X0248729Y0066494D02*
X0247961Y0067261D01*
X0247961Y0068029D01*
X0248729Y0068796D01*
X0250263Y0068796D01*
X0251031Y0068029D01*
X0251031Y0067261D01*
X0250263Y0066494D01*
X0245659Y0064192D02*
X0245659Y0068796D01*
X0243357Y0066494D01*
X0263043Y0076003D02*
X0266112Y0076003D01*
X0264577Y0076003D02*
X0264577Y0080607D01*
X0263043Y0079072D01*
X0345720Y0078305D02*
X0348789Y0078305D01*
X0348022Y0076003D02*
X0348022Y0080607D01*
X0345720Y0078305D01*
X0365405Y0077538D02*
X0367707Y0077538D01*
X0368474Y0078305D01*
X0368474Y0079840D01*
X0367707Y0080607D01*
X0365405Y0080607D01*
X0365405Y0076003D01*
X0366939Y0077538D02*
X0368474Y0076003D01*
X0368444Y0417445D02*
X0368444Y0421048D01*
X0369044Y0421048D02*
X0367843Y0421048D01*
X0366589Y0421048D02*
X0366589Y0417445D01*
X0365388Y0418646D01*
X0364187Y0417445D01*
X0364187Y0421048D01*
X0362906Y0420448D02*
X0362906Y0417445D01*
X0360503Y0417445D02*
X0360503Y0420448D01*
X0361104Y0421048D01*
X0362305Y0421048D01*
X0362906Y0420448D01*
X0359222Y0421649D02*
X0356820Y0421649D01*
X0355539Y0421048D02*
X0355539Y0417445D01*
X0353738Y0417445D01*
X0353137Y0418045D01*
X0353137Y0419246D01*
X0353738Y0419847D01*
X0355539Y0419847D01*
X0354338Y0419847D02*
X0353137Y0421048D01*
X0351856Y0420448D02*
X0351256Y0421048D01*
X0350055Y0421048D01*
X0349454Y0420448D01*
X0349454Y0419847D01*
X0350055Y0419246D01*
X0351256Y0419246D01*
X0351856Y0418646D01*
X0351856Y0418045D01*
X0351256Y0417445D01*
X0350055Y0417445D01*
X0349454Y0418045D01*
X0348173Y0417445D02*
X0345771Y0417445D01*
X0346972Y0417445D02*
X0346972Y0421048D01*
X0328794Y0421048D02*
X0327593Y0421048D01*
X0328194Y0421048D02*
X0328194Y0417445D01*
X0328794Y0417445D02*
X0327593Y0417445D01*
X0326339Y0417445D02*
X0325138Y0418646D01*
X0323937Y0417445D01*
X0323937Y0421048D01*
X0322656Y0420448D02*
X0322055Y0421048D01*
X0320854Y0421048D01*
X0320253Y0420448D01*
X0320253Y0417445D01*
X0322656Y0417445D02*
X0322656Y0420448D01*
X0326339Y0421048D02*
X0326339Y0417445D01*
X0318972Y0421649D02*
X0316570Y0421649D01*
X0315289Y0421048D02*
X0313488Y0421048D01*
X0312887Y0420448D01*
X0312887Y0419847D01*
X0313488Y0419246D01*
X0315289Y0419246D01*
X0315289Y0417445D02*
X0315289Y0421048D01*
X0313488Y0419246D02*
X0312887Y0418646D01*
X0312887Y0418045D01*
X0313488Y0417445D01*
X0315289Y0417445D01*
X0311606Y0418045D02*
X0311606Y0420448D01*
X0311006Y0421048D01*
X0309805Y0421048D01*
X0309204Y0420448D01*
X0309204Y0418045D01*
X0309805Y0417445D01*
X0311006Y0417445D01*
X0311606Y0418045D01*
X0307923Y0418045D02*
X0307923Y0420448D01*
X0307322Y0421048D01*
X0306121Y0421048D01*
X0305521Y0420448D01*
X0305521Y0418045D01*
X0306121Y0417445D01*
X0307322Y0417445D01*
X0307923Y0418045D01*
X0304240Y0417445D02*
X0301838Y0417445D01*
X0303039Y0417445D02*
X0303039Y0421048D01*
X0367843Y0417445D02*
X0369044Y0417445D01*
X0168794Y0418646D02*
X0167593Y0417445D01*
X0166392Y0418646D01*
X0166392Y0421048D01*
X0165111Y0421048D02*
X0165111Y0417445D01*
X0163309Y0417445D01*
X0162709Y0418045D01*
X0162709Y0419246D01*
X0163309Y0419847D01*
X0165111Y0419847D01*
X0163910Y0419847D02*
X0162709Y0421048D01*
X0161428Y0421048D02*
X0161428Y0417445D01*
X0160227Y0418646D01*
X0159026Y0417445D01*
X0159026Y0421048D01*
X0157745Y0421649D02*
X0155343Y0421649D01*
X0154062Y0421048D02*
X0154062Y0417445D01*
X0152260Y0417445D01*
X0151659Y0418045D01*
X0151659Y0419246D01*
X0152260Y0419847D01*
X0154062Y0419847D01*
X0152860Y0419847D02*
X0151659Y0421048D01*
X0150378Y0420448D02*
X0149778Y0421048D01*
X0148577Y0421048D01*
X0147976Y0420448D01*
X0147976Y0419847D01*
X0148577Y0419246D01*
X0149778Y0419246D01*
X0150378Y0418646D01*
X0150378Y0418045D01*
X0149778Y0417445D01*
X0148577Y0417445D01*
X0147976Y0418045D01*
X0146695Y0417445D02*
X0144293Y0417445D01*
X0145494Y0417445D02*
X0145494Y0421048D01*
X0128544Y0421048D02*
X0128544Y0418646D01*
X0127343Y0417445D01*
X0126142Y0418646D01*
X0126142Y0421048D01*
X0124861Y0421048D02*
X0124861Y0417445D01*
X0123059Y0417445D01*
X0122459Y0418045D01*
X0122459Y0419246D01*
X0123059Y0419847D01*
X0124861Y0419847D01*
X0123660Y0419847D02*
X0122459Y0421048D01*
X0121178Y0421048D02*
X0121178Y0417445D01*
X0119977Y0418646D01*
X0118776Y0417445D01*
X0118776Y0421048D01*
X0117495Y0421649D02*
X0115093Y0421649D01*
X0113812Y0421048D02*
X0113812Y0417445D01*
X0112010Y0417445D01*
X0111409Y0418045D01*
X0111409Y0418646D01*
X0112010Y0419246D01*
X0113812Y0419246D01*
X0112010Y0419246D02*
X0111409Y0419847D01*
X0111409Y0420448D01*
X0112010Y0421048D01*
X0113812Y0421048D01*
X0110128Y0420448D02*
X0110128Y0418045D01*
X0109528Y0417445D01*
X0108327Y0417445D01*
X0107726Y0418045D01*
X0107726Y0420448D01*
X0108327Y0421048D01*
X0109528Y0421048D01*
X0110128Y0420448D01*
X0106445Y0420448D02*
X0106445Y0418045D01*
X0105845Y0417445D01*
X0104644Y0417445D01*
X0104043Y0418045D01*
X0104043Y0420448D01*
X0104644Y0421048D01*
X0105845Y0421048D01*
X0106445Y0420448D01*
X0102762Y0417445D02*
X0100360Y0417445D01*
X0101561Y0417445D02*
X0101561Y0421048D01*
X0079197Y0402201D02*
X0079197Y0396295D01*
X0073291Y0396295D02*
X0073291Y0402201D01*
X0126142Y0419246D02*
X0128544Y0419246D01*
X0166392Y0419246D02*
X0168794Y0419246D01*
X0168794Y0418646D02*
X0168794Y0421048D01*
D11*
X0174192Y0421268D02*
X0174192Y0422369D01*
X0174559Y0422736D01*
X0176027Y0422736D01*
X0176394Y0422369D01*
X0176394Y0421268D01*
X0174192Y0421268D01*
X0174192Y0420526D02*
X0174192Y0419058D01*
X0176394Y0419058D01*
X0176394Y0420526D01*
X0175293Y0419792D02*
X0175293Y0419058D01*
X0175293Y0418316D02*
X0175660Y0417949D01*
X0175660Y0416848D01*
X0175660Y0417582D02*
X0176394Y0418316D01*
X0175293Y0418316D02*
X0174559Y0418316D01*
X0174192Y0417949D01*
X0174192Y0416848D01*
X0176394Y0416848D01*
X0180192Y0416848D02*
X0180559Y0416848D01*
X0181293Y0417582D01*
X0182394Y0417582D01*
X0181293Y0417582D02*
X0180559Y0418316D01*
X0180192Y0418316D01*
X0180192Y0419058D02*
X0182394Y0419058D01*
X0182394Y0420526D01*
X0182394Y0421268D02*
X0182394Y0422736D01*
X0182394Y0421268D02*
X0180192Y0421268D01*
X0180192Y0420526D02*
X0180192Y0419058D01*
X0181293Y0419058D02*
X0181293Y0419792D01*
X0186192Y0419058D02*
X0188394Y0419058D01*
X0188394Y0420526D01*
X0188027Y0421268D02*
X0188394Y0421635D01*
X0188394Y0422369D01*
X0188027Y0422736D01*
X0186192Y0422736D01*
X0186192Y0421268D02*
X0188027Y0421268D01*
X0188027Y0418316D02*
X0188394Y0417949D01*
X0188394Y0416848D01*
X0186192Y0416848D01*
X0186192Y0417949D01*
X0186559Y0418316D01*
X0186926Y0418316D01*
X0187293Y0417949D01*
X0187293Y0416848D01*
X0187293Y0417949D02*
X0187660Y0418316D01*
X0188027Y0418316D01*
X0192192Y0417949D02*
X0192192Y0417215D01*
X0192559Y0416848D01*
X0194027Y0416848D01*
X0194394Y0417215D01*
X0194394Y0417949D01*
X0194027Y0418316D01*
X0193293Y0418316D01*
X0193293Y0417582D01*
X0192559Y0418316D02*
X0192192Y0417949D01*
X0192192Y0419058D02*
X0192192Y0420159D01*
X0192559Y0420526D01*
X0193293Y0420526D01*
X0193660Y0420159D01*
X0193660Y0419058D01*
X0193660Y0419792D02*
X0194394Y0420526D01*
X0194394Y0421268D02*
X0192192Y0421268D01*
X0194394Y0422736D01*
X0192192Y0422736D01*
X0192192Y0419058D02*
X0194394Y0419058D01*
X0197342Y0402606D02*
X0197709Y0401872D01*
X0198443Y0401138D01*
X0198443Y0402239D01*
X0198810Y0402606D01*
X0199177Y0402606D01*
X0199544Y0402239D01*
X0199544Y0401505D01*
X0199177Y0401138D01*
X0198443Y0401138D01*
X0199544Y0400396D02*
X0199544Y0398928D01*
X0199544Y0399662D02*
X0197342Y0399662D01*
X0198076Y0398928D01*
X0197709Y0398186D02*
X0198443Y0398186D01*
X0198810Y0397819D01*
X0198810Y0396718D01*
X0199544Y0396718D02*
X0197342Y0396718D01*
X0197342Y0397819D01*
X0197709Y0398186D01*
X0198810Y0397452D02*
X0199544Y0398186D01*
X0194916Y0392168D02*
X0193878Y0391130D01*
X0194397Y0391649D02*
X0192840Y0393206D01*
X0192840Y0392168D01*
X0192056Y0391903D02*
X0192575Y0391384D01*
X0192575Y0390865D01*
X0191797Y0390086D01*
X0192316Y0389567D02*
X0190759Y0391124D01*
X0191537Y0391903D01*
X0192056Y0391903D01*
X0190234Y0390599D02*
X0189196Y0389561D01*
X0190753Y0388004D01*
X0191791Y0389042D01*
X0190494Y0389302D02*
X0189975Y0388783D01*
X0188672Y0389037D02*
X0187634Y0387999D01*
X0188153Y0388518D02*
X0189710Y0386961D01*
X0188406Y0386177D02*
X0188406Y0385658D01*
X0187887Y0385139D01*
X0187369Y0385139D01*
X0187109Y0385917D02*
X0187628Y0386436D01*
X0188147Y0386436D01*
X0188406Y0386177D01*
X0187109Y0385917D02*
X0186590Y0385917D01*
X0186331Y0386177D01*
X0186331Y0386696D01*
X0186850Y0387215D01*
X0187369Y0387215D01*
X0185544Y0387218D02*
X0183342Y0387218D01*
X0183342Y0388319D01*
X0183709Y0388686D01*
X0184443Y0388686D01*
X0184810Y0388319D01*
X0184810Y0387218D01*
X0184810Y0387952D02*
X0185544Y0388686D01*
X0185544Y0389428D02*
X0185544Y0390896D01*
X0185544Y0390162D02*
X0183342Y0390162D01*
X0184076Y0389428D01*
X0184443Y0391638D02*
X0184076Y0392372D01*
X0184076Y0392739D01*
X0184443Y0393106D01*
X0185177Y0393106D01*
X0185544Y0392739D01*
X0185544Y0392005D01*
X0185177Y0391638D01*
X0184443Y0391638D02*
X0183342Y0391638D01*
X0183342Y0393106D01*
X0181544Y0392739D02*
X0179342Y0392739D01*
X0180443Y0391638D01*
X0180443Y0393106D01*
X0181544Y0390896D02*
X0181544Y0389428D01*
X0181544Y0390162D02*
X0179342Y0390162D01*
X0180076Y0389428D01*
X0179709Y0388686D02*
X0180443Y0388686D01*
X0180810Y0388319D01*
X0180810Y0387218D01*
X0181544Y0387218D02*
X0179342Y0387218D01*
X0179342Y0388319D01*
X0179709Y0388686D01*
X0180810Y0387952D02*
X0181544Y0388686D01*
X0176544Y0388686D02*
X0175810Y0387952D01*
X0175810Y0388319D02*
X0175810Y0387218D01*
X0176544Y0387218D02*
X0174342Y0387218D01*
X0174342Y0388319D01*
X0174709Y0388686D01*
X0175443Y0388686D01*
X0175810Y0388319D01*
X0175076Y0389428D02*
X0174342Y0390162D01*
X0176544Y0390162D01*
X0176544Y0389428D02*
X0176544Y0390896D01*
X0176544Y0391638D02*
X0176544Y0393106D01*
X0176544Y0392372D02*
X0174342Y0392372D01*
X0175076Y0391638D01*
X0170644Y0395098D02*
X0168442Y0395098D01*
X0168442Y0396199D01*
X0168809Y0396566D01*
X0169543Y0396566D01*
X0169910Y0396199D01*
X0169910Y0395098D01*
X0169910Y0395832D02*
X0170644Y0396566D01*
X0170277Y0397308D02*
X0169910Y0397308D01*
X0169543Y0397675D01*
X0169543Y0398409D01*
X0169910Y0398776D01*
X0170277Y0398776D01*
X0170644Y0398409D01*
X0170644Y0397675D01*
X0170277Y0397308D01*
X0169543Y0397675D02*
X0169176Y0397308D01*
X0168809Y0397308D01*
X0168442Y0397675D01*
X0168442Y0398409D01*
X0168809Y0398776D01*
X0169176Y0398776D01*
X0169543Y0398409D01*
X0173798Y0380536D02*
X0172760Y0379498D01*
X0172760Y0378979D01*
X0173279Y0378460D01*
X0173798Y0378460D01*
X0174317Y0378979D01*
X0173798Y0379498D01*
X0174836Y0379498D02*
X0174836Y0380017D01*
X0174317Y0380536D01*
X0173798Y0380536D01*
X0175620Y0379233D02*
X0176399Y0378455D01*
X0176399Y0377936D01*
X0175880Y0377417D01*
X0175361Y0377417D01*
X0174582Y0378195D01*
X0174063Y0377676D02*
X0175620Y0379233D01*
X0175101Y0377676D02*
X0175101Y0376638D01*
X0175626Y0376114D02*
X0177183Y0377671D01*
X0176664Y0375076D01*
X0178221Y0376633D01*
X0168961Y0368892D02*
X0168183Y0369671D01*
X0166626Y0368114D01*
X0167404Y0367335D01*
X0167923Y0367335D01*
X0168961Y0368373D01*
X0168961Y0368892D01*
X0167658Y0370195D02*
X0166620Y0371233D01*
X0165063Y0369676D01*
X0166101Y0368638D01*
X0166361Y0369936D02*
X0165842Y0370455D01*
X0165317Y0370979D02*
X0164798Y0370979D01*
X0164020Y0371758D01*
X0164539Y0371239D02*
X0164539Y0370201D01*
X0165317Y0370979D02*
X0165836Y0371498D01*
X0165836Y0372017D01*
X0165058Y0372796D01*
X0163501Y0371239D01*
X0158317Y0365536D02*
X0158836Y0365017D01*
X0158836Y0364498D01*
X0158576Y0364239D01*
X0158057Y0364239D01*
X0158057Y0363720D01*
X0157798Y0363460D01*
X0157279Y0363460D01*
X0156760Y0363979D01*
X0156760Y0364498D01*
X0157798Y0364498D02*
X0158057Y0364239D01*
X0158582Y0363195D02*
X0158582Y0362157D01*
X0159620Y0362157D01*
X0160658Y0363195D01*
X0160923Y0362411D02*
X0161442Y0362411D01*
X0161961Y0361892D01*
X0161961Y0361373D01*
X0161702Y0361114D01*
X0161183Y0361114D01*
X0161183Y0360595D01*
X0160923Y0360335D01*
X0160404Y0360335D01*
X0159885Y0360854D01*
X0159885Y0361373D01*
X0160923Y0361373D02*
X0161183Y0361114D01*
X0158582Y0363195D02*
X0159620Y0364233D01*
X0158317Y0365536D02*
X0157798Y0365536D01*
X0156754Y0365542D02*
X0155716Y0366580D01*
X0156754Y0366580D02*
X0155716Y0365542D01*
X0148453Y0361400D02*
X0146896Y0359843D01*
X0147934Y0358805D01*
X0148199Y0358021D02*
X0149237Y0356983D01*
X0150021Y0356718D02*
X0150800Y0355939D01*
X0151319Y0355939D01*
X0152357Y0356977D01*
X0152357Y0357496D01*
X0151578Y0358275D01*
X0150021Y0356718D01*
X0151584Y0355155D02*
X0152103Y0354636D01*
X0151844Y0354896D02*
X0153400Y0356453D01*
X0153141Y0356712D02*
X0153660Y0356193D01*
X0154183Y0355671D02*
X0153664Y0353076D01*
X0155221Y0354633D01*
X0154183Y0355671D02*
X0152626Y0354114D01*
X0144602Y0361283D02*
X0143134Y0359815D01*
X0143134Y0359448D01*
X0142392Y0359448D02*
X0141658Y0360182D01*
X0142025Y0360182D02*
X0140924Y0360182D01*
X0140924Y0359448D02*
X0140924Y0361650D01*
X0142025Y0361650D01*
X0142392Y0361283D01*
X0142392Y0360549D01*
X0142025Y0360182D01*
X0143134Y0361650D02*
X0144602Y0361650D01*
X0144602Y0361283D01*
X0131232Y0367215D02*
X0130865Y0366848D01*
X0130131Y0366848D01*
X0129764Y0367215D01*
X0131232Y0368683D01*
X0131232Y0367215D01*
X0131232Y0368683D02*
X0130865Y0369050D01*
X0130131Y0369050D01*
X0129764Y0368683D01*
X0129764Y0367215D01*
X0129022Y0366848D02*
X0127554Y0366848D01*
X0128288Y0366848D02*
X0128288Y0369050D01*
X0127554Y0368316D01*
X0126812Y0368683D02*
X0126812Y0367949D01*
X0126445Y0367582D01*
X0125344Y0367582D01*
X0125344Y0366848D02*
X0125344Y0369050D01*
X0126445Y0369050D01*
X0126812Y0368683D01*
X0126078Y0367582D02*
X0126812Y0366848D01*
X0120644Y0376082D02*
X0118442Y0376082D01*
X0118442Y0375348D02*
X0118442Y0376816D01*
X0118809Y0377558D02*
X0118442Y0377925D01*
X0118442Y0378659D01*
X0118809Y0379026D01*
X0119176Y0379026D01*
X0120644Y0377558D01*
X0120644Y0379026D01*
X0114985Y0395948D02*
X0114251Y0395948D01*
X0113884Y0396315D01*
X0114251Y0397049D02*
X0115352Y0397049D01*
X0115352Y0397783D02*
X0114985Y0398150D01*
X0114251Y0398150D01*
X0113884Y0397783D01*
X0113884Y0397416D01*
X0114251Y0397049D01*
X0113142Y0397049D02*
X0112775Y0396682D01*
X0111674Y0396682D01*
X0111674Y0395948D02*
X0111674Y0398150D01*
X0112775Y0398150D01*
X0113142Y0397783D01*
X0113142Y0397049D01*
X0112408Y0396682D02*
X0113142Y0395948D01*
X0114985Y0395948D02*
X0115352Y0396315D01*
X0115352Y0397783D01*
X0088644Y0382526D02*
X0088644Y0381058D01*
X0088644Y0381792D02*
X0086442Y0381792D01*
X0087176Y0381058D01*
X0086442Y0380316D02*
X0086442Y0378848D01*
X0086442Y0379582D02*
X0088644Y0379582D01*
X0071644Y0396598D02*
X0069442Y0396598D01*
X0069442Y0397699D01*
X0069809Y0398066D01*
X0070543Y0398066D01*
X0070910Y0397699D01*
X0070910Y0396598D01*
X0070910Y0397332D02*
X0071644Y0398066D01*
X0071644Y0398808D02*
X0069442Y0398808D01*
X0071644Y0400276D01*
X0069442Y0400276D01*
X0070176Y0401018D02*
X0069442Y0401752D01*
X0071644Y0401752D01*
X0071644Y0401018D02*
X0071644Y0402486D01*
X0058644Y0406715D02*
X0058644Y0407449D01*
X0058277Y0407816D01*
X0056442Y0407816D01*
X0056809Y0408558D02*
X0057176Y0408558D01*
X0057543Y0408925D01*
X0057543Y0409659D01*
X0057910Y0410026D01*
X0058277Y0410026D01*
X0058644Y0409659D01*
X0058644Y0408925D01*
X0058277Y0408558D01*
X0056809Y0408558D02*
X0056442Y0408925D01*
X0056442Y0409659D01*
X0056809Y0410026D01*
X0056442Y0410768D02*
X0056442Y0411869D01*
X0056809Y0412236D01*
X0057176Y0412236D01*
X0057543Y0411869D01*
X0057543Y0410768D01*
X0057543Y0411869D02*
X0057910Y0412236D01*
X0058277Y0412236D01*
X0058644Y0411869D01*
X0058644Y0410768D01*
X0056442Y0410768D01*
X0056442Y0406348D02*
X0058277Y0406348D01*
X0058644Y0406715D01*
X0066144Y0379776D02*
X0066144Y0378308D01*
X0066144Y0379042D02*
X0063942Y0379042D01*
X0064676Y0378308D01*
X0064309Y0377566D02*
X0063942Y0377199D01*
X0063942Y0376098D01*
X0066144Y0376098D01*
X0066144Y0377199D01*
X0065777Y0377566D01*
X0064309Y0377566D01*
X0060144Y0367986D02*
X0060144Y0366518D01*
X0060144Y0367252D02*
X0057942Y0367252D01*
X0058676Y0366518D01*
X0058676Y0365776D02*
X0058309Y0365776D01*
X0057942Y0365409D01*
X0057942Y0364675D01*
X0058309Y0364308D01*
X0058309Y0363566D02*
X0057942Y0363199D01*
X0057942Y0362465D01*
X0058309Y0362098D01*
X0059777Y0362098D01*
X0060144Y0362465D01*
X0060144Y0363199D01*
X0059777Y0363566D01*
X0060144Y0364308D02*
X0058676Y0365776D01*
X0060144Y0365776D02*
X0060144Y0364308D01*
X0088942Y0345458D02*
X0088942Y0344724D01*
X0089309Y0344357D01*
X0090777Y0344357D01*
X0091144Y0344724D01*
X0091144Y0345458D01*
X0090777Y0345825D01*
X0090043Y0345825D01*
X0090043Y0345091D01*
X0089309Y0345825D02*
X0088942Y0345458D01*
X0088942Y0343615D02*
X0088942Y0342147D01*
X0091144Y0342147D01*
X0091144Y0343615D01*
X0090043Y0342881D02*
X0090043Y0342147D01*
X0090043Y0341405D02*
X0090410Y0341038D01*
X0090410Y0339938D01*
X0090410Y0340672D02*
X0091144Y0341405D01*
X0090043Y0341405D02*
X0089309Y0341405D01*
X0088942Y0341038D01*
X0088942Y0339938D01*
X0091144Y0339938D01*
X0091511Y0339196D02*
X0091511Y0337728D01*
X0090777Y0336986D02*
X0091144Y0336619D01*
X0091144Y0335885D01*
X0090777Y0335518D01*
X0090410Y0334776D02*
X0088942Y0334776D01*
X0089309Y0335518D02*
X0088942Y0335885D01*
X0088942Y0336619D01*
X0089309Y0336986D01*
X0089676Y0336986D01*
X0090043Y0336619D01*
X0090410Y0336986D01*
X0090777Y0336986D01*
X0090043Y0336619D02*
X0090043Y0336252D01*
X0090410Y0334776D02*
X0091144Y0334042D01*
X0090410Y0333308D01*
X0088942Y0333308D01*
X0089309Y0332566D02*
X0089676Y0332566D01*
X0090043Y0332199D01*
X0090410Y0332566D01*
X0090777Y0332566D01*
X0091144Y0332199D01*
X0091144Y0331465D01*
X0090777Y0331098D01*
X0090043Y0331832D02*
X0090043Y0332199D01*
X0089309Y0332566D02*
X0088942Y0332199D01*
X0088942Y0331465D01*
X0089309Y0331098D01*
X0091209Y0324356D02*
X0090842Y0323989D01*
X0090842Y0323255D01*
X0091209Y0322888D01*
X0091209Y0322146D02*
X0090842Y0321779D01*
X0090842Y0321045D01*
X0091209Y0320678D01*
X0091209Y0319936D02*
X0090842Y0319569D01*
X0090842Y0318835D01*
X0091209Y0318468D01*
X0092677Y0318468D01*
X0093044Y0318835D01*
X0093044Y0319569D01*
X0092677Y0319936D01*
X0093044Y0320678D02*
X0091576Y0322146D01*
X0091209Y0322146D01*
X0093044Y0322146D02*
X0093044Y0320678D01*
X0093044Y0322888D02*
X0091576Y0324356D01*
X0091209Y0324356D01*
X0093044Y0324356D02*
X0093044Y0322888D01*
X0093985Y0316349D02*
X0092947Y0315311D01*
X0092947Y0314792D01*
X0093466Y0314274D01*
X0093985Y0314274D01*
X0095023Y0315311D01*
X0095023Y0315830D01*
X0094504Y0316349D01*
X0093985Y0316349D01*
X0095807Y0315046D02*
X0094250Y0313489D01*
X0095288Y0312451D01*
X0095813Y0311927D02*
X0096851Y0310889D01*
X0097375Y0310364D02*
X0098154Y0309586D01*
X0098673Y0309586D01*
X0099711Y0310624D01*
X0099711Y0311143D01*
X0098932Y0311921D01*
X0097375Y0310364D01*
X0097110Y0312186D02*
X0096591Y0312705D01*
X0095813Y0311927D02*
X0097370Y0313484D01*
X0098408Y0312446D01*
X0098678Y0308542D02*
X0099716Y0307504D01*
X0100760Y0307498D02*
X0100760Y0306979D01*
X0101279Y0306460D01*
X0101798Y0306460D01*
X0102057Y0306720D01*
X0102057Y0307239D01*
X0101538Y0307758D01*
X0101538Y0308277D01*
X0101798Y0308536D01*
X0102317Y0308536D01*
X0102836Y0308017D01*
X0102836Y0307498D01*
X0103361Y0306974D02*
X0102323Y0305936D01*
X0102323Y0305417D01*
X0102842Y0304898D01*
X0103361Y0304898D01*
X0103626Y0304114D02*
X0104664Y0303076D01*
X0103626Y0304114D02*
X0105183Y0305671D01*
X0104399Y0305936D02*
X0104399Y0306455D01*
X0103880Y0306974D01*
X0103361Y0306974D01*
X0089620Y0293233D02*
X0090399Y0292455D01*
X0090399Y0291936D01*
X0089361Y0290898D01*
X0088842Y0290898D01*
X0088063Y0291676D01*
X0089620Y0293233D01*
X0090404Y0290892D02*
X0091442Y0289854D01*
X0091442Y0290892D02*
X0090404Y0289854D01*
X0087279Y0291941D02*
X0086241Y0292979D01*
X0086235Y0294023D02*
X0085716Y0294023D01*
X0084938Y0294801D01*
X0086495Y0296358D01*
X0087273Y0295580D01*
X0087273Y0295061D01*
X0087014Y0294801D01*
X0086495Y0294801D01*
X0085716Y0295580D01*
X0084932Y0295845D02*
X0084673Y0295586D01*
X0084154Y0295586D01*
X0083635Y0296105D01*
X0083635Y0296624D01*
X0083110Y0297148D02*
X0084408Y0298446D01*
X0084673Y0297662D02*
X0084413Y0297402D01*
X0084413Y0296883D01*
X0084932Y0296364D01*
X0084932Y0295845D01*
X0085711Y0296624D02*
X0085711Y0297143D01*
X0085192Y0297662D01*
X0084673Y0297662D01*
X0083110Y0297148D02*
X0082591Y0297148D01*
X0082072Y0297667D01*
X0082072Y0298186D01*
X0083370Y0299484D01*
X0086495Y0294801D02*
X0086495Y0294282D01*
X0086235Y0294023D01*
X0073317Y0280536D02*
X0073836Y0280017D01*
X0073836Y0279498D01*
X0073576Y0279239D01*
X0073057Y0279239D01*
X0073057Y0278720D01*
X0072798Y0278460D01*
X0072279Y0278460D01*
X0071760Y0278979D01*
X0071760Y0279498D01*
X0072798Y0279498D02*
X0073057Y0279239D01*
X0073582Y0278195D02*
X0073582Y0277157D01*
X0074620Y0277157D01*
X0075658Y0278195D01*
X0075923Y0277411D02*
X0076442Y0277411D01*
X0076961Y0276892D01*
X0076961Y0276373D01*
X0076702Y0276114D01*
X0076183Y0276114D01*
X0076183Y0275595D01*
X0075923Y0275335D01*
X0075404Y0275335D01*
X0074885Y0275854D01*
X0074885Y0276373D01*
X0075923Y0276373D02*
X0076183Y0276114D01*
X0073582Y0278195D02*
X0074620Y0279233D01*
X0073317Y0280536D02*
X0072798Y0280536D01*
X0071754Y0280542D02*
X0070716Y0281580D01*
X0071754Y0281580D02*
X0070716Y0280542D01*
X0066583Y0298287D02*
X0064382Y0298287D01*
X0066583Y0298287D02*
X0066583Y0299755D01*
X0066583Y0300497D02*
X0066583Y0301965D01*
X0066583Y0302707D02*
X0066583Y0303808D01*
X0066216Y0304175D01*
X0064749Y0304175D01*
X0064382Y0303808D01*
X0064382Y0302707D01*
X0066583Y0302707D01*
X0065482Y0301231D02*
X0065482Y0300497D01*
X0064382Y0300497D02*
X0066583Y0300497D01*
X0064382Y0300497D02*
X0064382Y0301965D01*
X0066950Y0304917D02*
X0066950Y0306385D01*
X0066583Y0307127D02*
X0066583Y0308228D01*
X0066216Y0308595D01*
X0064749Y0308595D01*
X0064382Y0308228D01*
X0064382Y0307127D01*
X0066583Y0307127D01*
X0066216Y0309337D02*
X0064749Y0309337D01*
X0064382Y0309704D01*
X0064382Y0310438D01*
X0064749Y0310805D01*
X0066216Y0310805D01*
X0066583Y0310438D01*
X0066583Y0309704D01*
X0066216Y0309337D01*
X0066216Y0311547D02*
X0066583Y0311914D01*
X0066583Y0312648D01*
X0066216Y0313015D01*
X0064382Y0313015D01*
X0064382Y0313757D02*
X0064382Y0315224D01*
X0064382Y0314490D02*
X0066583Y0314490D01*
X0066216Y0311547D02*
X0064382Y0311547D01*
X0105183Y0265545D02*
X0104923Y0265286D01*
X0104923Y0264767D01*
X0105442Y0264248D01*
X0105442Y0263729D01*
X0105183Y0263470D01*
X0104664Y0263470D01*
X0104145Y0263989D01*
X0104145Y0264508D01*
X0105183Y0265545D02*
X0105702Y0265545D01*
X0106221Y0265027D01*
X0106221Y0264508D01*
X0107005Y0264242D02*
X0105448Y0262685D01*
X0106486Y0262685D01*
X0106486Y0261647D01*
X0108043Y0263204D01*
X0108568Y0262680D02*
X0107011Y0261123D01*
X0107789Y0260344D01*
X0108308Y0260344D01*
X0109346Y0261382D01*
X0109346Y0261901D01*
X0108568Y0262680D01*
X0110130Y0261117D02*
X0110649Y0260598D01*
X0110390Y0260858D02*
X0108833Y0259301D01*
X0108573Y0259560D02*
X0109092Y0259041D01*
X0109875Y0258778D02*
X0109875Y0258259D01*
X0110394Y0257740D01*
X0110913Y0257740D01*
X0111951Y0258778D01*
X0111951Y0259297D01*
X0111432Y0259816D01*
X0110913Y0259816D01*
X0109875Y0258778D01*
X0103732Y0259183D02*
X0103732Y0257715D01*
X0103365Y0257348D01*
X0102264Y0257348D01*
X0102264Y0259550D01*
X0103365Y0259550D01*
X0103732Y0259183D01*
X0101522Y0259550D02*
X0101522Y0257348D01*
X0100054Y0259550D01*
X0100054Y0257348D01*
X0099312Y0257715D02*
X0099312Y0258449D01*
X0098578Y0258449D01*
X0097844Y0259183D02*
X0097844Y0257715D01*
X0098211Y0257348D01*
X0098945Y0257348D01*
X0099312Y0257715D01*
X0099312Y0259183D02*
X0098945Y0259550D01*
X0098211Y0259550D01*
X0097844Y0259183D01*
X0100211Y0250550D02*
X0099844Y0250183D01*
X0099844Y0249816D01*
X0100211Y0249449D01*
X0100945Y0249449D01*
X0101312Y0249082D01*
X0101312Y0248715D01*
X0100945Y0248348D01*
X0100211Y0248348D01*
X0099844Y0248715D01*
X0100211Y0250550D02*
X0100945Y0250550D01*
X0101312Y0250183D01*
X0102054Y0250550D02*
X0102054Y0248348D01*
X0102788Y0249082D01*
X0103522Y0248348D01*
X0103522Y0250550D01*
X0104264Y0250183D02*
X0104264Y0248715D01*
X0104631Y0248348D01*
X0105365Y0248348D01*
X0105732Y0248715D01*
X0106474Y0248348D02*
X0107942Y0248348D01*
X0108684Y0248348D02*
X0108684Y0250550D01*
X0109051Y0249449D02*
X0110152Y0248348D01*
X0108684Y0249082D02*
X0110152Y0250550D01*
X0106474Y0250550D02*
X0106474Y0248348D01*
X0105732Y0250183D02*
X0105365Y0250550D01*
X0104631Y0250550D01*
X0104264Y0250183D01*
X0112312Y0242072D02*
X0113350Y0243110D01*
X0112831Y0242591D02*
X0114388Y0241034D01*
X0115172Y0242337D02*
X0114134Y0243375D01*
X0114134Y0243894D01*
X0114653Y0244413D01*
X0115172Y0244413D01*
X0116210Y0243375D01*
X0116210Y0242856D01*
X0115691Y0242337D01*
X0115172Y0242337D01*
X0116476Y0244159D02*
X0117254Y0244937D01*
X0117254Y0245456D01*
X0116735Y0245975D01*
X0116216Y0245975D01*
X0115438Y0245197D01*
X0116995Y0243640D01*
X0116995Y0244678D02*
X0118033Y0244678D01*
X0118817Y0244943D02*
X0119855Y0245981D01*
X0120639Y0247284D02*
X0119082Y0248841D01*
X0118563Y0248322D02*
X0119601Y0249360D01*
X0120125Y0249885D02*
X0122720Y0249366D01*
X0121682Y0248328D02*
X0121163Y0250923D01*
X0119515Y0262175D02*
X0118477Y0263213D01*
X0117433Y0263219D02*
X0118471Y0264257D01*
X0118471Y0264776D01*
X0117693Y0265554D01*
X0116136Y0263998D01*
X0116914Y0263219D01*
X0117433Y0263219D01*
X0115352Y0264263D02*
X0114314Y0265301D01*
X0114308Y0266344D02*
X0113789Y0266344D01*
X0113011Y0267123D01*
X0114568Y0268680D01*
X0115346Y0267901D01*
X0115346Y0267382D01*
X0115087Y0267123D01*
X0114568Y0267123D01*
X0113789Y0267901D01*
X0113005Y0268166D02*
X0112746Y0267907D01*
X0112227Y0267907D01*
X0111708Y0268426D01*
X0111708Y0268945D01*
X0111183Y0269470D02*
X0112480Y0270767D01*
X0112746Y0269983D02*
X0112486Y0269723D01*
X0112486Y0269204D01*
X0113005Y0268685D01*
X0113005Y0268166D01*
X0113784Y0268945D02*
X0113784Y0269464D01*
X0113265Y0269983D01*
X0112746Y0269983D01*
X0111183Y0269470D02*
X0110664Y0269470D01*
X0110145Y0269989D01*
X0110145Y0270508D01*
X0111442Y0271805D01*
X0114568Y0267123D02*
X0114568Y0266604D01*
X0114308Y0266344D01*
X0119789Y0272344D02*
X0119270Y0272863D01*
X0119270Y0273382D01*
X0118746Y0273907D02*
X0120043Y0275204D01*
X0120308Y0274420D02*
X0120049Y0274161D01*
X0120049Y0273642D01*
X0120568Y0273123D01*
X0120568Y0272604D01*
X0120308Y0272344D01*
X0119789Y0272344D01*
X0120573Y0271560D02*
X0122130Y0273117D01*
X0122909Y0272339D01*
X0122909Y0271820D01*
X0122649Y0271560D01*
X0122130Y0271560D01*
X0121352Y0272339D01*
X0121346Y0273382D02*
X0121346Y0273901D01*
X0120827Y0274420D01*
X0120308Y0274420D01*
X0118746Y0273907D02*
X0118227Y0273907D01*
X0117708Y0274426D01*
X0117708Y0274945D01*
X0119005Y0276242D01*
X0118480Y0276767D02*
X0117442Y0275729D01*
X0116404Y0275729D01*
X0116404Y0276767D01*
X0117442Y0277805D01*
X0120573Y0271560D02*
X0121352Y0270782D01*
X0121871Y0270782D01*
X0122130Y0271041D01*
X0122130Y0271560D01*
X0129876Y0276738D02*
X0130914Y0275700D01*
X0131958Y0275694D02*
X0131958Y0275175D01*
X0132477Y0274656D01*
X0132996Y0274656D01*
X0133256Y0274916D01*
X0133256Y0275435D01*
X0132737Y0275954D01*
X0132737Y0276473D01*
X0132996Y0276732D01*
X0133515Y0276732D01*
X0134034Y0276213D01*
X0134034Y0275694D01*
X0134818Y0275429D02*
X0135597Y0274651D01*
X0135597Y0274132D01*
X0134559Y0273094D01*
X0134040Y0273094D01*
X0133261Y0273872D01*
X0134818Y0275429D01*
X0135862Y0273348D02*
X0136900Y0273348D01*
X0136900Y0272310D01*
X0135862Y0271272D01*
X0136640Y0272050D02*
X0135602Y0273088D01*
X0135862Y0273348D02*
X0134824Y0272310D01*
X0129871Y0277782D02*
X0130909Y0278820D01*
X0130909Y0279339D01*
X0130130Y0280117D01*
X0128573Y0278560D01*
X0129352Y0277782D01*
X0129871Y0277782D01*
X0128049Y0279085D02*
X0127011Y0280123D01*
X0128568Y0281680D01*
X0129606Y0280642D01*
X0128308Y0280382D02*
X0127789Y0280901D01*
X0126486Y0280647D02*
X0125448Y0281685D01*
X0127005Y0283242D01*
X0126221Y0283508D02*
X0126221Y0284027D01*
X0125702Y0284545D01*
X0125183Y0284545D01*
X0124145Y0283508D01*
X0124145Y0282989D01*
X0124664Y0282470D01*
X0125183Y0282470D01*
X0126221Y0283508D01*
X0139708Y0295426D02*
X0139708Y0295945D01*
X0139708Y0295426D02*
X0140227Y0294907D01*
X0140746Y0294907D01*
X0141005Y0295166D01*
X0141005Y0295685D01*
X0140746Y0295945D01*
X0141005Y0295685D02*
X0141524Y0295685D01*
X0141784Y0295945D01*
X0141784Y0296464D01*
X0141265Y0296983D01*
X0140746Y0296983D01*
X0139702Y0296989D02*
X0138664Y0298027D01*
X0139702Y0298027D02*
X0138664Y0296989D01*
X0141530Y0294642D02*
X0141530Y0293604D01*
X0142568Y0293604D01*
X0143606Y0294642D01*
X0143871Y0293858D02*
X0144390Y0293858D01*
X0144909Y0293339D01*
X0144909Y0292820D01*
X0144649Y0292560D01*
X0144130Y0292560D01*
X0144130Y0292041D01*
X0143871Y0291782D01*
X0143352Y0291782D01*
X0142833Y0292301D01*
X0142833Y0292820D01*
X0143871Y0292820D02*
X0144130Y0292560D01*
X0141530Y0294642D02*
X0142568Y0295680D01*
X0126923Y0325335D02*
X0127961Y0326373D01*
X0127961Y0326892D01*
X0127183Y0327671D01*
X0125626Y0326114D01*
X0126404Y0325335D01*
X0126923Y0325335D01*
X0125101Y0326638D02*
X0126658Y0328195D01*
X0125620Y0329233D02*
X0125101Y0326638D01*
X0124063Y0327676D02*
X0125620Y0329233D01*
X0124836Y0329498D02*
X0124836Y0330017D01*
X0124317Y0330536D01*
X0123798Y0330536D01*
X0122760Y0329498D01*
X0122760Y0328979D01*
X0123279Y0328460D01*
X0123798Y0328460D01*
X0124317Y0328979D01*
X0123798Y0329498D01*
X0126192Y0344598D02*
X0128394Y0344598D01*
X0128394Y0346066D01*
X0128394Y0346808D02*
X0128394Y0348276D01*
X0128394Y0347542D02*
X0126192Y0347542D01*
X0126926Y0346808D01*
X0187404Y0346729D02*
X0188183Y0347508D01*
X0189221Y0347508D01*
X0189480Y0347767D01*
X0190005Y0347242D02*
X0188448Y0345685D01*
X0189486Y0344647D01*
X0190011Y0344123D02*
X0191049Y0343085D01*
X0190011Y0344123D02*
X0191568Y0345680D01*
X0191043Y0346204D02*
X0190005Y0347242D01*
X0189227Y0346464D02*
X0189746Y0345945D01*
X0188183Y0347508D02*
X0188183Y0348545D01*
X0188442Y0348805D01*
X0193886Y0354248D02*
X0194664Y0353470D01*
X0195183Y0353470D01*
X0195442Y0353729D01*
X0195442Y0354248D01*
X0194664Y0355027D01*
X0193886Y0354248D02*
X0195442Y0355805D01*
X0196221Y0355027D01*
X0196221Y0354508D01*
X0195961Y0354248D01*
X0195442Y0354248D01*
X0195448Y0352685D02*
X0196486Y0351647D01*
X0197270Y0351382D02*
X0197270Y0350863D01*
X0197789Y0350344D01*
X0198308Y0350344D01*
X0199606Y0351642D01*
X0198568Y0352680D02*
X0197270Y0351382D01*
X0195448Y0352685D02*
X0197005Y0354242D01*
X0208664Y0366470D02*
X0208145Y0366989D01*
X0208145Y0367508D01*
X0208923Y0367767D02*
X0209442Y0367248D01*
X0209442Y0366729D01*
X0209183Y0366470D01*
X0208664Y0366470D01*
X0208923Y0367767D02*
X0208923Y0368286D01*
X0209183Y0368545D01*
X0209702Y0368545D01*
X0210221Y0368027D01*
X0210221Y0367508D01*
X0211005Y0367242D02*
X0212043Y0366204D01*
X0211524Y0366723D02*
X0209967Y0365166D01*
X0211011Y0364123D02*
X0212568Y0365680D01*
X0213606Y0364642D01*
X0214130Y0364117D02*
X0212573Y0362560D01*
X0213092Y0363079D02*
X0213871Y0362301D01*
X0214390Y0362301D01*
X0214909Y0362820D01*
X0214909Y0363339D01*
X0214130Y0364117D01*
X0212308Y0364382D02*
X0211789Y0364901D01*
X0211011Y0364123D02*
X0212049Y0363085D01*
X0214136Y0360998D02*
X0216212Y0360998D01*
X0216471Y0361257D01*
X0216471Y0361776D01*
X0215952Y0362295D01*
X0215433Y0362295D01*
X0214136Y0360998D02*
X0215174Y0359960D01*
X0247349Y0394948D02*
X0248083Y0394948D01*
X0248450Y0395315D01*
X0248450Y0396783D01*
X0248083Y0397150D01*
X0247349Y0397150D01*
X0246982Y0396783D01*
X0246982Y0395315D01*
X0247349Y0394948D01*
X0249192Y0394948D02*
X0249192Y0397150D01*
X0249192Y0394948D02*
X0250660Y0394948D01*
X0251402Y0394948D02*
X0252870Y0394948D01*
X0253611Y0394948D02*
X0254712Y0394948D01*
X0255079Y0395315D01*
X0255079Y0396783D01*
X0254712Y0397150D01*
X0253611Y0397150D01*
X0253611Y0394948D01*
X0252136Y0396049D02*
X0251402Y0396049D01*
X0251402Y0397150D02*
X0251402Y0394948D01*
X0251402Y0397150D02*
X0252870Y0397150D01*
X0258031Y0397150D02*
X0258031Y0394948D01*
X0259132Y0394948D01*
X0259499Y0395315D01*
X0259499Y0396783D01*
X0259132Y0397150D01*
X0258031Y0397150D01*
X0260241Y0396416D02*
X0260608Y0396416D01*
X0260608Y0394948D01*
X0260241Y0394948D02*
X0260975Y0394948D01*
X0261714Y0394948D02*
X0262815Y0394948D01*
X0263182Y0395315D01*
X0262815Y0395682D01*
X0262081Y0395682D01*
X0261714Y0396049D01*
X0262081Y0396416D01*
X0263182Y0396416D01*
X0263924Y0396416D02*
X0265025Y0396416D01*
X0265392Y0396049D01*
X0265392Y0395315D01*
X0265025Y0394948D01*
X0263924Y0394948D01*
X0263924Y0394214D02*
X0263924Y0396416D01*
X0260608Y0397150D02*
X0260608Y0397517D01*
X0307642Y0368446D02*
X0307642Y0366978D01*
X0307642Y0367712D02*
X0309844Y0367712D01*
X0309844Y0366236D02*
X0309110Y0365502D01*
X0309110Y0365869D02*
X0309110Y0364768D01*
X0309844Y0364768D02*
X0307642Y0364768D01*
X0307642Y0365869D01*
X0308009Y0366236D01*
X0308743Y0366236D01*
X0309110Y0365869D01*
X0308743Y0364026D02*
X0308743Y0362558D01*
X0308376Y0362558D02*
X0307642Y0363292D01*
X0308376Y0364026D01*
X0309844Y0364026D01*
X0309844Y0362558D02*
X0308376Y0362558D01*
X0307642Y0361816D02*
X0309477Y0361816D01*
X0309844Y0361449D01*
X0309844Y0360715D01*
X0309477Y0360348D01*
X0307642Y0360348D01*
X0318442Y0360348D02*
X0318442Y0361082D01*
X0318442Y0360715D02*
X0320644Y0360715D01*
X0320644Y0360348D02*
X0320644Y0361082D01*
X0320644Y0361821D02*
X0319176Y0363289D01*
X0318809Y0363289D01*
X0318442Y0362922D01*
X0318442Y0362188D01*
X0318809Y0361821D01*
X0320644Y0361821D02*
X0320644Y0363289D01*
X0320277Y0364031D02*
X0320644Y0364398D01*
X0320644Y0365132D01*
X0320277Y0365499D01*
X0318809Y0365499D02*
X0318442Y0365132D01*
X0318442Y0364398D01*
X0318809Y0364031D01*
X0320277Y0364031D01*
X0323692Y0363199D02*
X0324059Y0363566D01*
X0324793Y0363566D01*
X0325160Y0363199D01*
X0325160Y0362098D01*
X0325160Y0362832D02*
X0325894Y0363566D01*
X0324793Y0364308D02*
X0324793Y0365776D01*
X0323692Y0365409D02*
X0324793Y0364308D01*
X0325894Y0365409D02*
X0323692Y0365409D01*
X0323692Y0363199D02*
X0323692Y0362098D01*
X0325894Y0362098D01*
X0331192Y0358409D02*
X0331559Y0358776D01*
X0331926Y0358776D01*
X0332293Y0358409D01*
X0332660Y0358776D01*
X0333027Y0358776D01*
X0333394Y0358409D01*
X0333394Y0357675D01*
X0333027Y0357308D01*
X0333394Y0356566D02*
X0332660Y0355832D01*
X0332660Y0356199D02*
X0332660Y0355098D01*
X0333394Y0355098D02*
X0331192Y0355098D01*
X0331192Y0356199D01*
X0331559Y0356566D01*
X0332293Y0356566D01*
X0332660Y0356199D01*
X0331559Y0357308D02*
X0331192Y0357675D01*
X0331192Y0358409D01*
X0332293Y0358409D02*
X0332293Y0358042D01*
X0332942Y0350026D02*
X0333309Y0349292D01*
X0334043Y0348558D01*
X0334043Y0349659D01*
X0334410Y0350026D01*
X0334777Y0350026D01*
X0335144Y0349659D01*
X0335144Y0348925D01*
X0334777Y0348558D01*
X0334043Y0348558D01*
X0334043Y0347816D02*
X0334410Y0347449D01*
X0334410Y0346348D01*
X0334410Y0347082D02*
X0335144Y0347816D01*
X0334043Y0347816D02*
X0333309Y0347816D01*
X0332942Y0347449D01*
X0332942Y0346348D01*
X0335144Y0346348D01*
X0342942Y0346348D02*
X0342942Y0347449D01*
X0343309Y0347816D01*
X0344043Y0347816D01*
X0344410Y0347449D01*
X0344410Y0346348D01*
X0344410Y0347082D02*
X0345144Y0347816D01*
X0344777Y0348558D02*
X0345144Y0348925D01*
X0345144Y0349659D01*
X0344777Y0350026D01*
X0344043Y0350026D01*
X0343676Y0349659D01*
X0343676Y0349292D01*
X0344043Y0348558D01*
X0342942Y0348558D01*
X0342942Y0350026D01*
X0342942Y0346348D02*
X0345144Y0346348D01*
X0343427Y0360468D02*
X0343794Y0360835D01*
X0343794Y0361569D01*
X0343427Y0361936D01*
X0343794Y0362678D02*
X0342326Y0364146D01*
X0341959Y0364146D01*
X0341592Y0363779D01*
X0341592Y0363045D01*
X0341959Y0362678D01*
X0341959Y0361936D02*
X0341592Y0361569D01*
X0341592Y0360835D01*
X0341959Y0360468D01*
X0343427Y0360468D01*
X0343794Y0362678D02*
X0343794Y0364146D01*
X0343427Y0364888D02*
X0343794Y0365255D01*
X0343794Y0365989D01*
X0343427Y0366356D01*
X0343060Y0366356D01*
X0342693Y0365989D01*
X0342693Y0365622D01*
X0342693Y0365989D02*
X0342326Y0366356D01*
X0341959Y0366356D01*
X0341592Y0365989D01*
X0341592Y0365255D01*
X0341959Y0364888D01*
X0359092Y0367678D02*
X0359092Y0368779D01*
X0359459Y0369146D01*
X0360193Y0369146D01*
X0360560Y0368779D01*
X0360560Y0367678D01*
X0361294Y0367678D02*
X0359092Y0367678D01*
X0360560Y0368412D02*
X0361294Y0369146D01*
X0361294Y0369888D02*
X0359826Y0371356D01*
X0359459Y0371356D01*
X0359092Y0370989D01*
X0359092Y0370255D01*
X0359459Y0369888D01*
X0361294Y0369888D02*
X0361294Y0371356D01*
X0346102Y0398698D02*
X0344634Y0398698D01*
X0346102Y0400166D01*
X0346102Y0400533D01*
X0345735Y0400900D01*
X0345001Y0400900D01*
X0344634Y0400533D01*
X0343158Y0400900D02*
X0343158Y0398698D01*
X0342424Y0398698D02*
X0343892Y0398698D01*
X0342424Y0400166D02*
X0343158Y0400900D01*
X0341682Y0400533D02*
X0341682Y0399799D01*
X0341315Y0399432D01*
X0340214Y0399432D01*
X0340214Y0398698D02*
X0340214Y0400900D01*
X0341315Y0400900D01*
X0341682Y0400533D01*
X0340948Y0399432D02*
X0341682Y0398698D01*
X0334232Y0398832D02*
X0334232Y0398465D01*
X0333865Y0398098D01*
X0333131Y0398098D01*
X0332764Y0398465D01*
X0332022Y0398098D02*
X0330554Y0398098D01*
X0331288Y0398098D02*
X0331288Y0400300D01*
X0330554Y0399566D01*
X0329812Y0399933D02*
X0329812Y0399199D01*
X0329445Y0398832D01*
X0328344Y0398832D01*
X0328344Y0398098D02*
X0328344Y0400300D01*
X0329445Y0400300D01*
X0329812Y0399933D01*
X0329078Y0398832D02*
X0329812Y0398098D01*
X0332764Y0399933D02*
X0333131Y0400300D01*
X0333865Y0400300D01*
X0334232Y0399933D01*
X0334232Y0399566D01*
X0333865Y0399199D01*
X0334232Y0398832D01*
X0333865Y0399199D02*
X0333498Y0399199D01*
X0326294Y0392289D02*
X0324092Y0392289D01*
X0325193Y0391188D01*
X0325193Y0392656D01*
X0324826Y0390446D02*
X0324459Y0390446D01*
X0324092Y0390079D01*
X0324092Y0389345D01*
X0324459Y0388978D01*
X0324459Y0388236D02*
X0324092Y0387869D01*
X0324092Y0387135D01*
X0324459Y0386768D01*
X0325927Y0386768D01*
X0326294Y0387135D01*
X0326294Y0387869D01*
X0325927Y0388236D01*
X0326294Y0388978D02*
X0324826Y0390446D01*
X0326294Y0390446D02*
X0326294Y0388978D01*
X0321294Y0388978D02*
X0319826Y0390446D01*
X0319459Y0390446D01*
X0319092Y0390079D01*
X0319092Y0389345D01*
X0319459Y0388978D01*
X0319459Y0388236D02*
X0319092Y0387869D01*
X0319092Y0387135D01*
X0319459Y0386768D01*
X0320927Y0386768D01*
X0321294Y0387135D01*
X0321294Y0387869D01*
X0320927Y0388236D01*
X0321294Y0388978D02*
X0321294Y0390446D01*
X0320927Y0391188D02*
X0321294Y0391555D01*
X0321294Y0392289D01*
X0320927Y0392656D01*
X0320193Y0392656D01*
X0319826Y0392289D01*
X0319826Y0391922D01*
X0320193Y0391188D01*
X0319092Y0391188D01*
X0319092Y0392656D01*
X0314294Y0392289D02*
X0314294Y0391555D01*
X0313927Y0391188D01*
X0313193Y0391188D01*
X0313193Y0392289D01*
X0313560Y0392656D01*
X0313927Y0392656D01*
X0314294Y0392289D01*
X0313193Y0391188D02*
X0312459Y0391922D01*
X0312092Y0392656D01*
X0312459Y0390446D02*
X0312092Y0390079D01*
X0312092Y0389345D01*
X0312459Y0388978D01*
X0312459Y0388236D02*
X0312092Y0387869D01*
X0312092Y0387135D01*
X0312459Y0386768D01*
X0313927Y0386768D01*
X0314294Y0387135D01*
X0314294Y0387869D01*
X0313927Y0388236D01*
X0314294Y0388978D02*
X0312826Y0390446D01*
X0312459Y0390446D01*
X0314294Y0390446D02*
X0314294Y0388978D01*
X0314172Y0332413D02*
X0314432Y0332153D01*
X0314432Y0331634D01*
X0314951Y0331634D01*
X0315210Y0331375D01*
X0315210Y0330856D01*
X0314691Y0330337D01*
X0314172Y0330337D01*
X0313388Y0330072D02*
X0313388Y0329034D01*
X0312350Y0329034D01*
X0311312Y0330072D01*
X0311047Y0329287D02*
X0311307Y0329028D01*
X0311307Y0328509D01*
X0311826Y0328509D01*
X0312085Y0328250D01*
X0312085Y0327731D01*
X0311566Y0327212D01*
X0311047Y0327212D01*
X0311047Y0328250D02*
X0311307Y0328509D01*
X0311047Y0329287D02*
X0310528Y0329287D01*
X0310009Y0328769D01*
X0310009Y0328250D01*
X0310004Y0327206D02*
X0308966Y0326168D01*
X0308966Y0327206D02*
X0310004Y0326168D01*
X0313388Y0330072D02*
X0312350Y0331110D01*
X0313134Y0331375D02*
X0313134Y0331894D01*
X0313653Y0332413D01*
X0314172Y0332413D01*
X0314432Y0331634D02*
X0314172Y0331375D01*
X0335133Y0309892D02*
X0334614Y0309373D01*
X0334614Y0308854D01*
X0335652Y0307816D01*
X0336171Y0307816D01*
X0336690Y0308335D01*
X0336690Y0308854D01*
X0336171Y0309373D01*
X0335652Y0308854D01*
X0335652Y0309892D02*
X0335133Y0309892D01*
X0335917Y0310676D02*
X0337474Y0309119D01*
X0338512Y0310157D01*
X0339036Y0310682D02*
X0337479Y0312239D01*
X0338258Y0313017D01*
X0338777Y0313017D01*
X0339296Y0312498D01*
X0339296Y0311979D01*
X0338517Y0311201D01*
X0337214Y0310416D02*
X0336695Y0309897D01*
X0335917Y0310676D02*
X0336955Y0311714D01*
X0339042Y0313801D02*
X0340599Y0312244D01*
X0340599Y0313282D01*
X0341637Y0313282D01*
X0340080Y0314839D01*
X0340605Y0315364D02*
X0341643Y0315364D01*
X0341643Y0316402D01*
X0343199Y0314845D01*
X0342162Y0313807D02*
X0340605Y0315364D01*
X0335386Y0307032D02*
X0334348Y0305994D01*
X0332791Y0307551D01*
X0332269Y0307028D02*
X0331750Y0306509D01*
X0332009Y0306769D02*
X0333566Y0305212D01*
X0333307Y0304952D02*
X0333826Y0305471D01*
X0332523Y0304687D02*
X0332523Y0304168D01*
X0331744Y0303389D01*
X0330187Y0304946D01*
X0330966Y0305725D01*
X0331485Y0305725D01*
X0331744Y0305465D01*
X0331744Y0304946D01*
X0330966Y0304168D01*
X0331744Y0304946D02*
X0332263Y0304946D01*
X0332523Y0304687D01*
X0345225Y0291984D02*
X0344187Y0290946D01*
X0344706Y0291465D02*
X0346263Y0289908D01*
X0347047Y0291212D02*
X0347566Y0291212D01*
X0348085Y0291731D01*
X0348085Y0292250D01*
X0346788Y0293547D01*
X0347312Y0294072D02*
X0348091Y0294850D01*
X0348610Y0294850D01*
X0349129Y0294331D01*
X0349129Y0293812D01*
X0348350Y0293034D01*
X0348869Y0293553D02*
X0349907Y0293553D01*
X0350432Y0294077D02*
X0348875Y0295634D01*
X0351470Y0295115D01*
X0349913Y0296672D01*
X0350438Y0297197D02*
X0351216Y0297975D01*
X0351735Y0297975D01*
X0352254Y0297456D01*
X0352254Y0296937D01*
X0351476Y0296159D01*
X0351995Y0295640D02*
X0350438Y0297197D01*
X0352000Y0298759D02*
X0353557Y0297202D01*
X0353557Y0298240D01*
X0354595Y0298240D01*
X0353038Y0299797D01*
X0353563Y0300322D02*
X0354601Y0300322D01*
X0354601Y0301360D01*
X0356158Y0299803D01*
X0356682Y0300328D02*
X0357720Y0301366D01*
X0357201Y0300847D02*
X0355644Y0302404D01*
X0355644Y0301366D01*
X0353563Y0300322D02*
X0355120Y0298765D01*
X0360563Y0293322D02*
X0361341Y0294101D01*
X0361860Y0294101D01*
X0362379Y0293582D01*
X0362379Y0293063D01*
X0361601Y0292284D01*
X0362120Y0291765D02*
X0360563Y0293322D01*
X0360038Y0292797D02*
X0361336Y0291500D01*
X0361336Y0290981D01*
X0360817Y0290462D01*
X0360298Y0290462D01*
X0359000Y0291759D01*
X0358735Y0290975D02*
X0358216Y0290975D01*
X0357697Y0290456D01*
X0357697Y0289937D01*
X0358735Y0288899D01*
X0359254Y0288899D01*
X0359773Y0289418D01*
X0359773Y0289937D01*
X0358470Y0288115D02*
X0356913Y0289672D01*
X0355875Y0288634D02*
X0357432Y0287077D01*
X0357432Y0288115D01*
X0358470Y0288115D01*
X0356907Y0286553D02*
X0355869Y0287591D01*
X0354831Y0287591D01*
X0354831Y0286553D01*
X0355869Y0285515D01*
X0355345Y0284990D02*
X0354307Y0283952D01*
X0352750Y0285509D01*
X0352485Y0284725D02*
X0351966Y0284725D01*
X0351447Y0284206D01*
X0351447Y0283687D01*
X0352485Y0282649D01*
X0353004Y0282649D01*
X0353523Y0283168D01*
X0353523Y0283687D01*
X0355091Y0286293D02*
X0356129Y0287331D01*
X0362120Y0292803D02*
X0363158Y0292803D01*
X0363682Y0293328D02*
X0362125Y0294885D01*
X0362904Y0295663D01*
X0363423Y0295663D01*
X0363942Y0295144D01*
X0363942Y0294625D01*
X0363163Y0293847D01*
X0363682Y0294366D02*
X0364720Y0294366D01*
X0365245Y0294890D02*
X0366283Y0295928D01*
X0366808Y0296453D02*
X0365251Y0298010D01*
X0367846Y0297491D01*
X0366289Y0299048D01*
X0366813Y0299573D02*
X0367851Y0300610D01*
X0367332Y0300091D02*
X0368889Y0298535D01*
X0364726Y0297485D02*
X0363688Y0296447D01*
X0365245Y0294890D01*
X0364466Y0295669D02*
X0364985Y0296188D01*
X0362610Y0280850D02*
X0362091Y0280850D01*
X0361312Y0280072D01*
X0362869Y0278515D01*
X0363648Y0279293D01*
X0363648Y0279812D01*
X0362610Y0280850D01*
X0360788Y0279547D02*
X0362345Y0277990D01*
X0359750Y0278509D01*
X0361307Y0276952D01*
X0360523Y0276687D02*
X0360004Y0277206D01*
X0359485Y0276687D01*
X0360523Y0276687D02*
X0360523Y0276168D01*
X0360004Y0275649D01*
X0359485Y0275649D01*
X0358447Y0276687D01*
X0358447Y0277206D01*
X0358966Y0277725D01*
X0359485Y0277725D01*
X0348869Y0292515D02*
X0347312Y0294072D01*
X0345750Y0292509D02*
X0347047Y0291212D01*
X0318916Y0276168D02*
X0317878Y0275130D01*
X0317878Y0277206D01*
X0317619Y0277465D01*
X0317100Y0277465D01*
X0316581Y0276946D01*
X0316581Y0276427D01*
X0315797Y0276162D02*
X0317354Y0274605D01*
X0316316Y0273567D02*
X0314759Y0275124D01*
X0315797Y0275124D01*
X0315797Y0276162D01*
X0314234Y0274599D02*
X0315791Y0273042D01*
X0314753Y0273042D01*
X0314753Y0272004D01*
X0313196Y0273561D01*
X0312931Y0272777D02*
X0313450Y0272258D01*
X0313450Y0271739D01*
X0312672Y0270961D01*
X0313191Y0270442D02*
X0311634Y0271999D01*
X0312412Y0272777D01*
X0312931Y0272777D01*
X0311109Y0271474D02*
X0312666Y0269917D01*
X0310071Y0270436D01*
X0311628Y0268879D01*
X0311103Y0268355D02*
X0310065Y0268355D01*
X0310325Y0268614D02*
X0309546Y0267836D01*
X0310065Y0267317D02*
X0308508Y0268874D01*
X0309287Y0269652D01*
X0309806Y0269652D01*
X0310325Y0269133D01*
X0310325Y0268614D01*
X0309281Y0267051D02*
X0307984Y0268349D01*
X0306946Y0267311D02*
X0308243Y0266013D01*
X0308762Y0266013D01*
X0309281Y0266532D01*
X0309281Y0267051D01*
X0306421Y0266786D02*
X0305383Y0265748D01*
X0305902Y0266267D02*
X0307459Y0264710D01*
X0319375Y0261150D02*
X0319375Y0258948D01*
X0320843Y0258948D01*
X0321585Y0258948D02*
X0323053Y0258948D01*
X0323795Y0258948D02*
X0324896Y0258948D01*
X0325263Y0259315D01*
X0325263Y0260783D01*
X0324896Y0261150D01*
X0323795Y0261150D01*
X0323795Y0258948D01*
X0322319Y0260049D02*
X0321585Y0260049D01*
X0321585Y0261150D02*
X0321585Y0258948D01*
X0321585Y0261150D02*
X0323053Y0261150D01*
X0326005Y0261150D02*
X0327105Y0261150D01*
X0327472Y0260783D01*
X0327472Y0260049D01*
X0327105Y0259682D01*
X0326005Y0259682D01*
X0326005Y0258948D02*
X0326005Y0261150D01*
X0328214Y0261150D02*
X0328214Y0258948D01*
X0328948Y0259682D01*
X0329682Y0258948D01*
X0329682Y0261150D01*
X0330424Y0261150D02*
X0331158Y0260416D01*
X0331892Y0261150D01*
X0331892Y0258948D01*
X0332634Y0258948D02*
X0334102Y0258948D01*
X0333368Y0258948D02*
X0333368Y0261150D01*
X0332634Y0260416D01*
X0330424Y0261150D02*
X0330424Y0258948D01*
X0330214Y0251150D02*
X0330214Y0248948D01*
X0330948Y0249682D01*
X0331682Y0248948D01*
X0331682Y0251150D01*
X0332424Y0251150D02*
X0333158Y0250416D01*
X0333892Y0251150D01*
X0333892Y0248948D01*
X0334634Y0249315D02*
X0335001Y0248948D01*
X0335735Y0248948D01*
X0336102Y0249315D01*
X0336102Y0249682D01*
X0335735Y0250049D01*
X0335368Y0250049D01*
X0335735Y0250049D02*
X0336102Y0250416D01*
X0336102Y0250783D01*
X0335735Y0251150D01*
X0335001Y0251150D01*
X0334634Y0250783D01*
X0332424Y0251150D02*
X0332424Y0248948D01*
X0329472Y0250049D02*
X0329105Y0249682D01*
X0328005Y0249682D01*
X0328005Y0248948D02*
X0328005Y0251150D01*
X0329105Y0251150D01*
X0329472Y0250783D01*
X0329472Y0250049D01*
X0327263Y0249315D02*
X0327263Y0250783D01*
X0326896Y0251150D01*
X0325795Y0251150D01*
X0325795Y0248948D01*
X0326896Y0248948D01*
X0327263Y0249315D01*
X0325053Y0248948D02*
X0323585Y0248948D01*
X0323585Y0251150D01*
X0325053Y0251150D01*
X0324319Y0250049D02*
X0323585Y0250049D01*
X0322843Y0248948D02*
X0321375Y0248948D01*
X0321375Y0251150D01*
X0321798Y0242536D02*
X0320760Y0241498D01*
X0320760Y0240979D01*
X0321279Y0240460D01*
X0321798Y0240460D01*
X0322317Y0240979D01*
X0321798Y0241498D01*
X0322836Y0241498D02*
X0322836Y0242017D01*
X0322317Y0242536D01*
X0321798Y0242536D01*
X0323620Y0241233D02*
X0323101Y0238638D01*
X0324658Y0240195D01*
X0325183Y0239671D02*
X0323626Y0238114D01*
X0324404Y0237335D01*
X0324923Y0237335D01*
X0325961Y0238373D01*
X0325961Y0238892D01*
X0325183Y0239671D01*
X0323620Y0241233D02*
X0322063Y0239676D01*
X0317620Y0235233D02*
X0317101Y0232638D01*
X0318658Y0234195D01*
X0319183Y0233671D02*
X0320221Y0232633D01*
X0319702Y0233152D02*
X0318145Y0231595D01*
X0316063Y0233676D02*
X0317620Y0235233D01*
X0317095Y0235758D02*
X0316057Y0236796D01*
X0314500Y0235239D01*
X0315538Y0234201D01*
X0315798Y0235498D02*
X0315279Y0236017D01*
X0314754Y0236542D02*
X0314235Y0236542D01*
X0313457Y0237320D01*
X0313976Y0236802D02*
X0313976Y0235764D01*
X0314754Y0236542D02*
X0315273Y0237061D01*
X0315273Y0237580D01*
X0314495Y0238358D01*
X0312938Y0236802D01*
X0312413Y0237326D02*
X0312413Y0238364D01*
X0312673Y0238105D02*
X0311894Y0238883D01*
X0311375Y0238364D02*
X0312932Y0239921D01*
X0313711Y0239143D01*
X0313711Y0238624D01*
X0313192Y0238105D01*
X0312673Y0238105D01*
X0311110Y0239148D02*
X0312408Y0240446D01*
X0311370Y0241484D02*
X0310072Y0240186D01*
X0310072Y0239667D01*
X0310591Y0239148D01*
X0311110Y0239148D01*
X0309547Y0240711D02*
X0309028Y0240711D01*
X0308509Y0241230D01*
X0308509Y0241749D01*
X0309547Y0242787D01*
X0310066Y0242787D01*
X0310585Y0242268D01*
X0310585Y0241749D01*
X0309282Y0243571D02*
X0307725Y0242014D01*
X0308244Y0244609D01*
X0306687Y0243052D01*
X0306163Y0243577D02*
X0306163Y0244615D01*
X0306422Y0244355D02*
X0305644Y0245134D01*
X0305125Y0244615D02*
X0306682Y0246172D01*
X0307460Y0245393D01*
X0307460Y0244874D01*
X0306941Y0244355D01*
X0306422Y0244355D01*
X0304860Y0245399D02*
X0306157Y0246696D01*
X0305119Y0247734D02*
X0303822Y0246437D01*
X0303822Y0245918D01*
X0304341Y0245399D01*
X0304860Y0245399D01*
X0304594Y0248259D02*
X0303556Y0249297D01*
X0304075Y0248778D02*
X0302519Y0247221D01*
X0297335Y0241518D02*
X0297335Y0240999D01*
X0296816Y0240480D01*
X0296297Y0240480D01*
X0295519Y0241259D01*
X0296037Y0240740D02*
X0296037Y0239702D01*
X0297081Y0239696D02*
X0297081Y0238658D01*
X0298119Y0238658D01*
X0299157Y0239696D01*
X0299422Y0238912D02*
X0298384Y0237874D01*
X0298384Y0237355D01*
X0298903Y0236836D01*
X0299422Y0236836D01*
X0300460Y0237874D01*
X0300460Y0238393D01*
X0299941Y0238912D01*
X0299422Y0238912D01*
X0300985Y0237349D02*
X0301504Y0237349D01*
X0302023Y0236830D01*
X0302023Y0236311D01*
X0301763Y0236052D01*
X0299687Y0236052D01*
X0300725Y0235014D01*
X0301509Y0234749D02*
X0301509Y0234230D01*
X0302028Y0233711D01*
X0302547Y0233711D01*
X0303072Y0233186D02*
X0303072Y0232667D01*
X0303591Y0232148D01*
X0304110Y0232148D01*
X0305407Y0233446D01*
X0305932Y0232921D02*
X0304375Y0231364D01*
X0304894Y0231883D02*
X0305673Y0231105D01*
X0306192Y0231105D01*
X0306711Y0231624D01*
X0306711Y0232143D01*
X0305932Y0232921D01*
X0305413Y0231364D02*
X0305413Y0230326D01*
X0305938Y0229802D02*
X0307495Y0231358D01*
X0308273Y0230580D01*
X0308273Y0230061D01*
X0307754Y0229542D01*
X0307235Y0229542D01*
X0306457Y0230320D01*
X0306976Y0229802D02*
X0306976Y0228764D01*
X0307500Y0228239D02*
X0308538Y0227201D01*
X0309063Y0226676D02*
X0310620Y0228233D01*
X0310101Y0225638D01*
X0311658Y0227195D01*
X0312183Y0226671D02*
X0313221Y0225633D01*
X0312702Y0226152D02*
X0311145Y0224595D01*
X0310095Y0228758D02*
X0309057Y0229796D01*
X0307500Y0228239D01*
X0308279Y0229017D02*
X0308798Y0228498D01*
X0303072Y0233186D02*
X0304370Y0234484D01*
X0303585Y0234749D02*
X0303585Y0235268D01*
X0303066Y0235787D01*
X0302547Y0235787D01*
X0301509Y0234749D01*
X0297081Y0239696D02*
X0298119Y0240734D01*
X0297335Y0241518D02*
X0296556Y0242297D01*
X0295000Y0240740D01*
X0294475Y0241265D02*
X0293437Y0242302D01*
X0294994Y0243859D01*
X0296032Y0242821D01*
X0294734Y0242562D02*
X0294215Y0243081D01*
X0293431Y0243346D02*
X0293172Y0243087D01*
X0292653Y0243087D01*
X0292134Y0243606D01*
X0292134Y0244125D01*
X0292912Y0244384D02*
X0293431Y0243865D01*
X0293431Y0243346D01*
X0294210Y0244125D02*
X0294210Y0244644D01*
X0293691Y0245163D01*
X0293172Y0245163D01*
X0292912Y0244903D01*
X0292912Y0244384D01*
X0299495Y0223358D02*
X0298976Y0220763D01*
X0300533Y0222320D01*
X0301057Y0221796D02*
X0301836Y0221017D01*
X0301836Y0220498D01*
X0301317Y0219979D01*
X0300798Y0219979D01*
X0300020Y0220758D01*
X0300539Y0220239D02*
X0300539Y0219201D01*
X0301323Y0218936D02*
X0301323Y0218417D01*
X0301842Y0217898D01*
X0302361Y0217898D01*
X0302620Y0218157D01*
X0302620Y0218676D01*
X0302101Y0219195D01*
X0302101Y0219714D01*
X0302361Y0219974D01*
X0302880Y0219974D01*
X0303399Y0219455D01*
X0303399Y0218936D01*
X0304183Y0218671D02*
X0305221Y0217633D01*
X0304702Y0218152D02*
X0303145Y0216595D01*
X0299501Y0220239D02*
X0301057Y0221796D01*
X0299495Y0223358D02*
X0297938Y0221801D01*
X0285495Y0209358D02*
X0286273Y0208580D01*
X0286273Y0208061D01*
X0285754Y0207542D01*
X0285235Y0207542D01*
X0284457Y0208320D01*
X0283938Y0207801D02*
X0285495Y0209358D01*
X0284711Y0209624D02*
X0283673Y0208586D01*
X0283154Y0208586D01*
X0282375Y0209364D01*
X0283932Y0210921D01*
X0284711Y0210143D01*
X0284711Y0209624D01*
X0283408Y0211446D02*
X0282370Y0212484D01*
X0280813Y0210927D01*
X0281851Y0209889D01*
X0282110Y0211186D02*
X0281591Y0211705D01*
X0280288Y0211451D02*
X0279250Y0212489D01*
X0280807Y0214046D01*
X0287057Y0207796D02*
X0285501Y0206239D01*
X0286538Y0206239D01*
X0286538Y0205201D01*
X0288095Y0206758D01*
X0288620Y0206233D02*
X0288620Y0205195D01*
X0289658Y0205195D01*
X0288101Y0203638D01*
X0289404Y0203892D02*
X0290442Y0202854D01*
X0289404Y0202335D02*
X0290961Y0203892D01*
X0289404Y0203892D01*
X0287063Y0204676D02*
X0288620Y0206233D01*
X0281620Y0199233D02*
X0281620Y0198195D01*
X0282658Y0198195D01*
X0281101Y0196638D01*
X0281626Y0196114D02*
X0282664Y0195076D01*
X0282145Y0195595D02*
X0283702Y0197152D01*
X0282664Y0197152D01*
X0281620Y0199233D02*
X0280063Y0197676D01*
X0279538Y0198201D02*
X0281095Y0199758D01*
X0280057Y0200796D02*
X0278500Y0199239D01*
X0279538Y0199239D01*
X0279538Y0198201D01*
X0278754Y0200542D02*
X0279273Y0201061D01*
X0279273Y0201580D01*
X0278495Y0202358D01*
X0276938Y0200802D01*
X0277457Y0201320D02*
X0278235Y0200542D01*
X0278754Y0200542D01*
X0276413Y0201326D02*
X0277970Y0202883D01*
X0276932Y0203921D02*
X0275375Y0202364D01*
X0276413Y0202364D01*
X0276413Y0201326D01*
X0274851Y0202889D02*
X0275889Y0203927D01*
X0275889Y0204965D01*
X0274851Y0204965D01*
X0273813Y0203927D01*
X0273288Y0204451D02*
X0272250Y0205489D01*
X0273807Y0207046D01*
X0273023Y0207311D02*
X0273023Y0207830D01*
X0272504Y0208349D01*
X0271985Y0208349D01*
X0270947Y0207311D01*
X0270947Y0206792D01*
X0271466Y0206274D01*
X0271985Y0206274D01*
X0274591Y0204705D02*
X0275629Y0203667D01*
X0263970Y0188883D02*
X0262932Y0187845D01*
X0261894Y0187845D01*
X0261894Y0188883D01*
X0262932Y0189921D01*
X0264235Y0188099D02*
X0263976Y0187839D01*
X0263976Y0187320D01*
X0264495Y0186801D01*
X0264495Y0186282D01*
X0264235Y0186023D01*
X0263716Y0186023D01*
X0263197Y0186542D01*
X0263197Y0187061D01*
X0264235Y0188099D02*
X0264754Y0188099D01*
X0265273Y0187580D01*
X0265273Y0187061D01*
X0266057Y0186796D02*
X0264501Y0185239D01*
X0265539Y0184201D01*
X0266063Y0183676D02*
X0267620Y0185233D01*
X0267101Y0182638D01*
X0268658Y0184195D01*
X0268664Y0183152D02*
X0269702Y0183152D01*
X0268145Y0181595D01*
X0267626Y0182114D02*
X0268664Y0181076D01*
X0267095Y0185758D02*
X0266057Y0186796D01*
X0265279Y0186017D02*
X0265798Y0185498D01*
X0260095Y0178758D02*
X0259057Y0179796D01*
X0257501Y0178239D01*
X0258539Y0177201D01*
X0259063Y0176676D02*
X0260620Y0178233D01*
X0260101Y0175638D01*
X0261658Y0177195D01*
X0261923Y0176411D02*
X0262442Y0176411D01*
X0262961Y0175892D01*
X0262961Y0175373D01*
X0262702Y0175114D01*
X0262183Y0175114D01*
X0262183Y0174595D01*
X0261923Y0174335D01*
X0261404Y0174335D01*
X0260885Y0174854D01*
X0260885Y0175373D01*
X0261923Y0175373D02*
X0262183Y0175114D01*
X0258798Y0178498D02*
X0258279Y0179017D01*
X0257495Y0179282D02*
X0257235Y0179023D01*
X0256716Y0179023D01*
X0256197Y0179542D01*
X0256197Y0180061D01*
X0256976Y0180320D02*
X0257495Y0179801D01*
X0257495Y0179282D01*
X0258273Y0180061D02*
X0258273Y0180580D01*
X0257754Y0181099D01*
X0257235Y0181099D01*
X0256976Y0180839D01*
X0256976Y0180320D01*
X0255932Y0180845D02*
X0256970Y0181883D01*
X0255932Y0180845D02*
X0254894Y0180845D01*
X0254894Y0181883D01*
X0255932Y0182921D01*
X0248932Y0175921D02*
X0247894Y0174883D01*
X0247894Y0173845D01*
X0248932Y0173845D01*
X0249970Y0174883D01*
X0250235Y0174099D02*
X0249976Y0173839D01*
X0249976Y0173320D01*
X0250495Y0172801D01*
X0250495Y0172282D01*
X0250235Y0172023D01*
X0249716Y0172023D01*
X0249197Y0172542D01*
X0249197Y0173061D01*
X0250235Y0174099D02*
X0250754Y0174099D01*
X0251273Y0173580D01*
X0251273Y0173061D01*
X0252057Y0172796D02*
X0250501Y0171239D01*
X0251539Y0170201D01*
X0252063Y0169676D02*
X0253101Y0168638D01*
X0253626Y0168114D02*
X0255702Y0168114D01*
X0255961Y0168373D01*
X0255961Y0168892D01*
X0255442Y0169411D01*
X0254923Y0169411D01*
X0253626Y0168114D02*
X0254664Y0167076D01*
X0252063Y0169676D02*
X0253620Y0171233D01*
X0253095Y0171758D02*
X0252057Y0172796D01*
X0251279Y0172017D02*
X0251798Y0171498D01*
X0245578Y0165275D02*
X0246097Y0164756D01*
X0245838Y0165015D02*
X0244281Y0163458D01*
X0244540Y0163199D02*
X0244021Y0163718D01*
X0243756Y0164502D02*
X0244794Y0165540D01*
X0244794Y0166059D01*
X0244016Y0166838D01*
X0242459Y0165281D01*
X0243237Y0164502D01*
X0243756Y0164502D01*
X0245063Y0162676D02*
X0246620Y0164233D01*
X0247399Y0163455D01*
X0247399Y0162936D01*
X0246880Y0162417D01*
X0246361Y0162417D01*
X0245582Y0163195D01*
X0246101Y0162676D02*
X0246101Y0161638D01*
X0246626Y0161114D02*
X0247664Y0160076D01*
X0247145Y0160595D02*
X0248702Y0162152D01*
X0247664Y0162152D01*
X0243232Y0167103D02*
X0242713Y0166584D01*
X0242194Y0166584D01*
X0241415Y0167362D01*
X0240896Y0166843D02*
X0242453Y0168400D01*
X0243232Y0167622D01*
X0243232Y0167103D01*
X0241928Y0168925D02*
X0240890Y0169963D01*
X0239334Y0168406D01*
X0240371Y0167368D01*
X0240631Y0168665D02*
X0240112Y0169184D01*
X0240366Y0170487D02*
X0239328Y0171525D01*
X0239847Y0171006D02*
X0238290Y0169449D01*
X0237506Y0170753D02*
X0236987Y0170753D01*
X0236468Y0171272D01*
X0236468Y0171791D01*
X0237246Y0172050D02*
X0237765Y0171531D01*
X0237765Y0171012D01*
X0237506Y0170753D01*
X0237246Y0172050D02*
X0237246Y0172569D01*
X0237506Y0172829D01*
X0238025Y0172829D01*
X0238544Y0172310D01*
X0238544Y0171791D01*
X0233629Y0163224D02*
X0233110Y0163224D01*
X0232851Y0162965D01*
X0232851Y0162446D01*
X0233370Y0161927D01*
X0233370Y0161408D01*
X0233110Y0161148D01*
X0232591Y0161148D01*
X0232072Y0161667D01*
X0232072Y0162186D01*
X0233629Y0163224D02*
X0234148Y0162705D01*
X0234148Y0162186D01*
X0234932Y0161921D02*
X0235970Y0160883D01*
X0235451Y0161402D02*
X0233894Y0159845D01*
X0234938Y0158801D02*
X0235976Y0157763D01*
X0236501Y0157239D02*
X0238057Y0158796D01*
X0238836Y0158017D01*
X0238836Y0157498D01*
X0238317Y0156979D01*
X0237798Y0156979D01*
X0237020Y0157758D01*
X0236235Y0159061D02*
X0235716Y0159580D01*
X0236495Y0160358D02*
X0234938Y0158801D01*
X0236495Y0160358D02*
X0237533Y0159320D01*
X0239620Y0157233D02*
X0238063Y0155676D01*
X0239101Y0154638D01*
X0239626Y0154114D02*
X0241183Y0155671D01*
X0240664Y0153076D01*
X0242221Y0154633D01*
X0240658Y0156195D02*
X0239620Y0157233D01*
X0238842Y0156455D02*
X0239361Y0155936D01*
X0233658Y0149195D02*
X0232101Y0147638D01*
X0232101Y0148676D01*
X0231063Y0148676D01*
X0232620Y0150233D01*
X0231836Y0150498D02*
X0231317Y0149979D01*
X0230798Y0149979D01*
X0230019Y0150758D01*
X0229500Y0150239D02*
X0231057Y0151796D01*
X0231836Y0151017D01*
X0231836Y0150498D01*
X0230273Y0152061D02*
X0230273Y0152580D01*
X0229754Y0153099D01*
X0229235Y0153099D01*
X0228711Y0153624D02*
X0228711Y0154143D01*
X0228192Y0154662D01*
X0227673Y0154662D01*
X0226635Y0153624D01*
X0226635Y0153105D01*
X0227154Y0152586D01*
X0227673Y0152586D01*
X0228711Y0153624D01*
X0227938Y0151801D02*
X0230014Y0151801D01*
X0230273Y0152061D01*
X0228976Y0150764D02*
X0227938Y0151801D01*
X0226370Y0154408D02*
X0227408Y0155446D01*
X0226370Y0156484D02*
X0225332Y0155446D01*
X0225332Y0154408D01*
X0226370Y0154408D01*
X0225066Y0156230D02*
X0224547Y0156230D01*
X0223769Y0157008D01*
X0223250Y0156489D02*
X0224807Y0158046D01*
X0225585Y0157268D01*
X0225585Y0156749D01*
X0225066Y0156230D01*
X0224288Y0156489D02*
X0224288Y0155451D01*
X0222725Y0157014D02*
X0221687Y0158052D01*
X0223244Y0159609D01*
X0224282Y0158571D01*
X0222985Y0158311D02*
X0222466Y0158830D01*
X0221682Y0159096D02*
X0221422Y0158836D01*
X0220903Y0158836D01*
X0220384Y0159355D01*
X0220384Y0159874D01*
X0221163Y0160134D02*
X0221682Y0159615D01*
X0221682Y0159096D01*
X0222460Y0159874D02*
X0222460Y0160393D01*
X0221941Y0160912D01*
X0221422Y0160912D01*
X0221163Y0160653D01*
X0221163Y0160134D01*
X0232626Y0147114D02*
X0234183Y0148671D01*
X0234183Y0147633D01*
X0235221Y0147633D01*
X0233664Y0146076D01*
X0245183Y0120545D02*
X0244923Y0120286D01*
X0244923Y0119767D01*
X0245442Y0119248D01*
X0245442Y0118729D01*
X0245183Y0118470D01*
X0244664Y0118470D01*
X0244145Y0118989D01*
X0244145Y0119508D01*
X0245183Y0120545D02*
X0245702Y0120545D01*
X0246221Y0120027D01*
X0246221Y0119508D01*
X0247005Y0119242D02*
X0245448Y0117685D01*
X0246486Y0116647D01*
X0247011Y0116123D02*
X0248568Y0117680D01*
X0249346Y0116901D01*
X0249346Y0116382D01*
X0248827Y0115863D01*
X0248308Y0115863D01*
X0247530Y0116642D01*
X0248049Y0116123D02*
X0248049Y0115085D01*
X0249092Y0115079D02*
X0250130Y0116117D01*
X0249092Y0115079D02*
X0249092Y0114041D01*
X0250130Y0114041D01*
X0251168Y0115079D01*
X0251433Y0114295D02*
X0250395Y0113257D01*
X0250395Y0112738D01*
X0250914Y0112219D01*
X0251433Y0112219D01*
X0252471Y0113257D01*
X0252471Y0113776D01*
X0251952Y0114295D01*
X0251433Y0114295D01*
X0252737Y0112473D02*
X0253774Y0112473D01*
X0252218Y0110916D01*
X0251699Y0111435D02*
X0252737Y0110397D01*
X0253261Y0109872D02*
X0254818Y0111429D01*
X0255597Y0110651D01*
X0255597Y0110132D01*
X0255078Y0109613D01*
X0254559Y0109613D01*
X0253780Y0110391D01*
X0254824Y0108310D02*
X0255862Y0108310D01*
X0255862Y0107272D01*
X0257419Y0108829D01*
X0257943Y0108304D02*
X0257943Y0107266D01*
X0258981Y0107266D01*
X0257424Y0105709D01*
X0256386Y0106747D02*
X0257943Y0108304D01*
X0256381Y0109867D02*
X0254824Y0108310D01*
X0248043Y0118204D02*
X0247005Y0119242D01*
X0246227Y0118464D02*
X0246746Y0117945D01*
X0258664Y0132470D02*
X0258145Y0132989D01*
X0258145Y0133508D01*
X0258923Y0133767D02*
X0259442Y0133248D01*
X0259442Y0132729D01*
X0259183Y0132470D01*
X0258664Y0132470D01*
X0258923Y0133767D02*
X0258923Y0134286D01*
X0259183Y0134545D01*
X0259702Y0134545D01*
X0260221Y0134027D01*
X0260221Y0133508D01*
X0261005Y0133242D02*
X0262043Y0132204D01*
X0261524Y0132723D02*
X0259967Y0131166D01*
X0261011Y0130123D02*
X0262049Y0129085D01*
X0262573Y0128560D02*
X0264130Y0130117D01*
X0264909Y0129339D01*
X0264909Y0128820D01*
X0264390Y0128301D01*
X0263871Y0128301D01*
X0263092Y0129079D01*
X0262308Y0130382D02*
X0261789Y0130901D01*
X0261011Y0130123D02*
X0262568Y0131680D01*
X0263606Y0130642D01*
X0265693Y0128554D02*
X0266471Y0127776D01*
X0266471Y0127257D01*
X0265433Y0126219D01*
X0264914Y0126219D01*
X0264136Y0126998D01*
X0265693Y0128554D01*
X0267256Y0126992D02*
X0267774Y0126473D01*
X0267515Y0126732D02*
X0265958Y0125175D01*
X0265699Y0125435D02*
X0266218Y0124916D01*
X0266740Y0124393D02*
X0268297Y0125950D01*
X0269076Y0125172D01*
X0269076Y0124653D01*
X0268557Y0124134D01*
X0268038Y0124134D01*
X0267259Y0124912D01*
X0267778Y0124393D02*
X0267778Y0123355D01*
X0268303Y0122831D02*
X0270379Y0122831D01*
X0270638Y0123090D01*
X0270638Y0123609D01*
X0270119Y0124128D01*
X0269600Y0124128D01*
X0268303Y0122831D02*
X0269341Y0121793D01*
X0273174Y0133960D02*
X0272136Y0134998D01*
X0272655Y0134479D02*
X0274212Y0136036D01*
X0273174Y0136036D01*
X0271611Y0135522D02*
X0270573Y0136560D01*
X0272130Y0138117D01*
X0271606Y0138642D02*
X0270568Y0139680D01*
X0269011Y0138123D01*
X0270049Y0137085D01*
X0270308Y0138382D02*
X0269789Y0138901D01*
X0269005Y0139166D02*
X0268746Y0138907D01*
X0268227Y0138907D01*
X0267708Y0139426D01*
X0267708Y0139945D01*
X0268486Y0140204D02*
X0269005Y0139685D01*
X0269005Y0139166D01*
X0269784Y0139945D02*
X0269784Y0140464D01*
X0269265Y0140983D01*
X0268746Y0140983D01*
X0268486Y0140723D01*
X0268486Y0140204D01*
X0267442Y0140729D02*
X0268480Y0141767D01*
X0267442Y0140729D02*
X0266404Y0140729D01*
X0266404Y0141767D01*
X0267442Y0142805D01*
X0279404Y0153729D02*
X0280442Y0153729D01*
X0281480Y0154767D01*
X0281746Y0153983D02*
X0281486Y0153723D01*
X0281486Y0153204D01*
X0282005Y0152685D01*
X0282005Y0152166D01*
X0281746Y0151907D01*
X0281227Y0151907D01*
X0280708Y0152426D01*
X0280708Y0152945D01*
X0281746Y0153983D02*
X0282265Y0153983D01*
X0282784Y0153464D01*
X0282784Y0152945D01*
X0283568Y0152680D02*
X0282011Y0151123D01*
X0283049Y0150085D01*
X0283573Y0149560D02*
X0285130Y0151117D01*
X0284611Y0148522D01*
X0286168Y0150079D01*
X0286433Y0149295D02*
X0286952Y0149295D01*
X0287471Y0148776D01*
X0287471Y0148257D01*
X0287212Y0147998D01*
X0285136Y0147998D01*
X0286174Y0146960D01*
X0283308Y0151382D02*
X0282789Y0151901D01*
X0283568Y0152680D02*
X0284606Y0151642D01*
X0279404Y0153729D02*
X0279404Y0154767D01*
X0280442Y0155805D01*
X0295145Y0169989D02*
X0295664Y0169470D01*
X0296183Y0169470D01*
X0296448Y0168685D02*
X0298005Y0170242D01*
X0297221Y0170508D02*
X0297221Y0171027D01*
X0296702Y0171545D01*
X0296183Y0171545D01*
X0295145Y0170508D01*
X0295145Y0169989D01*
X0296448Y0168685D02*
X0297486Y0167647D01*
X0298011Y0167123D02*
X0299049Y0168161D01*
X0300087Y0168161D01*
X0300087Y0167123D01*
X0299049Y0166085D01*
X0299573Y0165560D02*
X0300611Y0165560D01*
X0300611Y0164522D01*
X0302168Y0166079D01*
X0302693Y0165554D02*
X0303471Y0164776D01*
X0303471Y0164257D01*
X0302952Y0163738D01*
X0302433Y0163738D01*
X0301655Y0164517D01*
X0301136Y0163998D02*
X0302693Y0165554D01*
X0304256Y0163992D02*
X0302699Y0162435D01*
X0303737Y0162435D01*
X0303737Y0161397D01*
X0305293Y0162954D01*
X0305818Y0162429D02*
X0304261Y0160872D01*
X0305299Y0159834D02*
X0306856Y0161391D01*
X0305818Y0161391D01*
X0305818Y0162429D01*
X0307121Y0160607D02*
X0307640Y0160607D01*
X0308159Y0160088D01*
X0308159Y0159569D01*
X0307900Y0159310D01*
X0305824Y0159310D01*
X0306862Y0158272D01*
X0311040Y0165094D02*
X0310521Y0165613D01*
X0310521Y0166132D01*
X0311040Y0166651D02*
X0311818Y0166391D01*
X0312078Y0166132D01*
X0312078Y0165613D01*
X0311559Y0165094D01*
X0311040Y0165094D01*
X0311040Y0166651D02*
X0311818Y0167429D01*
X0312856Y0166391D01*
X0311293Y0167954D02*
X0309737Y0166397D01*
X0308699Y0167435D02*
X0310256Y0168992D01*
X0310256Y0167954D01*
X0311293Y0167954D01*
X0309731Y0169517D02*
X0308174Y0167960D01*
X0308174Y0168998D01*
X0307136Y0168998D01*
X0308693Y0170554D01*
X0307909Y0170820D02*
X0307390Y0170301D01*
X0306871Y0170301D01*
X0306092Y0171079D01*
X0305573Y0170560D02*
X0307130Y0172117D01*
X0307909Y0171339D01*
X0307909Y0170820D01*
X0306346Y0172382D02*
X0306346Y0172901D01*
X0305568Y0173680D01*
X0304011Y0172123D01*
X0304789Y0171344D01*
X0305308Y0171344D01*
X0306346Y0172382D01*
X0305043Y0174204D02*
X0304005Y0175242D01*
X0302448Y0173685D01*
X0303486Y0172647D01*
X0303746Y0173945D02*
X0303227Y0174464D01*
X0301923Y0174210D02*
X0300886Y0175248D01*
X0302442Y0176805D01*
X0306886Y0181248D02*
X0308442Y0182805D01*
X0309480Y0181767D01*
X0310005Y0181242D02*
X0308708Y0179945D01*
X0308708Y0179426D01*
X0309227Y0178907D01*
X0309746Y0178907D01*
X0311043Y0180204D01*
X0311308Y0179420D02*
X0311049Y0179161D01*
X0311049Y0178642D01*
X0311568Y0178123D01*
X0311568Y0177604D01*
X0311308Y0177344D01*
X0310789Y0177344D01*
X0310270Y0177863D01*
X0310270Y0178382D01*
X0311308Y0179420D02*
X0311827Y0179420D01*
X0312346Y0178901D01*
X0312346Y0178382D01*
X0313130Y0178117D02*
X0311573Y0176560D01*
X0312611Y0175522D01*
X0313136Y0174998D02*
X0313914Y0174219D01*
X0314433Y0174219D01*
X0315471Y0175257D01*
X0315471Y0175776D01*
X0314693Y0176554D01*
X0313136Y0174998D01*
X0312871Y0176820D02*
X0312352Y0177339D01*
X0313130Y0178117D02*
X0314168Y0177079D01*
X0316256Y0174992D02*
X0314699Y0173435D01*
X0315737Y0172397D01*
X0315996Y0173694D02*
X0315477Y0174213D01*
X0316256Y0174992D02*
X0317293Y0173954D01*
X0317818Y0173429D02*
X0318856Y0172391D01*
X0318337Y0172910D02*
X0316780Y0171353D01*
X0317824Y0170310D02*
X0318862Y0169272D01*
X0319646Y0169007D02*
X0319646Y0168488D01*
X0320165Y0167969D01*
X0320684Y0167969D01*
X0321722Y0169007D02*
X0321722Y0169526D01*
X0321203Y0170045D01*
X0320684Y0170045D01*
X0319646Y0169007D01*
X0319121Y0170569D02*
X0318602Y0171088D01*
X0317824Y0170310D02*
X0319381Y0171867D01*
X0320419Y0170829D01*
X0321653Y0173252D02*
X0320615Y0174290D01*
X0321134Y0173771D02*
X0322691Y0175328D01*
X0321653Y0175328D01*
X0321388Y0176112D02*
X0321388Y0176631D01*
X0320869Y0177150D01*
X0320350Y0177150D01*
X0319312Y0176112D01*
X0319312Y0175593D01*
X0319831Y0175074D01*
X0320350Y0175074D01*
X0322956Y0173506D02*
X0323994Y0172468D01*
X0322956Y0171949D02*
X0324513Y0173506D01*
X0322956Y0173506D01*
X0322506Y0168741D02*
X0323544Y0167703D01*
X0323025Y0168222D02*
X0321468Y0166665D01*
X0322512Y0165622D02*
X0324069Y0167179D01*
X0324069Y0166141D01*
X0325107Y0166141D01*
X0323550Y0164584D01*
X0334304Y0174976D02*
X0335861Y0176533D01*
X0334823Y0176533D01*
X0334557Y0177317D02*
X0333519Y0176279D01*
X0333000Y0176279D01*
X0332482Y0176798D01*
X0332482Y0177317D01*
X0333519Y0178355D01*
X0334038Y0178355D01*
X0334557Y0177836D01*
X0334557Y0177317D01*
X0333260Y0177058D02*
X0333260Y0176020D01*
X0333785Y0175495D02*
X0334823Y0174457D01*
X0342512Y0185622D02*
X0344069Y0187179D01*
X0344847Y0186400D01*
X0344847Y0185881D01*
X0344328Y0185362D01*
X0343809Y0185362D01*
X0343031Y0186141D01*
X0343544Y0187703D02*
X0342506Y0188741D01*
X0343025Y0188222D02*
X0341468Y0186665D01*
X0340684Y0187969D02*
X0340165Y0187969D01*
X0339646Y0188488D01*
X0339646Y0189007D01*
X0340684Y0190045D01*
X0341203Y0190045D01*
X0341722Y0189526D01*
X0341722Y0189007D01*
X0340419Y0190829D02*
X0339381Y0191867D01*
X0337824Y0190310D01*
X0338862Y0189272D01*
X0339121Y0190569D02*
X0338602Y0191088D01*
X0338856Y0192391D02*
X0337818Y0193429D01*
X0338337Y0192910D02*
X0336780Y0191353D01*
X0335737Y0192397D02*
X0334699Y0193435D01*
X0336256Y0194992D01*
X0337293Y0193954D01*
X0335996Y0193694D02*
X0335477Y0194213D01*
X0334433Y0194219D02*
X0335471Y0195257D01*
X0335471Y0195776D01*
X0334693Y0196554D01*
X0333136Y0194998D01*
X0333914Y0194219D01*
X0334433Y0194219D01*
X0332611Y0195522D02*
X0331573Y0196560D01*
X0333130Y0198117D01*
X0334168Y0197079D01*
X0332871Y0196820D02*
X0332352Y0197339D01*
X0331568Y0197604D02*
X0331308Y0197344D01*
X0330789Y0197344D01*
X0330270Y0197863D01*
X0330270Y0198382D01*
X0329746Y0198907D02*
X0331043Y0200204D01*
X0331308Y0199420D02*
X0331049Y0199161D01*
X0331049Y0198642D01*
X0331568Y0198123D01*
X0331568Y0197604D01*
X0332346Y0198382D02*
X0332346Y0198901D01*
X0331827Y0199420D01*
X0331308Y0199420D01*
X0329746Y0198907D02*
X0329227Y0198907D01*
X0328708Y0199426D01*
X0328708Y0199945D01*
X0330005Y0201242D01*
X0329480Y0201767D02*
X0328442Y0202805D01*
X0326886Y0201248D01*
X0327664Y0202027D02*
X0328183Y0201508D01*
X0331145Y0203989D02*
X0331145Y0204508D01*
X0331145Y0203989D02*
X0331664Y0203470D01*
X0332183Y0203470D01*
X0332442Y0203729D01*
X0332442Y0204248D01*
X0331923Y0204767D01*
X0331923Y0205286D01*
X0332183Y0205545D01*
X0332702Y0205545D01*
X0333221Y0205027D01*
X0333221Y0204508D01*
X0334005Y0204242D02*
X0332448Y0202685D01*
X0333486Y0201647D01*
X0334011Y0201123D02*
X0335568Y0202680D01*
X0336346Y0201901D01*
X0336346Y0201382D01*
X0335827Y0200863D01*
X0335308Y0200863D01*
X0334530Y0201642D01*
X0335049Y0201123D02*
X0335049Y0200085D01*
X0336092Y0200079D02*
X0336092Y0199041D01*
X0337130Y0199041D01*
X0338168Y0200079D01*
X0338433Y0199295D02*
X0337395Y0198257D01*
X0337395Y0197738D01*
X0337914Y0197219D01*
X0338433Y0197219D01*
X0339471Y0198257D01*
X0339471Y0198776D01*
X0338952Y0199295D01*
X0338433Y0199295D01*
X0337130Y0201117D02*
X0336092Y0200079D01*
X0335043Y0203204D02*
X0334005Y0204242D01*
X0333227Y0203464D02*
X0333746Y0202945D01*
X0339737Y0197473D02*
X0340774Y0197473D01*
X0339218Y0195916D01*
X0338699Y0196435D02*
X0339737Y0195397D01*
X0340521Y0195132D02*
X0341559Y0196170D01*
X0342078Y0196170D01*
X0342597Y0195651D01*
X0342597Y0195132D01*
X0343381Y0194867D02*
X0342083Y0193569D01*
X0342083Y0193050D01*
X0342602Y0192531D01*
X0343121Y0192531D01*
X0344419Y0193829D01*
X0344943Y0193304D02*
X0345722Y0192526D01*
X0345722Y0192007D01*
X0345203Y0191488D01*
X0344684Y0191488D01*
X0343905Y0192266D01*
X0343386Y0191747D02*
X0344943Y0193304D01*
X0344424Y0191747D02*
X0344424Y0190709D01*
X0344949Y0190184D02*
X0346506Y0191741D01*
X0347284Y0190963D01*
X0347284Y0190444D01*
X0346765Y0189925D01*
X0346246Y0189925D01*
X0345468Y0190703D01*
X0345987Y0190184D02*
X0345987Y0189146D01*
X0346512Y0188622D02*
X0347550Y0187584D01*
X0348074Y0187059D02*
X0349631Y0188616D01*
X0349112Y0186021D01*
X0350669Y0187578D01*
X0351194Y0187054D02*
X0352232Y0186016D01*
X0351713Y0186535D02*
X0350156Y0184978D01*
X0349107Y0189141D02*
X0348069Y0190179D01*
X0346512Y0188622D01*
X0347290Y0189400D02*
X0347809Y0188881D01*
X0341559Y0194094D02*
X0341040Y0194094D01*
X0340521Y0194613D01*
X0340521Y0195132D01*
X0349352Y0211782D02*
X0348833Y0212301D01*
X0348833Y0212820D01*
X0348568Y0213604D02*
X0349606Y0214642D01*
X0349871Y0213858D02*
X0350390Y0213858D01*
X0350909Y0213339D01*
X0350909Y0212820D01*
X0350649Y0212560D01*
X0350130Y0212560D01*
X0350130Y0212041D01*
X0349871Y0211782D01*
X0349352Y0211782D01*
X0350130Y0212560D02*
X0349871Y0212820D01*
X0348568Y0213604D02*
X0347530Y0213604D01*
X0347530Y0214642D01*
X0348568Y0215680D01*
X0347784Y0215945D02*
X0347524Y0215685D01*
X0347005Y0215685D01*
X0347005Y0215166D01*
X0346746Y0214907D01*
X0346227Y0214907D01*
X0345708Y0215426D01*
X0345708Y0215945D01*
X0346746Y0215945D02*
X0347005Y0215685D01*
X0347784Y0215945D02*
X0347784Y0216464D01*
X0347265Y0216983D01*
X0346746Y0216983D01*
X0345702Y0216989D02*
X0344664Y0218027D01*
X0345702Y0218027D02*
X0344664Y0216989D01*
X0359923Y0232210D02*
X0358886Y0233248D01*
X0360442Y0234805D01*
X0362005Y0233242D02*
X0360448Y0231685D01*
X0361486Y0230647D01*
X0362011Y0230123D02*
X0362789Y0229344D01*
X0363308Y0229344D01*
X0364346Y0230382D01*
X0364346Y0230901D01*
X0363568Y0231680D01*
X0362011Y0230123D01*
X0361746Y0231945D02*
X0361227Y0232464D01*
X0362005Y0233242D02*
X0363043Y0232204D01*
X0365130Y0230117D02*
X0365909Y0229339D01*
X0365909Y0228820D01*
X0365390Y0228301D01*
X0364871Y0228301D01*
X0364092Y0229079D01*
X0363573Y0228560D02*
X0365130Y0230117D01*
X0366693Y0228554D02*
X0365136Y0226998D01*
X0366174Y0226998D01*
X0366174Y0225960D01*
X0367731Y0227517D01*
X0368256Y0226992D02*
X0366699Y0225435D01*
X0367737Y0224397D02*
X0369293Y0225954D01*
X0368256Y0225954D01*
X0368256Y0226992D01*
X0369559Y0225170D02*
X0370078Y0225170D01*
X0370597Y0224651D01*
X0370597Y0224132D01*
X0370337Y0223872D01*
X0368261Y0223872D01*
X0369299Y0222834D01*
X0308183Y0181508D02*
X0307664Y0182027D01*
X0301130Y0167117D02*
X0299573Y0165560D01*
X0299827Y0166863D02*
X0298789Y0167901D01*
X0217407Y0259748D02*
X0217926Y0260267D01*
X0217926Y0260786D01*
X0216888Y0261824D01*
X0216369Y0261824D01*
X0215850Y0261305D01*
X0215850Y0260786D01*
X0216888Y0259748D01*
X0217407Y0259748D01*
X0216622Y0258964D02*
X0215584Y0258964D01*
X0215844Y0259224D02*
X0215065Y0258445D01*
X0215584Y0257926D02*
X0214027Y0259483D01*
X0214806Y0260262D01*
X0215325Y0260262D01*
X0215844Y0259743D01*
X0215844Y0259224D01*
X0214800Y0257661D02*
X0214800Y0257142D01*
X0214281Y0256623D01*
X0213762Y0256623D01*
X0212724Y0257661D01*
X0212724Y0258180D01*
X0213243Y0258699D01*
X0213762Y0258699D01*
X0211942Y0257398D02*
X0211423Y0256879D01*
X0211683Y0257138D02*
X0213240Y0255581D01*
X0212980Y0255322D02*
X0213499Y0255841D01*
X0212455Y0254797D02*
X0210898Y0256354D01*
X0210898Y0255316D01*
X0209861Y0255316D01*
X0211417Y0253759D01*
X0218710Y0261051D02*
X0219748Y0262089D01*
X0219229Y0261570D02*
X0217672Y0263127D01*
X0217672Y0262089D01*
X0179726Y0195485D02*
X0180245Y0192890D01*
X0179720Y0192366D02*
X0178682Y0192366D01*
X0178942Y0192625D02*
X0178163Y0191847D01*
X0178682Y0191328D02*
X0177125Y0192885D01*
X0177904Y0193663D01*
X0178423Y0193663D01*
X0178942Y0193144D01*
X0178942Y0192625D01*
X0178688Y0194447D02*
X0181283Y0193928D01*
X0178417Y0190544D02*
X0177379Y0189506D01*
X0176595Y0189240D02*
X0175557Y0189240D01*
X0175817Y0189500D02*
X0175038Y0188721D01*
X0175557Y0188202D02*
X0174000Y0189759D01*
X0174779Y0190538D01*
X0175298Y0190538D01*
X0175817Y0190019D01*
X0175817Y0189500D01*
X0175033Y0187678D02*
X0173995Y0186640D01*
X0172438Y0188197D01*
X0173476Y0189235D01*
X0173735Y0187937D02*
X0173216Y0187418D01*
X0172691Y0186894D02*
X0171653Y0185856D01*
X0170875Y0186634D02*
X0172432Y0185077D01*
X0173470Y0186115D02*
X0171913Y0187672D01*
X0170350Y0186110D02*
X0169312Y0185072D01*
X0169831Y0185591D02*
X0171388Y0184034D01*
X0170345Y0182990D02*
X0169307Y0181952D01*
X0167750Y0183509D01*
X0168788Y0184547D01*
X0169047Y0183250D02*
X0168528Y0182731D01*
X0167225Y0182984D02*
X0166187Y0181946D01*
X0166706Y0182465D02*
X0168263Y0180908D01*
X0194706Y0154465D02*
X0194187Y0153946D01*
X0194447Y0154206D02*
X0196004Y0152649D01*
X0196263Y0152908D02*
X0195744Y0152389D01*
X0196786Y0153431D02*
X0195229Y0154988D01*
X0196267Y0154988D01*
X0196267Y0156026D01*
X0197824Y0154469D01*
X0198089Y0155253D02*
X0198608Y0155253D01*
X0199127Y0155772D01*
X0199127Y0156291D01*
X0197829Y0157589D01*
X0196791Y0156551D02*
X0198089Y0155253D01*
X0200171Y0156297D02*
X0201209Y0157335D01*
X0201214Y0158379D02*
X0201733Y0158379D01*
X0202252Y0158897D01*
X0202252Y0159416D01*
X0201993Y0159676D01*
X0201474Y0159676D01*
X0200955Y0159157D01*
X0200436Y0159157D01*
X0200176Y0159416D01*
X0200176Y0159935D01*
X0200695Y0160454D01*
X0201214Y0160454D01*
X0201479Y0161239D02*
X0202258Y0162017D01*
X0202777Y0162017D01*
X0203815Y0160979D01*
X0203815Y0160460D01*
X0203036Y0159682D01*
X0201479Y0161239D01*
X0203561Y0162282D02*
X0203561Y0163320D01*
X0204599Y0163320D01*
X0205637Y0162282D01*
X0204858Y0163061D02*
X0203820Y0162023D01*
X0203561Y0162282D02*
X0204599Y0161244D01*
X0169916Y0141168D02*
X0168878Y0140130D01*
X0167321Y0141687D01*
X0167056Y0140902D02*
X0166537Y0140902D01*
X0166018Y0140384D01*
X0166018Y0139865D01*
X0167056Y0138827D01*
X0167575Y0138827D01*
X0168094Y0139346D01*
X0168094Y0139865D01*
X0166532Y0138302D02*
X0166532Y0137783D01*
X0166013Y0137264D01*
X0165494Y0137264D01*
X0165234Y0138042D02*
X0165753Y0138561D01*
X0166272Y0138561D01*
X0166532Y0138302D01*
X0165234Y0138042D02*
X0164715Y0138042D01*
X0164456Y0138302D01*
X0164456Y0138821D01*
X0164975Y0139340D01*
X0165494Y0139340D01*
X0165488Y0136220D02*
X0164450Y0135182D01*
X0163406Y0135177D02*
X0162109Y0136474D01*
X0161071Y0135436D02*
X0162368Y0134139D01*
X0162887Y0134139D01*
X0163406Y0134658D01*
X0163406Y0135177D01*
X0162103Y0133355D02*
X0160546Y0134912D01*
X0160546Y0133874D01*
X0159508Y0133874D01*
X0161065Y0132317D01*
X0160543Y0131794D02*
X0160024Y0131275D01*
X0160283Y0131534D02*
X0158726Y0133091D01*
X0158467Y0132832D02*
X0158986Y0133351D01*
X0183542Y0113713D02*
X0185099Y0115270D01*
X0185878Y0114491D01*
X0185878Y0113972D01*
X0185359Y0113453D01*
X0184840Y0113453D01*
X0184061Y0114232D01*
X0184580Y0113713D02*
X0184580Y0112675D01*
X0185105Y0112150D02*
X0186143Y0111112D01*
X0185624Y0111631D02*
X0187181Y0113188D01*
X0186143Y0113188D01*
X0192412Y0108258D02*
X0193450Y0107220D01*
X0192412Y0107220D02*
X0193450Y0108258D01*
X0194494Y0108264D02*
X0195013Y0108264D01*
X0195532Y0108783D01*
X0195532Y0109302D01*
X0195272Y0109561D01*
X0194753Y0109561D01*
X0194494Y0109302D01*
X0194753Y0109561D02*
X0194753Y0110080D01*
X0194494Y0110340D01*
X0193975Y0110340D01*
X0193456Y0109821D01*
X0193456Y0109302D01*
X0194759Y0111124D02*
X0195797Y0110086D01*
X0196835Y0110086D01*
X0196835Y0111124D01*
X0195797Y0112162D01*
X0196581Y0112427D02*
X0196581Y0112946D01*
X0197100Y0113465D01*
X0197619Y0113465D01*
X0197878Y0113206D01*
X0197878Y0112687D01*
X0198397Y0112687D01*
X0198657Y0112427D01*
X0198657Y0111908D01*
X0198138Y0111389D01*
X0197619Y0111389D01*
X0197619Y0112427D02*
X0197878Y0112687D01*
X0126916Y0184168D02*
X0124321Y0184687D01*
X0123797Y0184162D02*
X0122759Y0183124D01*
X0123278Y0183643D02*
X0124835Y0182086D01*
X0125878Y0183130D02*
X0125359Y0185725D01*
X0124051Y0180783D02*
X0123013Y0179745D01*
X0122229Y0179480D02*
X0121191Y0179480D01*
X0121450Y0179739D02*
X0120672Y0178961D01*
X0121191Y0178442D02*
X0119634Y0179999D01*
X0120412Y0180777D01*
X0120931Y0180777D01*
X0121450Y0180258D01*
X0121450Y0179739D01*
X0120666Y0177917D02*
X0119628Y0176879D01*
X0118071Y0178436D01*
X0119109Y0179474D01*
X0119368Y0178177D02*
X0118849Y0177658D01*
X0118325Y0177133D02*
X0117287Y0176095D01*
X0118065Y0175317D02*
X0116508Y0176874D01*
X0115984Y0176349D02*
X0114946Y0175311D01*
X0115465Y0175830D02*
X0117022Y0174273D01*
X0115978Y0173229D02*
X0114940Y0172191D01*
X0113383Y0173748D01*
X0114421Y0174786D01*
X0114681Y0173489D02*
X0114162Y0172970D01*
X0112859Y0173224D02*
X0111821Y0172186D01*
X0112340Y0172705D02*
X0113896Y0171148D01*
X0119103Y0176355D02*
X0117546Y0177911D01*
X0111844Y0183095D02*
X0111325Y0182576D01*
X0110806Y0182576D01*
X0110546Y0183355D02*
X0111065Y0183874D01*
X0111584Y0183874D01*
X0111844Y0183614D01*
X0111844Y0183095D01*
X0112628Y0183879D02*
X0113666Y0184917D01*
X0114191Y0185442D02*
X0112634Y0186999D01*
X0113412Y0187777D01*
X0113931Y0187777D01*
X0114450Y0187258D01*
X0114450Y0186739D01*
X0113672Y0185961D01*
X0114191Y0186480D02*
X0115229Y0186480D01*
X0116013Y0186745D02*
X0117051Y0187783D01*
X0117835Y0189086D02*
X0116278Y0190643D01*
X0115759Y0190124D02*
X0116797Y0191162D01*
X0117321Y0191687D02*
X0119916Y0191168D01*
X0118878Y0190130D02*
X0118359Y0192725D01*
X0112109Y0186474D02*
X0111071Y0185436D01*
X0112628Y0183879D01*
X0111849Y0184658D02*
X0112368Y0185177D01*
X0110806Y0184652D02*
X0110287Y0184652D01*
X0109768Y0184133D01*
X0109768Y0183614D01*
X0110027Y0183355D01*
X0110546Y0183355D01*
X0109762Y0182570D02*
X0108724Y0181532D01*
X0108465Y0181792D02*
X0108465Y0182830D01*
X0109503Y0182830D01*
X0110541Y0181792D01*
X0109503Y0180754D02*
X0108465Y0181792D01*
X0108978Y0180229D02*
X0107940Y0179191D01*
X0106383Y0180748D01*
X0104794Y0160856D02*
X0102592Y0160856D01*
X0103326Y0160122D01*
X0102592Y0159388D01*
X0104794Y0159388D01*
X0104427Y0158646D02*
X0102959Y0158646D01*
X0102592Y0158279D01*
X0102592Y0157545D01*
X0102959Y0157178D01*
X0104427Y0157178D01*
X0104794Y0157545D01*
X0104794Y0158279D01*
X0104427Y0158646D01*
X0104427Y0156436D02*
X0104794Y0156069D01*
X0104794Y0155335D01*
X0104427Y0154968D01*
X0102959Y0154968D01*
X0102592Y0155335D01*
X0102592Y0156069D01*
X0102959Y0156436D01*
X0105161Y0154226D02*
X0105161Y0152758D01*
X0104794Y0152016D02*
X0104060Y0151283D01*
X0104060Y0151649D02*
X0104060Y0150549D01*
X0104794Y0150549D02*
X0102592Y0150549D01*
X0102592Y0151649D01*
X0102959Y0152016D01*
X0103693Y0152016D01*
X0104060Y0151649D01*
X0104427Y0149807D02*
X0102959Y0149807D01*
X0102592Y0149440D01*
X0102592Y0148706D01*
X0102959Y0148339D01*
X0104427Y0148339D01*
X0104794Y0148706D01*
X0104794Y0149440D01*
X0104427Y0149807D01*
X0102592Y0147597D02*
X0102592Y0146129D01*
X0102592Y0146863D02*
X0104794Y0146863D01*
X0104427Y0145387D02*
X0102959Y0145387D01*
X0102592Y0145020D01*
X0102592Y0144286D01*
X0102959Y0143919D01*
X0104427Y0143919D01*
X0104794Y0144286D01*
X0104794Y0145020D01*
X0104427Y0145387D01*
X0104794Y0143177D02*
X0102592Y0143177D01*
X0103326Y0142443D01*
X0102592Y0141709D01*
X0104794Y0141709D01*
X0100994Y0153298D02*
X0080994Y0153298D01*
X0076277Y0171348D02*
X0076644Y0171715D01*
X0076644Y0172449D01*
X0076277Y0172816D01*
X0075910Y0172816D01*
X0075543Y0172449D01*
X0075543Y0171715D01*
X0075176Y0171348D01*
X0074809Y0171348D01*
X0074442Y0171715D01*
X0074442Y0172449D01*
X0074809Y0172816D01*
X0074442Y0173558D02*
X0076644Y0173558D01*
X0075910Y0174292D01*
X0076644Y0175026D01*
X0074442Y0175026D01*
X0074442Y0175768D02*
X0074442Y0176869D01*
X0074809Y0177236D01*
X0076277Y0177236D01*
X0076644Y0176869D01*
X0076644Y0175768D01*
X0074442Y0175768D01*
X0074442Y0180188D02*
X0076644Y0180188D01*
X0075543Y0180188D02*
X0075543Y0181655D01*
X0075543Y0182397D02*
X0075176Y0182764D01*
X0075176Y0183498D01*
X0075543Y0183865D01*
X0075910Y0183865D01*
X0075910Y0182397D01*
X0076277Y0182397D02*
X0075543Y0182397D01*
X0076277Y0182397D02*
X0076644Y0182764D01*
X0076644Y0183498D01*
X0076277Y0184607D02*
X0076644Y0184974D01*
X0076644Y0186075D01*
X0075543Y0186075D01*
X0075176Y0185708D01*
X0075176Y0184974D01*
X0075910Y0184974D02*
X0075910Y0186075D01*
X0075543Y0186817D02*
X0075176Y0187184D01*
X0075176Y0188285D01*
X0074442Y0188285D02*
X0076644Y0188285D01*
X0076644Y0187184D01*
X0076277Y0186817D01*
X0075543Y0186817D01*
X0075910Y0184974D02*
X0076277Y0184607D01*
X0076644Y0181655D02*
X0074442Y0181655D01*
X0075543Y0189027D02*
X0075176Y0189394D01*
X0075176Y0190128D01*
X0075543Y0190495D01*
X0075910Y0190495D01*
X0075910Y0189027D01*
X0076277Y0189027D02*
X0075543Y0189027D01*
X0076277Y0189027D02*
X0076644Y0189394D01*
X0076644Y0190128D01*
X0076644Y0191237D02*
X0075176Y0191237D01*
X0075910Y0191237D02*
X0075176Y0191971D01*
X0075176Y0192338D01*
X0085383Y0201748D02*
X0086940Y0200191D01*
X0087978Y0201229D02*
X0086421Y0202786D01*
X0086421Y0201748D01*
X0085383Y0201748D01*
X0087205Y0203051D02*
X0088243Y0202013D01*
X0088762Y0202013D01*
X0089281Y0202532D01*
X0089281Y0203051D01*
X0088243Y0204089D01*
X0087724Y0204089D01*
X0087205Y0203570D01*
X0087205Y0203051D01*
X0088508Y0204874D02*
X0089546Y0205912D01*
X0089027Y0205393D02*
X0090584Y0203836D01*
X0091368Y0205139D02*
X0091887Y0205139D01*
X0092406Y0205658D01*
X0092406Y0206177D01*
X0091368Y0207215D01*
X0090849Y0207215D01*
X0090330Y0206696D01*
X0090330Y0206177D01*
X0091368Y0205139D01*
X0092672Y0206961D02*
X0093450Y0207739D01*
X0093450Y0208258D01*
X0092931Y0208777D01*
X0092412Y0208777D01*
X0091634Y0207999D01*
X0093191Y0206442D01*
X0093191Y0207480D02*
X0094229Y0207480D01*
X0095013Y0207745D02*
X0096051Y0208783D01*
X0096316Y0209567D02*
X0094759Y0211124D01*
X0095537Y0211902D01*
X0096056Y0211902D01*
X0096575Y0211383D01*
X0096575Y0210864D01*
X0095797Y0210086D01*
X0096316Y0210605D02*
X0097354Y0210605D01*
X0097878Y0211130D02*
X0097359Y0213725D01*
X0096321Y0212687D02*
X0098916Y0212168D01*
X0091916Y0218168D02*
X0090359Y0219725D01*
X0089321Y0218687D02*
X0091916Y0218168D01*
X0090878Y0217130D02*
X0089321Y0218687D01*
X0088797Y0218162D02*
X0087759Y0217124D01*
X0089316Y0215567D01*
X0090354Y0216605D01*
X0089056Y0216864D02*
X0088537Y0216345D01*
X0089051Y0214783D02*
X0088013Y0213745D01*
X0087229Y0213480D02*
X0086191Y0213480D01*
X0086450Y0213739D02*
X0085672Y0212961D01*
X0086191Y0212442D02*
X0084634Y0213999D01*
X0085412Y0214777D01*
X0085931Y0214777D01*
X0086450Y0214258D01*
X0086450Y0213739D01*
X0085406Y0212177D02*
X0084368Y0213215D01*
X0083849Y0213215D01*
X0083330Y0212696D01*
X0083330Y0212177D01*
X0084368Y0211139D01*
X0084887Y0211139D01*
X0085406Y0211658D01*
X0085406Y0212177D01*
X0082546Y0211912D02*
X0081508Y0210874D01*
X0082027Y0211393D02*
X0083584Y0209836D01*
X0082281Y0209051D02*
X0081243Y0210089D01*
X0080724Y0210089D01*
X0080205Y0209570D01*
X0080205Y0209051D01*
X0081243Y0208013D01*
X0081762Y0208013D01*
X0082281Y0208532D01*
X0082281Y0209051D01*
X0080978Y0207229D02*
X0079421Y0208786D01*
X0079421Y0207748D01*
X0078383Y0207748D01*
X0079940Y0206191D01*
X0075294Y0213888D02*
X0075294Y0215356D01*
X0075294Y0214622D02*
X0073092Y0214622D01*
X0073826Y0213888D01*
X0109187Y0238946D02*
X0110225Y0238946D01*
X0110225Y0239984D01*
X0111782Y0238427D01*
X0112047Y0239212D02*
X0112566Y0239212D01*
X0113085Y0239731D01*
X0113085Y0240250D01*
X0112047Y0241287D01*
X0111528Y0241287D01*
X0111009Y0240769D01*
X0111009Y0240250D01*
X0112047Y0239212D01*
X0110744Y0237389D02*
X0109187Y0238946D01*
X0131187Y0216946D02*
X0132744Y0215389D01*
X0133782Y0216427D01*
X0134307Y0216952D02*
X0133269Y0217990D01*
X0133269Y0219028D01*
X0134307Y0219028D01*
X0135345Y0217990D01*
X0135610Y0218774D02*
X0136129Y0218774D01*
X0136648Y0219293D01*
X0136648Y0219812D01*
X0136388Y0220072D01*
X0135869Y0220072D01*
X0135350Y0219553D01*
X0134831Y0219553D01*
X0134572Y0219812D01*
X0134572Y0220331D01*
X0135091Y0220850D01*
X0135610Y0220850D01*
X0135875Y0221634D02*
X0137432Y0220077D01*
X0138470Y0221115D01*
X0138995Y0221640D02*
X0137438Y0223197D01*
X0138216Y0223975D01*
X0138735Y0223975D01*
X0139254Y0223456D01*
X0139254Y0222937D01*
X0138476Y0222159D01*
X0138995Y0222678D02*
X0140033Y0222678D01*
X0140817Y0222943D02*
X0141855Y0223981D01*
X0142120Y0224765D02*
X0140563Y0226322D01*
X0141341Y0227101D01*
X0141860Y0227101D01*
X0142379Y0226582D01*
X0142379Y0226063D01*
X0141601Y0225284D01*
X0142120Y0225803D02*
X0143158Y0225803D01*
X0143682Y0226328D02*
X0143163Y0228923D01*
X0142125Y0227885D02*
X0144720Y0227366D01*
X0136913Y0222672D02*
X0135875Y0221634D01*
X0136653Y0220856D02*
X0137172Y0221375D01*
X0134566Y0218769D02*
X0133528Y0217731D01*
X0093602Y0123650D02*
X0093602Y0123283D01*
X0092134Y0121815D01*
X0092134Y0121448D01*
X0091392Y0121448D02*
X0089924Y0121448D01*
X0090658Y0121448D02*
X0090658Y0123650D01*
X0089924Y0122916D01*
X0089182Y0123283D02*
X0089182Y0122549D01*
X0088815Y0122182D01*
X0087714Y0122182D01*
X0087714Y0121448D02*
X0087714Y0123650D01*
X0088815Y0123650D01*
X0089182Y0123283D01*
X0088448Y0122182D02*
X0089182Y0121448D01*
X0092134Y0123650D02*
X0093602Y0123650D01*
X0285456Y0301302D02*
X0286494Y0300264D01*
X0287013Y0300264D01*
X0287532Y0300783D01*
X0287532Y0301302D01*
X0287013Y0301821D01*
X0286494Y0301302D01*
X0286494Y0302340D02*
X0285975Y0302340D01*
X0285456Y0301821D01*
X0285456Y0301302D01*
X0286759Y0303124D02*
X0289354Y0302605D01*
X0287797Y0304162D01*
X0288322Y0304687D02*
X0289100Y0305465D01*
X0289619Y0305465D01*
X0290657Y0304427D01*
X0290657Y0303908D01*
X0289878Y0303130D01*
X0288322Y0304687D01*
X0286759Y0303124D02*
X0288316Y0301567D01*
D12*
X0380953Y0016748D02*
X0050244Y0016748D01*
X0050244Y0070606D01*
X0380953Y0070606D01*
X0380953Y0016748D01*
X0154204Y0093999D02*
X0153453Y0093248D01*
X0151952Y0093248D01*
X0151201Y0093999D01*
X0151201Y0095500D01*
X0151952Y0096251D01*
X0153453Y0096251D01*
X0154204Y0095500D01*
X0154204Y0093999D01*
X0149633Y0093248D02*
X0148132Y0093248D01*
X0148883Y0093248D02*
X0148883Y0097752D01*
X0148132Y0097752D01*
X0146531Y0095500D02*
X0145780Y0096251D01*
X0144279Y0096251D01*
X0143528Y0095500D01*
X0143528Y0093999D01*
X0144279Y0093248D01*
X0145780Y0093248D01*
X0146531Y0093999D01*
X0146531Y0095500D01*
X0141927Y0097752D02*
X0141927Y0093248D01*
X0138924Y0093248D02*
X0138924Y0097752D01*
X0140425Y0096251D01*
X0141927Y0097752D01*
X0141209Y0100748D02*
X0140459Y0101499D01*
X0143461Y0104501D01*
X0143461Y0101499D01*
X0142711Y0100748D01*
X0141209Y0100748D01*
X0140459Y0101499D02*
X0140459Y0104501D01*
X0141209Y0105252D01*
X0142711Y0105252D01*
X0143461Y0104501D01*
X0145063Y0103751D02*
X0146564Y0105252D01*
X0146564Y0100748D01*
X0145063Y0100748D02*
X0148065Y0100748D01*
X0149667Y0101499D02*
X0150417Y0100748D01*
X0151919Y0100748D01*
X0152669Y0101499D01*
X0152669Y0103000D01*
X0151919Y0103751D01*
X0151168Y0103751D01*
X0149667Y0103000D01*
X0149667Y0105252D01*
X0152669Y0105252D01*
X0138857Y0104501D02*
X0138107Y0105252D01*
X0136606Y0105252D01*
X0135855Y0104501D01*
X0138857Y0104501D02*
X0138857Y0103751D01*
X0135855Y0100748D01*
X0138857Y0100748D01*
X0132736Y0096251D02*
X0130484Y0094749D01*
X0132736Y0093248D01*
X0130484Y0093248D02*
X0130484Y0097752D01*
X0128882Y0096251D02*
X0126630Y0096251D01*
X0125880Y0095500D01*
X0125880Y0093999D01*
X0126630Y0093248D01*
X0128882Y0093248D01*
X0124312Y0093248D02*
X0122810Y0093248D01*
X0123561Y0093248D02*
X0123561Y0096251D01*
X0122810Y0096251D01*
X0123561Y0097752D02*
X0123561Y0098503D01*
X0124295Y0100748D02*
X0125046Y0101499D01*
X0125046Y0104501D01*
X0124295Y0105252D01*
X0122794Y0105252D01*
X0122043Y0104501D01*
X0122043Y0101499D01*
X0122794Y0100748D01*
X0124295Y0100748D01*
X0126647Y0102249D02*
X0126647Y0105252D01*
X0129650Y0105252D02*
X0129650Y0102249D01*
X0128148Y0100748D01*
X0126647Y0102249D01*
X0125880Y0108248D02*
X0128882Y0111251D01*
X0128882Y0112001D01*
X0128132Y0112752D01*
X0126630Y0112752D01*
X0125880Y0112001D01*
X0124278Y0112752D02*
X0121276Y0109749D01*
X0122026Y0110500D02*
X0124278Y0108248D01*
X0125880Y0108248D02*
X0128882Y0108248D01*
X0121276Y0108248D02*
X0121276Y0112752D01*
X0119674Y0112752D02*
X0119674Y0108248D01*
X0119691Y0105252D02*
X0117439Y0105252D01*
X0117439Y0100748D01*
X0117439Y0102249D02*
X0119691Y0102249D01*
X0120442Y0103000D01*
X0120442Y0104501D01*
X0119691Y0105252D01*
X0118941Y0102249D02*
X0120442Y0100748D01*
X0121209Y0097752D02*
X0121209Y0093248D01*
X0118207Y0097752D01*
X0118207Y0093248D01*
X0112001Y0093248D02*
X0109749Y0093248D01*
X0108999Y0093999D01*
X0108999Y0096251D01*
X0107397Y0095500D02*
X0106647Y0096251D01*
X0104395Y0096251D01*
X0104395Y0097752D02*
X0104395Y0093248D01*
X0106647Y0093248D01*
X0107397Y0093999D01*
X0107397Y0095500D01*
X0112001Y0096251D02*
X0112001Y0092497D01*
X0111251Y0091747D01*
X0110500Y0091747D01*
X0111234Y0100748D02*
X0108231Y0100748D01*
X0108231Y0105252D01*
X0111234Y0105252D01*
X0109733Y0103000D02*
X0108231Y0103000D01*
X0106630Y0105252D02*
X0103627Y0105252D01*
X0103627Y0100748D01*
X0106630Y0100748D01*
X0105129Y0103000D02*
X0103627Y0103000D01*
X0102026Y0105252D02*
X0099024Y0105252D01*
X0099024Y0100748D01*
X0102026Y0100748D01*
X0100525Y0103000D02*
X0099024Y0103000D01*
X0097456Y0105252D02*
X0095954Y0105252D01*
X0096705Y0105252D02*
X0096705Y0100748D01*
X0095954Y0100748D02*
X0097456Y0100748D01*
X0098189Y0097752D02*
X0098189Y0093248D01*
X0095938Y0093248D01*
X0095187Y0093999D01*
X0095187Y0095500D01*
X0095938Y0096251D01*
X0098189Y0096251D01*
X0093586Y0095500D02*
X0093586Y0094749D01*
X0090583Y0094749D01*
X0090583Y0093999D02*
X0090583Y0095500D01*
X0091334Y0096251D01*
X0092835Y0096251D01*
X0093586Y0095500D01*
X0092835Y0093248D02*
X0091334Y0093248D01*
X0090583Y0093999D01*
X0088982Y0093248D02*
X0088982Y0095500D01*
X0088231Y0096251D01*
X0085979Y0096251D01*
X0085979Y0093248D01*
X0084378Y0093248D02*
X0082126Y0093248D01*
X0081375Y0093999D01*
X0081375Y0095500D01*
X0082126Y0096251D01*
X0084378Y0096251D01*
X0084378Y0092497D01*
X0083627Y0091747D01*
X0082876Y0091747D01*
X0079807Y0093248D02*
X0078306Y0093248D01*
X0079057Y0093248D02*
X0079057Y0096251D01*
X0078306Y0096251D01*
X0076705Y0096251D02*
X0074453Y0096251D01*
X0073702Y0095500D01*
X0074453Y0094749D01*
X0075954Y0094749D01*
X0076705Y0093999D01*
X0075954Y0093248D01*
X0073702Y0093248D01*
X0072101Y0094749D02*
X0069098Y0094749D01*
X0069098Y0093999D02*
X0069098Y0095500D01*
X0069849Y0096251D01*
X0071350Y0096251D01*
X0072101Y0095500D01*
X0072101Y0094749D01*
X0071350Y0093248D02*
X0069849Y0093248D01*
X0069098Y0093999D01*
X0067497Y0093999D02*
X0066746Y0093248D01*
X0064494Y0093248D01*
X0064494Y0097752D01*
X0066746Y0097752D01*
X0067497Y0097001D01*
X0067497Y0093999D01*
X0069849Y0100748D02*
X0072101Y0100748D01*
X0072101Y0103751D01*
X0073702Y0103751D02*
X0073702Y0100748D01*
X0073702Y0102249D02*
X0075203Y0103751D01*
X0075954Y0103751D01*
X0077539Y0103000D02*
X0077539Y0101499D01*
X0078289Y0100748D01*
X0080541Y0100748D01*
X0080541Y0105252D01*
X0080541Y0103751D02*
X0078289Y0103751D01*
X0077539Y0103000D01*
X0082142Y0103751D02*
X0082142Y0101499D01*
X0082893Y0100748D01*
X0085145Y0100748D01*
X0085145Y0103751D01*
X0086746Y0103000D02*
X0087497Y0103751D01*
X0088998Y0103751D01*
X0089749Y0103000D01*
X0089749Y0102249D01*
X0086746Y0102249D01*
X0086746Y0101499D02*
X0086746Y0103000D01*
X0086746Y0101499D02*
X0087497Y0100748D01*
X0088998Y0100748D01*
X0089816Y0108248D02*
X0092068Y0108248D01*
X0092818Y0108999D01*
X0092818Y0109749D01*
X0092068Y0110500D01*
X0089816Y0110500D01*
X0092068Y0110500D02*
X0092818Y0111251D01*
X0092818Y0112001D01*
X0092068Y0112752D01*
X0089816Y0112752D01*
X0089816Y0108248D01*
X0094420Y0108999D02*
X0095170Y0108248D01*
X0096672Y0108248D01*
X0097422Y0108999D01*
X0097422Y0110500D01*
X0096672Y0111251D01*
X0095170Y0111251D01*
X0094420Y0110500D01*
X0094420Y0108999D01*
X0099024Y0108999D02*
X0099774Y0109749D01*
X0102026Y0109749D01*
X0102026Y0110500D02*
X0102026Y0108248D01*
X0099774Y0108248D01*
X0099024Y0108999D01*
X0099774Y0111251D02*
X0101275Y0111251D01*
X0102026Y0110500D01*
X0103627Y0111251D02*
X0103627Y0108248D01*
X0103627Y0109749D02*
X0105129Y0111251D01*
X0105879Y0111251D01*
X0107464Y0110500D02*
X0108215Y0111251D01*
X0110467Y0111251D01*
X0110467Y0112752D02*
X0110467Y0108248D01*
X0108215Y0108248D01*
X0107464Y0108999D01*
X0107464Y0110500D01*
X0116672Y0112752D02*
X0118173Y0111251D01*
X0119674Y0112752D01*
X0116672Y0112752D02*
X0116672Y0108248D01*
X0083610Y0108999D02*
X0083610Y0110500D01*
X0082860Y0111251D01*
X0081358Y0111251D01*
X0080608Y0110500D01*
X0080608Y0108999D01*
X0081358Y0108248D01*
X0082860Y0108248D01*
X0083610Y0108999D01*
X0079023Y0111251D02*
X0078273Y0111251D01*
X0076771Y0109749D01*
X0076771Y0108248D02*
X0076771Y0111251D01*
X0075170Y0111251D02*
X0072918Y0111251D01*
X0072167Y0110500D01*
X0072167Y0108999D01*
X0072918Y0108248D01*
X0075170Y0108248D01*
X0070599Y0108248D02*
X0069098Y0108248D01*
X0069849Y0108248D02*
X0069849Y0111251D01*
X0069098Y0111251D01*
X0069849Y0112752D02*
X0069849Y0113503D01*
X0067497Y0112752D02*
X0067497Y0108248D01*
X0064494Y0108248D02*
X0064494Y0112752D01*
X0065995Y0111251D01*
X0067497Y0112752D01*
X0066746Y0105252D02*
X0064494Y0105252D01*
X0064494Y0100748D01*
X0064494Y0102249D02*
X0066746Y0102249D01*
X0067497Y0103000D01*
X0067497Y0104501D01*
X0066746Y0105252D01*
X0069098Y0103751D02*
X0069098Y0101499D01*
X0069849Y0100748D01*
X0079057Y0098503D02*
X0079057Y0097752D01*
X0113402Y0335906D02*
X0133087Y0335906D01*
X0133087Y0352047D01*
X0134268Y0350866D01*
X0135843Y0352441D01*
X0133087Y0355591D01*
X0133087Y0352047D01*
X0129543Y0355591D01*
X0133087Y0355591D01*
X0129543Y0355591D02*
X0113402Y0355591D01*
X0113402Y0335906D01*
X0116471Y0345748D02*
X0116473Y0345914D01*
X0116479Y0346080D01*
X0116489Y0346246D01*
X0116504Y0346412D01*
X0116522Y0346577D01*
X0116544Y0346742D01*
X0116571Y0346906D01*
X0116601Y0347069D01*
X0116636Y0347232D01*
X0116674Y0347394D01*
X0116716Y0347554D01*
X0116763Y0347714D01*
X0116813Y0347873D01*
X0116867Y0348030D01*
X0116925Y0348186D01*
X0116987Y0348340D01*
X0117052Y0348493D01*
X0117121Y0348644D01*
X0117194Y0348793D01*
X0117271Y0348941D01*
X0117351Y0349086D01*
X0117435Y0349230D01*
X0117522Y0349372D01*
X0117612Y0349511D01*
X0117706Y0349648D01*
X0117804Y0349783D01*
X0117905Y0349915D01*
X0118008Y0350045D01*
X0118115Y0350172D01*
X0118226Y0350296D01*
X0118339Y0350418D01*
X0118455Y0350537D01*
X0118574Y0350653D01*
X0118696Y0350766D01*
X0118820Y0350877D01*
X0118947Y0350984D01*
X0119077Y0351087D01*
X0119209Y0351188D01*
X0119344Y0351286D01*
X0119481Y0351380D01*
X0119620Y0351470D01*
X0119762Y0351557D01*
X0119906Y0351641D01*
X0120051Y0351721D01*
X0120199Y0351798D01*
X0120348Y0351871D01*
X0120499Y0351940D01*
X0120652Y0352005D01*
X0120806Y0352067D01*
X0120962Y0352125D01*
X0121119Y0352179D01*
X0121278Y0352229D01*
X0121438Y0352276D01*
X0121598Y0352318D01*
X0121760Y0352356D01*
X0121923Y0352391D01*
X0122086Y0352421D01*
X0122250Y0352448D01*
X0122415Y0352470D01*
X0122580Y0352488D01*
X0122746Y0352503D01*
X0122912Y0352513D01*
X0123078Y0352519D01*
X0123244Y0352521D01*
X0123410Y0352519D01*
X0123576Y0352513D01*
X0123742Y0352503D01*
X0123908Y0352488D01*
X0124073Y0352470D01*
X0124238Y0352448D01*
X0124402Y0352421D01*
X0124565Y0352391D01*
X0124728Y0352356D01*
X0124890Y0352318D01*
X0125050Y0352276D01*
X0125210Y0352229D01*
X0125369Y0352179D01*
X0125526Y0352125D01*
X0125682Y0352067D01*
X0125836Y0352005D01*
X0125989Y0351940D01*
X0126140Y0351871D01*
X0126289Y0351798D01*
X0126437Y0351721D01*
X0126582Y0351641D01*
X0126726Y0351557D01*
X0126868Y0351470D01*
X0127007Y0351380D01*
X0127144Y0351286D01*
X0127279Y0351188D01*
X0127411Y0351087D01*
X0127541Y0350984D01*
X0127668Y0350877D01*
X0127792Y0350766D01*
X0127914Y0350653D01*
X0128033Y0350537D01*
X0128149Y0350418D01*
X0128262Y0350296D01*
X0128373Y0350172D01*
X0128480Y0350045D01*
X0128583Y0349915D01*
X0128684Y0349783D01*
X0128782Y0349648D01*
X0128876Y0349511D01*
X0128966Y0349372D01*
X0129053Y0349230D01*
X0129137Y0349086D01*
X0129217Y0348941D01*
X0129294Y0348793D01*
X0129367Y0348644D01*
X0129436Y0348493D01*
X0129501Y0348340D01*
X0129563Y0348186D01*
X0129621Y0348030D01*
X0129675Y0347873D01*
X0129725Y0347714D01*
X0129772Y0347554D01*
X0129814Y0347394D01*
X0129852Y0347232D01*
X0129887Y0347069D01*
X0129917Y0346906D01*
X0129944Y0346742D01*
X0129966Y0346577D01*
X0129984Y0346412D01*
X0129999Y0346246D01*
X0130009Y0346080D01*
X0130015Y0345914D01*
X0130017Y0345748D01*
X0130015Y0345582D01*
X0130009Y0345416D01*
X0129999Y0345250D01*
X0129984Y0345084D01*
X0129966Y0344919D01*
X0129944Y0344754D01*
X0129917Y0344590D01*
X0129887Y0344427D01*
X0129852Y0344264D01*
X0129814Y0344102D01*
X0129772Y0343942D01*
X0129725Y0343782D01*
X0129675Y0343623D01*
X0129621Y0343466D01*
X0129563Y0343310D01*
X0129501Y0343156D01*
X0129436Y0343003D01*
X0129367Y0342852D01*
X0129294Y0342703D01*
X0129217Y0342555D01*
X0129137Y0342410D01*
X0129053Y0342266D01*
X0128966Y0342124D01*
X0128876Y0341985D01*
X0128782Y0341848D01*
X0128684Y0341713D01*
X0128583Y0341581D01*
X0128480Y0341451D01*
X0128373Y0341324D01*
X0128262Y0341200D01*
X0128149Y0341078D01*
X0128033Y0340959D01*
X0127914Y0340843D01*
X0127792Y0340730D01*
X0127668Y0340619D01*
X0127541Y0340512D01*
X0127411Y0340409D01*
X0127279Y0340308D01*
X0127144Y0340210D01*
X0127007Y0340116D01*
X0126868Y0340026D01*
X0126726Y0339939D01*
X0126582Y0339855D01*
X0126437Y0339775D01*
X0126289Y0339698D01*
X0126140Y0339625D01*
X0125989Y0339556D01*
X0125836Y0339491D01*
X0125682Y0339429D01*
X0125526Y0339371D01*
X0125369Y0339317D01*
X0125210Y0339267D01*
X0125050Y0339220D01*
X0124890Y0339178D01*
X0124728Y0339140D01*
X0124565Y0339105D01*
X0124402Y0339075D01*
X0124238Y0339048D01*
X0124073Y0339026D01*
X0123908Y0339008D01*
X0123742Y0338993D01*
X0123576Y0338983D01*
X0123410Y0338977D01*
X0123244Y0338975D01*
X0123078Y0338977D01*
X0122912Y0338983D01*
X0122746Y0338993D01*
X0122580Y0339008D01*
X0122415Y0339026D01*
X0122250Y0339048D01*
X0122086Y0339075D01*
X0121923Y0339105D01*
X0121760Y0339140D01*
X0121598Y0339178D01*
X0121438Y0339220D01*
X0121278Y0339267D01*
X0121119Y0339317D01*
X0120962Y0339371D01*
X0120806Y0339429D01*
X0120652Y0339491D01*
X0120499Y0339556D01*
X0120348Y0339625D01*
X0120199Y0339698D01*
X0120051Y0339775D01*
X0119906Y0339855D01*
X0119762Y0339939D01*
X0119620Y0340026D01*
X0119481Y0340116D01*
X0119344Y0340210D01*
X0119209Y0340308D01*
X0119077Y0340409D01*
X0118947Y0340512D01*
X0118820Y0340619D01*
X0118696Y0340730D01*
X0118574Y0340843D01*
X0118455Y0340959D01*
X0118339Y0341078D01*
X0118226Y0341200D01*
X0118115Y0341324D01*
X0118008Y0341451D01*
X0117905Y0341581D01*
X0117804Y0341713D01*
X0117706Y0341848D01*
X0117612Y0341985D01*
X0117522Y0342124D01*
X0117435Y0342266D01*
X0117351Y0342410D01*
X0117271Y0342555D01*
X0117194Y0342703D01*
X0117121Y0342852D01*
X0117052Y0343003D01*
X0116987Y0343156D01*
X0116925Y0343310D01*
X0116867Y0343466D01*
X0116813Y0343623D01*
X0116763Y0343782D01*
X0116716Y0343942D01*
X0116674Y0344102D01*
X0116636Y0344264D01*
X0116601Y0344427D01*
X0116571Y0344590D01*
X0116544Y0344754D01*
X0116522Y0344919D01*
X0116504Y0345084D01*
X0116489Y0345250D01*
X0116479Y0345416D01*
X0116473Y0345582D01*
X0116471Y0345748D01*
X0086937Y0404563D02*
X0063315Y0404563D01*
X0063315Y0424248D01*
X0086937Y0424248D02*
X0086937Y0404563D01*
X0330175Y0389311D02*
X0330175Y0372185D01*
X0352813Y0372185D01*
X0352813Y0389311D01*
X0330175Y0389311D01*
D13*
X0215232Y0206737D02*
X0215234Y0206845D01*
X0215240Y0206954D01*
X0215250Y0207062D01*
X0215264Y0207169D01*
X0215282Y0207276D01*
X0215303Y0207383D01*
X0215329Y0207488D01*
X0215359Y0207593D01*
X0215392Y0207696D01*
X0215429Y0207798D01*
X0215470Y0207898D01*
X0215514Y0207997D01*
X0215563Y0208095D01*
X0215614Y0208190D01*
X0215669Y0208283D01*
X0215728Y0208375D01*
X0215790Y0208464D01*
X0215855Y0208551D01*
X0215923Y0208635D01*
X0215994Y0208717D01*
X0216068Y0208796D01*
X0216145Y0208872D01*
X0216225Y0208946D01*
X0216308Y0209016D01*
X0216393Y0209084D01*
X0216480Y0209148D01*
X0216570Y0209209D01*
X0216662Y0209267D01*
X0216756Y0209321D01*
X0216852Y0209372D01*
X0216949Y0209419D01*
X0217049Y0209463D01*
X0217150Y0209503D01*
X0217252Y0209539D01*
X0217355Y0209571D01*
X0217460Y0209600D01*
X0217566Y0209624D01*
X0217672Y0209645D01*
X0217779Y0209662D01*
X0217887Y0209675D01*
X0217995Y0209684D01*
X0218104Y0209689D01*
X0218212Y0209690D01*
X0218321Y0209687D01*
X0218429Y0209680D01*
X0218537Y0209669D01*
X0218644Y0209654D01*
X0218751Y0209635D01*
X0218857Y0209612D01*
X0218962Y0209586D01*
X0219067Y0209555D01*
X0219169Y0209521D01*
X0219271Y0209483D01*
X0219371Y0209441D01*
X0219470Y0209396D01*
X0219567Y0209347D01*
X0219661Y0209294D01*
X0219754Y0209238D01*
X0219845Y0209179D01*
X0219934Y0209116D01*
X0220020Y0209051D01*
X0220104Y0208982D01*
X0220185Y0208910D01*
X0220263Y0208835D01*
X0220339Y0208757D01*
X0220412Y0208676D01*
X0220482Y0208593D01*
X0220548Y0208508D01*
X0220612Y0208420D01*
X0220672Y0208329D01*
X0220729Y0208237D01*
X0220782Y0208142D01*
X0220832Y0208046D01*
X0220878Y0207948D01*
X0220921Y0207848D01*
X0220960Y0207747D01*
X0220995Y0207644D01*
X0221027Y0207541D01*
X0221054Y0207436D01*
X0221078Y0207330D01*
X0221098Y0207223D01*
X0221114Y0207116D01*
X0221126Y0207008D01*
X0221134Y0206900D01*
X0221138Y0206791D01*
X0221138Y0206683D01*
X0221134Y0206574D01*
X0221126Y0206466D01*
X0221114Y0206358D01*
X0221098Y0206251D01*
X0221078Y0206144D01*
X0221054Y0206038D01*
X0221027Y0205933D01*
X0220995Y0205830D01*
X0220960Y0205727D01*
X0220921Y0205626D01*
X0220878Y0205526D01*
X0220832Y0205428D01*
X0220782Y0205332D01*
X0220729Y0205237D01*
X0220672Y0205145D01*
X0220612Y0205054D01*
X0220548Y0204966D01*
X0220482Y0204881D01*
X0220412Y0204798D01*
X0220339Y0204717D01*
X0220263Y0204639D01*
X0220185Y0204564D01*
X0220104Y0204492D01*
X0220020Y0204423D01*
X0219934Y0204358D01*
X0219845Y0204295D01*
X0219754Y0204236D01*
X0219662Y0204180D01*
X0219567Y0204127D01*
X0219470Y0204078D01*
X0219371Y0204033D01*
X0219271Y0203991D01*
X0219169Y0203953D01*
X0219067Y0203919D01*
X0218962Y0203888D01*
X0218857Y0203862D01*
X0218751Y0203839D01*
X0218644Y0203820D01*
X0218537Y0203805D01*
X0218429Y0203794D01*
X0218321Y0203787D01*
X0218212Y0203784D01*
X0218104Y0203785D01*
X0217995Y0203790D01*
X0217887Y0203799D01*
X0217779Y0203812D01*
X0217672Y0203829D01*
X0217566Y0203850D01*
X0217460Y0203874D01*
X0217355Y0203903D01*
X0217252Y0203935D01*
X0217150Y0203971D01*
X0217049Y0204011D01*
X0216949Y0204055D01*
X0216852Y0204102D01*
X0216756Y0204153D01*
X0216662Y0204207D01*
X0216570Y0204265D01*
X0216480Y0204326D01*
X0216393Y0204390D01*
X0216308Y0204458D01*
X0216225Y0204528D01*
X0216145Y0204602D01*
X0216068Y0204678D01*
X0215994Y0204757D01*
X0215923Y0204839D01*
X0215855Y0204923D01*
X0215790Y0205010D01*
X0215728Y0205099D01*
X0215669Y0205191D01*
X0215614Y0205284D01*
X0215563Y0205379D01*
X0215514Y0205477D01*
X0215470Y0205576D01*
X0215429Y0205676D01*
X0215392Y0205778D01*
X0215359Y0205881D01*
X0215329Y0205986D01*
X0215303Y0206091D01*
X0215282Y0206198D01*
X0215264Y0206305D01*
X0215250Y0206412D01*
X0215240Y0206520D01*
X0215234Y0206629D01*
X0215232Y0206737D01*
D14*
X0218157Y0199972D02*
X0164094Y0254035D01*
X0218185Y0308126D01*
X0272248Y0254063D01*
X0218157Y0199972D01*
X0317602Y0190833D02*
X0317639Y0190794D01*
X0317673Y0190753D01*
X0317704Y0190709D01*
X0317732Y0190663D01*
X0317757Y0190615D01*
X0317778Y0190566D01*
X0317796Y0190515D01*
X0317811Y0190463D01*
X0317822Y0190411D01*
X0317829Y0190357D01*
X0317833Y0190304D01*
X0317833Y0190250D01*
X0317829Y0190197D01*
X0317822Y0190143D01*
X0317811Y0190091D01*
X0317796Y0190039D01*
X0317778Y0189988D01*
X0317757Y0189939D01*
X0317732Y0189891D01*
X0317704Y0189845D01*
X0317673Y0189801D01*
X0317639Y0189760D01*
X0317602Y0189721D01*
X0317603Y0190834D02*
X0324841Y0198072D01*
X0324841Y0198073D02*
X0324880Y0198036D01*
X0324921Y0198002D01*
X0324965Y0197971D01*
X0325011Y0197943D01*
X0325059Y0197918D01*
X0325108Y0197897D01*
X0325159Y0197879D01*
X0325211Y0197864D01*
X0325263Y0197853D01*
X0325317Y0197846D01*
X0325370Y0197842D01*
X0325424Y0197842D01*
X0325477Y0197846D01*
X0325531Y0197853D01*
X0325583Y0197864D01*
X0325635Y0197879D01*
X0325686Y0197897D01*
X0325735Y0197918D01*
X0325783Y0197943D01*
X0325829Y0197971D01*
X0325873Y0198002D01*
X0325914Y0198036D01*
X0325953Y0198073D01*
X0338204Y0185822D02*
X0338167Y0185783D01*
X0338133Y0185742D01*
X0338102Y0185698D01*
X0338074Y0185652D01*
X0338049Y0185604D01*
X0338028Y0185555D01*
X0338010Y0185504D01*
X0337995Y0185452D01*
X0337984Y0185400D01*
X0337977Y0185346D01*
X0337973Y0185293D01*
X0337973Y0185239D01*
X0337977Y0185186D01*
X0337984Y0185132D01*
X0337995Y0185080D01*
X0338010Y0185028D01*
X0338028Y0184977D01*
X0338049Y0184928D01*
X0338074Y0184880D01*
X0338102Y0184834D01*
X0338133Y0184790D01*
X0338167Y0184749D01*
X0338204Y0184710D01*
X0338203Y0184710D02*
X0330965Y0177471D01*
X0330964Y0177471D02*
X0330925Y0177508D01*
X0330884Y0177542D01*
X0330840Y0177573D01*
X0330794Y0177601D01*
X0330746Y0177626D01*
X0330697Y0177647D01*
X0330646Y0177665D01*
X0330594Y0177680D01*
X0330542Y0177691D01*
X0330488Y0177698D01*
X0330435Y0177702D01*
X0330381Y0177702D01*
X0330328Y0177698D01*
X0330274Y0177691D01*
X0330222Y0177680D01*
X0330170Y0177665D01*
X0330119Y0177647D01*
X0330070Y0177626D01*
X0330022Y0177601D01*
X0329976Y0177573D01*
X0329932Y0177542D01*
X0329891Y0177508D01*
X0329852Y0177471D01*
X0322744Y0338748D02*
X0317744Y0338748D01*
X0315244Y0341248D01*
X0315244Y0346248D01*
X0317744Y0348748D01*
X0315244Y0351248D01*
X0315244Y0356248D01*
X0317744Y0358748D01*
X0322744Y0358748D01*
X0325244Y0356248D01*
X0325244Y0351248D01*
X0322744Y0348748D01*
X0325244Y0346248D01*
X0325244Y0341248D01*
X0322744Y0338748D01*
X0313244Y0341248D02*
X0310744Y0338748D01*
X0305744Y0338748D01*
X0303244Y0341248D01*
X0303244Y0346248D01*
X0305744Y0348748D01*
X0303244Y0351248D01*
X0303244Y0356248D01*
X0305744Y0358748D01*
X0310744Y0358748D01*
X0313244Y0356248D01*
X0313244Y0351248D01*
X0310744Y0348748D01*
X0313244Y0346248D01*
X0313244Y0341248D01*
X0267244Y0400248D02*
X0262244Y0400248D01*
X0259744Y0402748D01*
X0257244Y0400248D01*
X0252244Y0400248D01*
X0249744Y0402748D01*
X0247244Y0400248D01*
X0242244Y0400248D01*
X0239744Y0402748D01*
X0237244Y0400248D01*
X0232244Y0400248D01*
X0229744Y0402748D01*
X0227244Y0400248D01*
X0222244Y0400248D01*
X0219744Y0402748D01*
X0217244Y0400248D01*
X0212244Y0400248D01*
X0209744Y0402748D01*
X0209744Y0407748D01*
X0212244Y0410248D01*
X0217244Y0410248D01*
X0219744Y0407748D01*
X0222244Y0410248D01*
X0227244Y0410248D01*
X0229744Y0407748D01*
X0232244Y0410248D01*
X0237244Y0410248D01*
X0239744Y0407748D01*
X0242244Y0410248D01*
X0247244Y0410248D01*
X0249744Y0407748D01*
X0252244Y0410248D01*
X0257244Y0410248D01*
X0259744Y0407748D01*
X0262244Y0410248D01*
X0267244Y0410248D01*
X0269744Y0407748D01*
X0269744Y0402748D01*
X0267244Y0400248D01*
X0267244Y0412248D02*
X0262244Y0412248D01*
X0259744Y0414748D01*
X0257244Y0412248D01*
X0252244Y0412248D01*
X0249744Y0414748D01*
X0247244Y0412248D01*
X0242244Y0412248D01*
X0239744Y0414748D01*
X0237244Y0412248D01*
X0232244Y0412248D01*
X0229744Y0414748D01*
X0227244Y0412248D01*
X0222244Y0412248D01*
X0219744Y0414748D01*
X0217244Y0412248D01*
X0212244Y0412248D01*
X0209744Y0414748D01*
X0209744Y0419748D01*
X0212244Y0422248D01*
X0217244Y0422248D01*
X0219744Y0419748D01*
X0222244Y0422248D01*
X0227244Y0422248D01*
X0229744Y0419748D01*
X0232244Y0422248D01*
X0237244Y0422248D01*
X0239744Y0419748D01*
X0242244Y0422248D01*
X0247244Y0422248D01*
X0249744Y0419748D01*
X0252244Y0422248D01*
X0257244Y0422248D01*
X0259744Y0419748D01*
X0262244Y0422248D01*
X0267244Y0422248D01*
X0269744Y0419748D01*
X0269744Y0414748D01*
X0267244Y0412248D01*
X0195555Y0412417D02*
X0193744Y0412417D01*
X0194665Y0411197D01*
X0193744Y0412417D02*
X0191933Y0412417D01*
X0192884Y0411197D02*
X0193644Y0412357D01*
X0189555Y0412417D02*
X0187744Y0412417D01*
X0188665Y0411197D01*
X0187744Y0412417D02*
X0185933Y0412417D01*
X0186884Y0411197D02*
X0187644Y0412357D01*
X0183555Y0412417D02*
X0181744Y0412417D01*
X0182665Y0411197D01*
X0181744Y0412417D02*
X0179933Y0412417D01*
X0180884Y0411197D02*
X0181644Y0412357D01*
X0177555Y0412417D02*
X0175744Y0412417D01*
X0176665Y0411197D01*
X0175744Y0412417D02*
X0173933Y0412417D01*
X0174884Y0411197D02*
X0175644Y0412357D01*
X0077862Y0375033D02*
X0077862Y0366923D01*
X0067626Y0366923D02*
X0067626Y0375033D01*
X0067744Y0294248D02*
X0062744Y0294248D01*
X0060244Y0291748D01*
X0060244Y0286748D01*
X0062744Y0284248D01*
X0067744Y0284248D01*
X0070244Y0286748D01*
X0070244Y0291748D01*
X0067744Y0294248D01*
X0068244Y0219248D02*
X0063244Y0219248D01*
X0060744Y0216748D01*
X0060744Y0211748D01*
X0063244Y0209248D01*
X0060744Y0206748D01*
X0060744Y0201748D01*
X0063244Y0199248D01*
X0060744Y0196748D01*
X0060744Y0191748D01*
X0063244Y0189248D01*
X0060744Y0186748D01*
X0060744Y0181748D01*
X0063244Y0179248D01*
X0060744Y0176748D01*
X0060744Y0171748D01*
X0063244Y0169248D01*
X0060744Y0166748D01*
X0060744Y0161748D01*
X0063244Y0159248D01*
X0068244Y0159248D01*
X0070744Y0161748D01*
X0070744Y0166748D01*
X0068244Y0169248D01*
X0070744Y0171748D01*
X0070744Y0176748D01*
X0068244Y0179248D01*
X0070744Y0181748D01*
X0070744Y0186748D01*
X0068244Y0189248D01*
X0070744Y0191748D01*
X0070744Y0196748D01*
X0068244Y0199248D01*
X0070744Y0201748D01*
X0070744Y0206748D01*
X0068244Y0209248D01*
X0070744Y0211748D01*
X0070744Y0216748D01*
X0068244Y0219248D01*
D15*
X0076410Y0236032D02*
X0200154Y0112288D01*
X0200225Y0112220D01*
X0200298Y0112155D01*
X0200374Y0112093D01*
X0200453Y0112033D01*
X0200533Y0111977D01*
X0200616Y0111924D01*
X0200700Y0111875D01*
X0200787Y0111828D01*
X0200875Y0111786D01*
X0200965Y0111746D01*
X0201057Y0111711D01*
X0201149Y0111678D01*
X0201243Y0111650D01*
X0201338Y0111625D01*
X0201434Y0111604D01*
X0201531Y0111587D01*
X0201628Y0111573D01*
X0201726Y0111564D01*
X0201824Y0111558D01*
X0201922Y0111556D01*
X0202020Y0111558D01*
X0202118Y0111564D01*
X0202216Y0111573D01*
X0202313Y0111587D01*
X0202410Y0111604D01*
X0202506Y0111625D01*
X0202601Y0111650D01*
X0202695Y0111678D01*
X0202787Y0111711D01*
X0202879Y0111746D01*
X0202969Y0111786D01*
X0203057Y0111828D01*
X0203144Y0111875D01*
X0203228Y0111924D01*
X0203311Y0111977D01*
X0203391Y0112033D01*
X0203470Y0112093D01*
X0203546Y0112155D01*
X0203619Y0112220D01*
X0203690Y0112288D01*
X0217125Y0125723D01*
X0219246Y0125723D02*
X0232681Y0112288D01*
X0232752Y0112220D01*
X0232825Y0112155D01*
X0232901Y0112093D01*
X0232980Y0112033D01*
X0233060Y0111977D01*
X0233143Y0111924D01*
X0233227Y0111875D01*
X0233314Y0111828D01*
X0233402Y0111786D01*
X0233492Y0111746D01*
X0233584Y0111711D01*
X0233676Y0111678D01*
X0233770Y0111650D01*
X0233865Y0111625D01*
X0233961Y0111604D01*
X0234058Y0111587D01*
X0234155Y0111573D01*
X0234253Y0111564D01*
X0234351Y0111558D01*
X0234449Y0111556D01*
X0234547Y0111558D01*
X0234645Y0111564D01*
X0234743Y0111573D01*
X0234840Y0111587D01*
X0234937Y0111604D01*
X0235033Y0111625D01*
X0235128Y0111650D01*
X0235222Y0111678D01*
X0235314Y0111711D01*
X0235406Y0111746D01*
X0235496Y0111786D01*
X0235584Y0111828D01*
X0235671Y0111875D01*
X0235755Y0111924D01*
X0235838Y0111977D01*
X0235918Y0112033D01*
X0235997Y0112093D01*
X0236073Y0112155D01*
X0236146Y0112220D01*
X0236217Y0112288D01*
X0236216Y0112288D02*
X0359960Y0236032D01*
X0360028Y0236103D01*
X0360093Y0236176D01*
X0360155Y0236252D01*
X0360215Y0236331D01*
X0360271Y0236411D01*
X0360324Y0236494D01*
X0360373Y0236578D01*
X0360420Y0236665D01*
X0360462Y0236753D01*
X0360502Y0236843D01*
X0360537Y0236935D01*
X0360570Y0237027D01*
X0360598Y0237121D01*
X0360623Y0237216D01*
X0360644Y0237312D01*
X0360661Y0237409D01*
X0360675Y0237506D01*
X0360684Y0237604D01*
X0360690Y0237702D01*
X0360692Y0237800D01*
X0360690Y0237898D01*
X0360684Y0237996D01*
X0360675Y0238094D01*
X0360661Y0238191D01*
X0360644Y0238288D01*
X0360623Y0238384D01*
X0360598Y0238479D01*
X0360570Y0238573D01*
X0360537Y0238665D01*
X0360502Y0238757D01*
X0360462Y0238847D01*
X0360420Y0238935D01*
X0360373Y0239022D01*
X0360324Y0239106D01*
X0360271Y0239189D01*
X0360215Y0239269D01*
X0360155Y0239348D01*
X0360093Y0239424D01*
X0360028Y0239497D01*
X0359960Y0239568D01*
X0359960Y0239567D02*
X0346525Y0253002D01*
X0346525Y0255124D02*
X0359960Y0268559D01*
X0360028Y0268630D01*
X0360093Y0268703D01*
X0360155Y0268779D01*
X0360215Y0268858D01*
X0360271Y0268938D01*
X0360324Y0269021D01*
X0360373Y0269105D01*
X0360420Y0269192D01*
X0360462Y0269280D01*
X0360502Y0269370D01*
X0360537Y0269462D01*
X0360570Y0269554D01*
X0360598Y0269648D01*
X0360623Y0269743D01*
X0360644Y0269839D01*
X0360661Y0269936D01*
X0360675Y0270033D01*
X0360684Y0270131D01*
X0360690Y0270229D01*
X0360692Y0270327D01*
X0360690Y0270425D01*
X0360684Y0270523D01*
X0360675Y0270621D01*
X0360661Y0270718D01*
X0360644Y0270815D01*
X0360623Y0270911D01*
X0360598Y0271006D01*
X0360570Y0271100D01*
X0360537Y0271192D01*
X0360502Y0271284D01*
X0360462Y0271374D01*
X0360420Y0271462D01*
X0360373Y0271549D01*
X0360324Y0271633D01*
X0360271Y0271716D01*
X0360215Y0271796D01*
X0360155Y0271875D01*
X0360093Y0271951D01*
X0360028Y0272024D01*
X0359960Y0272095D01*
X0359960Y0272094D02*
X0236216Y0395838D01*
X0236217Y0395838D02*
X0236146Y0395906D01*
X0236073Y0395971D01*
X0235997Y0396033D01*
X0235918Y0396093D01*
X0235838Y0396149D01*
X0235755Y0396202D01*
X0235671Y0396251D01*
X0235584Y0396298D01*
X0235496Y0396340D01*
X0235406Y0396380D01*
X0235314Y0396415D01*
X0235222Y0396448D01*
X0235128Y0396476D01*
X0235033Y0396501D01*
X0234937Y0396522D01*
X0234840Y0396539D01*
X0234743Y0396553D01*
X0234645Y0396562D01*
X0234547Y0396568D01*
X0234449Y0396570D01*
X0234351Y0396568D01*
X0234253Y0396562D01*
X0234155Y0396553D01*
X0234058Y0396539D01*
X0233961Y0396522D01*
X0233865Y0396501D01*
X0233770Y0396476D01*
X0233676Y0396448D01*
X0233584Y0396415D01*
X0233492Y0396380D01*
X0233402Y0396340D01*
X0233314Y0396298D01*
X0233227Y0396251D01*
X0233143Y0396202D01*
X0233060Y0396149D01*
X0232980Y0396093D01*
X0232901Y0396033D01*
X0232825Y0395971D01*
X0232752Y0395906D01*
X0232681Y0395838D01*
X0219246Y0382403D01*
X0217125Y0382403D02*
X0203690Y0395838D01*
X0203619Y0395906D01*
X0203546Y0395971D01*
X0203470Y0396033D01*
X0203391Y0396093D01*
X0203311Y0396149D01*
X0203228Y0396202D01*
X0203144Y0396251D01*
X0203057Y0396298D01*
X0202969Y0396340D01*
X0202879Y0396380D01*
X0202787Y0396415D01*
X0202695Y0396448D01*
X0202601Y0396476D01*
X0202506Y0396501D01*
X0202410Y0396522D01*
X0202313Y0396539D01*
X0202216Y0396553D01*
X0202118Y0396562D01*
X0202020Y0396568D01*
X0201922Y0396570D01*
X0201824Y0396568D01*
X0201726Y0396562D01*
X0201628Y0396553D01*
X0201531Y0396539D01*
X0201434Y0396522D01*
X0201338Y0396501D01*
X0201243Y0396476D01*
X0201149Y0396448D01*
X0201057Y0396415D01*
X0200965Y0396380D01*
X0200875Y0396340D01*
X0200787Y0396298D01*
X0200700Y0396251D01*
X0200616Y0396202D01*
X0200533Y0396149D01*
X0200453Y0396093D01*
X0200374Y0396033D01*
X0200298Y0395971D01*
X0200225Y0395906D01*
X0200154Y0395838D01*
X0076410Y0272094D01*
X0076410Y0272095D02*
X0076342Y0272024D01*
X0076277Y0271951D01*
X0076215Y0271875D01*
X0076155Y0271796D01*
X0076099Y0271716D01*
X0076046Y0271633D01*
X0075997Y0271549D01*
X0075950Y0271462D01*
X0075908Y0271374D01*
X0075868Y0271284D01*
X0075833Y0271192D01*
X0075800Y0271100D01*
X0075772Y0271006D01*
X0075747Y0270911D01*
X0075726Y0270815D01*
X0075709Y0270718D01*
X0075695Y0270621D01*
X0075686Y0270523D01*
X0075680Y0270425D01*
X0075678Y0270327D01*
X0075680Y0270229D01*
X0075686Y0270131D01*
X0075695Y0270033D01*
X0075709Y0269936D01*
X0075726Y0269839D01*
X0075747Y0269743D01*
X0075772Y0269648D01*
X0075800Y0269554D01*
X0075833Y0269462D01*
X0075868Y0269370D01*
X0075908Y0269280D01*
X0075950Y0269192D01*
X0075997Y0269105D01*
X0076046Y0269021D01*
X0076099Y0268938D01*
X0076155Y0268858D01*
X0076215Y0268779D01*
X0076277Y0268703D01*
X0076342Y0268630D01*
X0076410Y0268559D01*
X0089845Y0255124D01*
X0089845Y0253002D02*
X0076410Y0239567D01*
X0076410Y0239568D02*
X0076342Y0239497D01*
X0076277Y0239424D01*
X0076215Y0239348D01*
X0076155Y0239269D01*
X0076099Y0239189D01*
X0076046Y0239106D01*
X0075997Y0239022D01*
X0075950Y0238935D01*
X0075908Y0238847D01*
X0075868Y0238757D01*
X0075833Y0238665D01*
X0075800Y0238573D01*
X0075772Y0238479D01*
X0075747Y0238384D01*
X0075726Y0238288D01*
X0075709Y0238191D01*
X0075695Y0238094D01*
X0075686Y0237996D01*
X0075680Y0237898D01*
X0075678Y0237800D01*
X0075680Y0237702D01*
X0075686Y0237604D01*
X0075695Y0237506D01*
X0075709Y0237409D01*
X0075726Y0237312D01*
X0075747Y0237216D01*
X0075772Y0237121D01*
X0075800Y0237027D01*
X0075833Y0236935D01*
X0075868Y0236843D01*
X0075908Y0236753D01*
X0075950Y0236665D01*
X0075997Y0236578D01*
X0076046Y0236494D01*
X0076099Y0236411D01*
X0076155Y0236331D01*
X0076215Y0236252D01*
X0076277Y0236176D01*
X0076342Y0236103D01*
X0076410Y0236032D01*
X0089845Y0253003D02*
X0089916Y0253071D01*
X0089989Y0253136D01*
X0090065Y0253198D01*
X0090144Y0253258D01*
X0090224Y0253314D01*
X0090307Y0253367D01*
X0090391Y0253416D01*
X0090478Y0253463D01*
X0090566Y0253505D01*
X0090656Y0253545D01*
X0090748Y0253580D01*
X0090840Y0253613D01*
X0090934Y0253641D01*
X0091029Y0253666D01*
X0091125Y0253687D01*
X0091222Y0253704D01*
X0091319Y0253718D01*
X0091417Y0253727D01*
X0091515Y0253733D01*
X0091613Y0253735D01*
X0091711Y0253733D01*
X0091809Y0253727D01*
X0091907Y0253718D01*
X0092004Y0253704D01*
X0092101Y0253687D01*
X0092197Y0253666D01*
X0092292Y0253641D01*
X0092386Y0253613D01*
X0092478Y0253580D01*
X0092570Y0253545D01*
X0092660Y0253505D01*
X0092748Y0253463D01*
X0092835Y0253416D01*
X0092919Y0253367D01*
X0093002Y0253314D01*
X0093082Y0253258D01*
X0093161Y0253198D01*
X0093237Y0253136D01*
X0093310Y0253071D01*
X0093381Y0253003D01*
X0093381Y0253002D02*
X0217125Y0129259D01*
X0219246Y0129259D02*
X0342990Y0253002D01*
X0342990Y0255124D02*
X0219246Y0378867D01*
X0217125Y0378867D02*
X0093381Y0255124D01*
X0093310Y0255056D01*
X0093237Y0254991D01*
X0093161Y0254929D01*
X0093082Y0254869D01*
X0093002Y0254813D01*
X0092919Y0254760D01*
X0092835Y0254711D01*
X0092748Y0254664D01*
X0092660Y0254622D01*
X0092570Y0254582D01*
X0092478Y0254547D01*
X0092386Y0254514D01*
X0092292Y0254486D01*
X0092197Y0254461D01*
X0092101Y0254440D01*
X0092004Y0254423D01*
X0091907Y0254409D01*
X0091809Y0254400D01*
X0091711Y0254394D01*
X0091613Y0254392D01*
X0091515Y0254394D01*
X0091417Y0254400D01*
X0091319Y0254409D01*
X0091222Y0254423D01*
X0091125Y0254440D01*
X0091029Y0254461D01*
X0090934Y0254486D01*
X0090840Y0254514D01*
X0090748Y0254547D01*
X0090656Y0254582D01*
X0090566Y0254622D01*
X0090478Y0254664D01*
X0090391Y0254711D01*
X0090307Y0254760D01*
X0090224Y0254813D01*
X0090144Y0254869D01*
X0090065Y0254929D01*
X0089989Y0254991D01*
X0089916Y0255056D01*
X0089845Y0255124D01*
X0086293Y0329933D02*
X0061695Y0329933D01*
X0061695Y0343555D01*
X0086293Y0343555D01*
X0086293Y0329933D01*
X0086244Y0364648D02*
X0089244Y0364648D01*
X0089244Y0376048D01*
X0086244Y0376048D01*
X0086244Y0364648D01*
X0217125Y0378867D02*
X0217193Y0378938D01*
X0217258Y0379011D01*
X0217320Y0379087D01*
X0217380Y0379166D01*
X0217436Y0379246D01*
X0217489Y0379329D01*
X0217538Y0379413D01*
X0217585Y0379500D01*
X0217627Y0379588D01*
X0217667Y0379678D01*
X0217702Y0379770D01*
X0217735Y0379862D01*
X0217763Y0379956D01*
X0217788Y0380051D01*
X0217809Y0380147D01*
X0217826Y0380244D01*
X0217840Y0380341D01*
X0217849Y0380439D01*
X0217855Y0380537D01*
X0217857Y0380635D01*
X0217855Y0380733D01*
X0217849Y0380831D01*
X0217840Y0380929D01*
X0217826Y0381026D01*
X0217809Y0381123D01*
X0217788Y0381219D01*
X0217763Y0381314D01*
X0217735Y0381408D01*
X0217702Y0381500D01*
X0217667Y0381592D01*
X0217627Y0381682D01*
X0217585Y0381770D01*
X0217538Y0381857D01*
X0217489Y0381941D01*
X0217436Y0382024D01*
X0217380Y0382104D01*
X0217320Y0382183D01*
X0217258Y0382259D01*
X0217193Y0382332D01*
X0217125Y0382403D01*
X0219246Y0382403D02*
X0219178Y0382332D01*
X0219113Y0382259D01*
X0219051Y0382183D01*
X0218991Y0382104D01*
X0218935Y0382024D01*
X0218882Y0381941D01*
X0218833Y0381857D01*
X0218786Y0381770D01*
X0218744Y0381682D01*
X0218704Y0381592D01*
X0218669Y0381500D01*
X0218636Y0381408D01*
X0218608Y0381314D01*
X0218583Y0381219D01*
X0218562Y0381123D01*
X0218545Y0381026D01*
X0218531Y0380929D01*
X0218522Y0380831D01*
X0218516Y0380733D01*
X0218514Y0380635D01*
X0218516Y0380537D01*
X0218522Y0380439D01*
X0218531Y0380341D01*
X0218545Y0380244D01*
X0218562Y0380147D01*
X0218583Y0380051D01*
X0218608Y0379956D01*
X0218636Y0379862D01*
X0218669Y0379770D01*
X0218704Y0379678D01*
X0218744Y0379588D01*
X0218786Y0379500D01*
X0218833Y0379413D01*
X0218882Y0379329D01*
X0218935Y0379246D01*
X0218991Y0379166D01*
X0219051Y0379087D01*
X0219113Y0379011D01*
X0219178Y0378938D01*
X0219246Y0378867D01*
X0342989Y0255124D02*
X0343060Y0255056D01*
X0343133Y0254991D01*
X0343209Y0254929D01*
X0343288Y0254869D01*
X0343368Y0254813D01*
X0343451Y0254760D01*
X0343535Y0254711D01*
X0343622Y0254664D01*
X0343710Y0254622D01*
X0343800Y0254582D01*
X0343892Y0254547D01*
X0343984Y0254514D01*
X0344078Y0254486D01*
X0344173Y0254461D01*
X0344269Y0254440D01*
X0344366Y0254423D01*
X0344463Y0254409D01*
X0344561Y0254400D01*
X0344659Y0254394D01*
X0344757Y0254392D01*
X0344855Y0254394D01*
X0344953Y0254400D01*
X0345051Y0254409D01*
X0345148Y0254423D01*
X0345245Y0254440D01*
X0345341Y0254461D01*
X0345436Y0254486D01*
X0345530Y0254514D01*
X0345622Y0254547D01*
X0345714Y0254582D01*
X0345804Y0254622D01*
X0345892Y0254664D01*
X0345979Y0254711D01*
X0346063Y0254760D01*
X0346146Y0254813D01*
X0346226Y0254869D01*
X0346305Y0254929D01*
X0346381Y0254991D01*
X0346454Y0255056D01*
X0346525Y0255124D01*
X0346525Y0253003D02*
X0346454Y0253071D01*
X0346381Y0253136D01*
X0346305Y0253198D01*
X0346226Y0253258D01*
X0346146Y0253314D01*
X0346063Y0253367D01*
X0345979Y0253416D01*
X0345892Y0253463D01*
X0345804Y0253505D01*
X0345714Y0253545D01*
X0345622Y0253580D01*
X0345530Y0253613D01*
X0345436Y0253641D01*
X0345341Y0253666D01*
X0345245Y0253687D01*
X0345148Y0253704D01*
X0345051Y0253718D01*
X0344953Y0253727D01*
X0344855Y0253733D01*
X0344757Y0253735D01*
X0344659Y0253733D01*
X0344561Y0253727D01*
X0344463Y0253718D01*
X0344366Y0253704D01*
X0344269Y0253687D01*
X0344173Y0253666D01*
X0344078Y0253641D01*
X0343984Y0253613D01*
X0343892Y0253580D01*
X0343800Y0253545D01*
X0343710Y0253505D01*
X0343622Y0253463D01*
X0343535Y0253416D01*
X0343451Y0253367D01*
X0343368Y0253314D01*
X0343288Y0253258D01*
X0343209Y0253198D01*
X0343133Y0253136D01*
X0343060Y0253071D01*
X0342989Y0253003D01*
X0219246Y0129259D02*
X0219178Y0129188D01*
X0219113Y0129115D01*
X0219051Y0129039D01*
X0218991Y0128960D01*
X0218935Y0128880D01*
X0218882Y0128797D01*
X0218833Y0128713D01*
X0218786Y0128626D01*
X0218744Y0128538D01*
X0218704Y0128448D01*
X0218669Y0128356D01*
X0218636Y0128264D01*
X0218608Y0128170D01*
X0218583Y0128075D01*
X0218562Y0127979D01*
X0218545Y0127882D01*
X0218531Y0127785D01*
X0218522Y0127687D01*
X0218516Y0127589D01*
X0218514Y0127491D01*
X0218516Y0127393D01*
X0218522Y0127295D01*
X0218531Y0127197D01*
X0218545Y0127100D01*
X0218562Y0127003D01*
X0218583Y0126907D01*
X0218608Y0126812D01*
X0218636Y0126718D01*
X0218669Y0126626D01*
X0218704Y0126534D01*
X0218744Y0126444D01*
X0218786Y0126356D01*
X0218833Y0126269D01*
X0218882Y0126185D01*
X0218935Y0126102D01*
X0218991Y0126022D01*
X0219051Y0125943D01*
X0219113Y0125867D01*
X0219178Y0125794D01*
X0219246Y0125723D01*
X0217125Y0125723D02*
X0217193Y0125794D01*
X0217258Y0125867D01*
X0217320Y0125943D01*
X0217380Y0126022D01*
X0217436Y0126102D01*
X0217489Y0126185D01*
X0217538Y0126269D01*
X0217585Y0126356D01*
X0217627Y0126444D01*
X0217667Y0126534D01*
X0217702Y0126626D01*
X0217735Y0126718D01*
X0217763Y0126812D01*
X0217788Y0126907D01*
X0217809Y0127003D01*
X0217826Y0127100D01*
X0217840Y0127197D01*
X0217849Y0127295D01*
X0217855Y0127393D01*
X0217857Y0127491D01*
X0217855Y0127589D01*
X0217849Y0127687D01*
X0217840Y0127785D01*
X0217826Y0127882D01*
X0217809Y0127979D01*
X0217788Y0128075D01*
X0217763Y0128170D01*
X0217735Y0128264D01*
X0217702Y0128356D01*
X0217667Y0128448D01*
X0217627Y0128538D01*
X0217585Y0128626D01*
X0217538Y0128713D01*
X0217489Y0128797D01*
X0217436Y0128880D01*
X0217380Y0128960D01*
X0217320Y0129039D01*
X0217258Y0129115D01*
X0217193Y0129188D01*
X0217125Y0129259D01*
X0100994Y0140798D02*
X0100994Y0144998D01*
X0100994Y0148998D01*
X0100994Y0153198D01*
X0100992Y0153274D01*
X0100986Y0153350D01*
X0100977Y0153425D01*
X0100963Y0153500D01*
X0100946Y0153574D01*
X0100925Y0153647D01*
X0100901Y0153719D01*
X0100872Y0153790D01*
X0100841Y0153859D01*
X0100806Y0153926D01*
X0100767Y0153991D01*
X0100725Y0154055D01*
X0100680Y0154116D01*
X0100632Y0154175D01*
X0100581Y0154231D01*
X0100527Y0154285D01*
X0100471Y0154336D01*
X0100412Y0154384D01*
X0100351Y0154429D01*
X0100287Y0154471D01*
X0100222Y0154510D01*
X0100155Y0154545D01*
X0100086Y0154576D01*
X0100015Y0154605D01*
X0099943Y0154629D01*
X0099870Y0154650D01*
X0099796Y0154667D01*
X0099721Y0154681D01*
X0099646Y0154690D01*
X0099570Y0154696D01*
X0099494Y0154698D01*
X0082494Y0154698D01*
X0082418Y0154696D01*
X0082342Y0154690D01*
X0082267Y0154681D01*
X0082192Y0154667D01*
X0082118Y0154650D01*
X0082045Y0154629D01*
X0081973Y0154605D01*
X0081902Y0154576D01*
X0081833Y0154545D01*
X0081766Y0154510D01*
X0081701Y0154471D01*
X0081637Y0154429D01*
X0081576Y0154384D01*
X0081517Y0154336D01*
X0081461Y0154285D01*
X0081407Y0154231D01*
X0081356Y0154175D01*
X0081308Y0154116D01*
X0081263Y0154055D01*
X0081221Y0153991D01*
X0081182Y0153926D01*
X0081147Y0153859D01*
X0081116Y0153790D01*
X0081087Y0153719D01*
X0081063Y0153647D01*
X0081042Y0153574D01*
X0081025Y0153500D01*
X0081011Y0153425D01*
X0081002Y0153350D01*
X0080996Y0153274D01*
X0080994Y0153198D01*
X0080994Y0140798D01*
X0080996Y0140722D01*
X0081002Y0140646D01*
X0081011Y0140571D01*
X0081025Y0140496D01*
X0081042Y0140422D01*
X0081063Y0140349D01*
X0081087Y0140277D01*
X0081116Y0140206D01*
X0081147Y0140137D01*
X0081182Y0140070D01*
X0081221Y0140005D01*
X0081263Y0139941D01*
X0081308Y0139880D01*
X0081356Y0139821D01*
X0081407Y0139765D01*
X0081461Y0139711D01*
X0081517Y0139660D01*
X0081576Y0139612D01*
X0081637Y0139567D01*
X0081701Y0139525D01*
X0081766Y0139486D01*
X0081833Y0139451D01*
X0081902Y0139420D01*
X0081973Y0139391D01*
X0082045Y0139367D01*
X0082118Y0139346D01*
X0082192Y0139329D01*
X0082267Y0139315D01*
X0082342Y0139306D01*
X0082418Y0139300D01*
X0082494Y0139298D01*
X0099494Y0139298D01*
X0099570Y0139300D01*
X0099646Y0139306D01*
X0099721Y0139315D01*
X0099796Y0139329D01*
X0099870Y0139346D01*
X0099943Y0139367D01*
X0100015Y0139391D01*
X0100086Y0139420D01*
X0100155Y0139451D01*
X0100222Y0139486D01*
X0100287Y0139525D01*
X0100351Y0139567D01*
X0100412Y0139612D01*
X0100471Y0139660D01*
X0100527Y0139711D01*
X0100581Y0139765D01*
X0100632Y0139821D01*
X0100680Y0139880D01*
X0100725Y0139941D01*
X0100767Y0140005D01*
X0100806Y0140070D01*
X0100841Y0140137D01*
X0100872Y0140206D01*
X0100901Y0140277D01*
X0100925Y0140349D01*
X0100946Y0140422D01*
X0100963Y0140496D01*
X0100977Y0140571D01*
X0100986Y0140646D01*
X0100992Y0140722D01*
X0100994Y0140798D01*
X0100994Y0144998D02*
X0100906Y0145000D01*
X0100817Y0145006D01*
X0100729Y0145016D01*
X0100642Y0145029D01*
X0100555Y0145047D01*
X0100469Y0145068D01*
X0100384Y0145093D01*
X0100301Y0145122D01*
X0100218Y0145155D01*
X0100138Y0145191D01*
X0100059Y0145230D01*
X0099981Y0145273D01*
X0099906Y0145320D01*
X0099833Y0145370D01*
X0099762Y0145423D01*
X0099693Y0145479D01*
X0099627Y0145538D01*
X0099564Y0145600D01*
X0099504Y0145664D01*
X0099446Y0145731D01*
X0099392Y0145801D01*
X0099340Y0145873D01*
X0099292Y0145947D01*
X0099247Y0146024D01*
X0099206Y0146102D01*
X0099168Y0146182D01*
X0099134Y0146263D01*
X0099103Y0146346D01*
X0099076Y0146431D01*
X0099053Y0146516D01*
X0099034Y0146602D01*
X0099018Y0146690D01*
X0099006Y0146777D01*
X0098998Y0146865D01*
X0098994Y0146954D01*
X0098994Y0147042D01*
X0098998Y0147131D01*
X0099006Y0147219D01*
X0099018Y0147306D01*
X0099034Y0147394D01*
X0099053Y0147480D01*
X0099076Y0147565D01*
X0099103Y0147650D01*
X0099134Y0147733D01*
X0099168Y0147814D01*
X0099206Y0147894D01*
X0099247Y0147972D01*
X0099292Y0148049D01*
X0099340Y0148123D01*
X0099392Y0148195D01*
X0099446Y0148265D01*
X0099504Y0148332D01*
X0099564Y0148396D01*
X0099627Y0148458D01*
X0099693Y0148517D01*
X0099762Y0148573D01*
X0099833Y0148626D01*
X0099906Y0148676D01*
X0099981Y0148723D01*
X0100059Y0148766D01*
X0100138Y0148805D01*
X0100218Y0148841D01*
X0100301Y0148874D01*
X0100384Y0148903D01*
X0100469Y0148928D01*
X0100555Y0148949D01*
X0100642Y0148967D01*
X0100729Y0148980D01*
X0100817Y0148990D01*
X0100906Y0148996D01*
X0100994Y0148998D01*
D16*
X0094811Y0424248D02*
X0086937Y0424248D01*
X0063315Y0424248D01*
X0055441Y0424248D01*
D17*
X0072744Y0368134D03*
D18*
X0330077Y0389409D03*
M02*
