G75*
%MOIN*%
%OFA0B0*%
%FSLAX25Y25*%
%IPPOS*%
%LPD*%
%AMOC8*
5,1,8,0,0,1.08239X$1,22.5*
%
%ADD10R,0.01981X0.07099*%
%ADD11R,0.07099X0.01981*%
%ADD12R,0.04737X0.05131*%
%ADD13R,0.07099X0.06706*%
%ADD14R,0.05131X0.04737*%
%ADD15C,0.06400*%
%ADD16C,0.01280*%
%ADD17R,0.04300X0.03900*%
%ADD18R,0.06706X0.06902*%
%ADD19R,0.02375X0.06115*%
%ADD20C,0.05950*%
%ADD21C,0.07591*%
%ADD22R,0.02572X0.03556*%
%ADD23C,0.13398*%
%ADD24C,0.06737*%
%ADD25R,0.06700X0.08700*%
%ADD26R,0.15800X0.08700*%
%ADD27R,0.10249X0.07887*%
%ADD28R,0.03400X0.08800*%
%ADD29R,0.01784X0.03457*%
%ADD30R,0.03457X0.01784*%
%ADD31R,0.07887X0.13398*%
%ADD32R,0.04343X0.06706*%
%ADD33R,0.06312X0.04737*%
%ADD34R,0.03950X0.03950*%
%ADD35C,0.08200*%
%ADD36C,0.05800*%
D10*
G36*
X0226544Y0198386D02*
X0225144Y0196986D01*
X0220126Y0202004D01*
X0221526Y0203404D01*
X0226544Y0198386D01*
G37*
G36*
X0227936Y0199778D02*
X0226536Y0198378D01*
X0221518Y0203396D01*
X0222918Y0204796D01*
X0227936Y0199778D01*
G37*
G36*
X0229328Y0201170D02*
X0227928Y0199770D01*
X0222910Y0204788D01*
X0224310Y0206188D01*
X0229328Y0201170D01*
G37*
G36*
X0230720Y0202562D02*
X0229320Y0201162D01*
X0224302Y0206180D01*
X0225702Y0207580D01*
X0230720Y0202562D01*
G37*
G36*
X0232112Y0203954D02*
X0230712Y0202554D01*
X0225694Y0207572D01*
X0227094Y0208972D01*
X0232112Y0203954D01*
G37*
G36*
X0233504Y0205346D02*
X0232104Y0203946D01*
X0227086Y0208964D01*
X0228486Y0210364D01*
X0233504Y0205346D01*
G37*
G36*
X0234896Y0206738D02*
X0233496Y0205338D01*
X0228478Y0210356D01*
X0229878Y0211756D01*
X0234896Y0206738D01*
G37*
G36*
X0236288Y0208130D02*
X0234888Y0206730D01*
X0229870Y0211748D01*
X0231270Y0213148D01*
X0236288Y0208130D01*
G37*
G36*
X0237680Y0209521D02*
X0236280Y0208121D01*
X0231262Y0213139D01*
X0232662Y0214539D01*
X0237680Y0209521D01*
G37*
G36*
X0239072Y0210913D02*
X0237672Y0209513D01*
X0232654Y0214531D01*
X0234054Y0215931D01*
X0239072Y0210913D01*
G37*
G36*
X0240464Y0212305D02*
X0239064Y0210905D01*
X0234046Y0215923D01*
X0235446Y0217323D01*
X0240464Y0212305D01*
G37*
G36*
X0241856Y0213697D02*
X0240456Y0212297D01*
X0235438Y0217315D01*
X0236838Y0218715D01*
X0241856Y0213697D01*
G37*
G36*
X0243248Y0215089D02*
X0241848Y0213689D01*
X0236830Y0218707D01*
X0238230Y0220107D01*
X0243248Y0215089D01*
G37*
G36*
X0244640Y0216481D02*
X0243240Y0215081D01*
X0238222Y0220099D01*
X0239622Y0221499D01*
X0244640Y0216481D01*
G37*
G36*
X0246032Y0217873D02*
X0244632Y0216473D01*
X0239614Y0221491D01*
X0241014Y0222891D01*
X0246032Y0217873D01*
G37*
G36*
X0247424Y0219265D02*
X0246024Y0217865D01*
X0241006Y0222883D01*
X0242406Y0224283D01*
X0247424Y0219265D01*
G37*
G36*
X0248816Y0220657D02*
X0247416Y0219257D01*
X0242398Y0224275D01*
X0243798Y0225675D01*
X0248816Y0220657D01*
G37*
G36*
X0250207Y0222049D02*
X0248807Y0220649D01*
X0243789Y0225667D01*
X0245189Y0227067D01*
X0250207Y0222049D01*
G37*
G36*
X0251599Y0223441D02*
X0250199Y0222041D01*
X0245181Y0227059D01*
X0246581Y0228459D01*
X0251599Y0223441D01*
G37*
G36*
X0252991Y0224833D02*
X0251591Y0223433D01*
X0246573Y0228451D01*
X0247973Y0229851D01*
X0252991Y0224833D01*
G37*
G36*
X0254383Y0226225D02*
X0252983Y0224825D01*
X0247965Y0229843D01*
X0249365Y0231243D01*
X0254383Y0226225D01*
G37*
G36*
X0255775Y0227617D02*
X0254375Y0226217D01*
X0249357Y0231235D01*
X0250757Y0232635D01*
X0255775Y0227617D01*
G37*
G36*
X0257167Y0229009D02*
X0255767Y0227609D01*
X0250749Y0232627D01*
X0252149Y0234027D01*
X0257167Y0229009D01*
G37*
G36*
X0258559Y0230401D02*
X0257159Y0229001D01*
X0252141Y0234019D01*
X0253541Y0235419D01*
X0258559Y0230401D01*
G37*
G36*
X0259951Y0231793D02*
X0258551Y0230393D01*
X0253533Y0235411D01*
X0254933Y0236811D01*
X0259951Y0231793D01*
G37*
G36*
X0261343Y0233185D02*
X0259943Y0231785D01*
X0254925Y0236803D01*
X0256325Y0238203D01*
X0261343Y0233185D01*
G37*
G36*
X0262735Y0234576D02*
X0261335Y0233176D01*
X0256317Y0238194D01*
X0257717Y0239594D01*
X0262735Y0234576D01*
G37*
G36*
X0264127Y0235968D02*
X0262727Y0234568D01*
X0257709Y0239586D01*
X0259109Y0240986D01*
X0264127Y0235968D01*
G37*
G36*
X0265519Y0237360D02*
X0264119Y0235960D01*
X0259101Y0240978D01*
X0260501Y0242378D01*
X0265519Y0237360D01*
G37*
G36*
X0266911Y0238752D02*
X0265511Y0237352D01*
X0260493Y0242370D01*
X0261893Y0243770D01*
X0266911Y0238752D01*
G37*
G36*
X0268303Y0240144D02*
X0266903Y0238744D01*
X0261885Y0243762D01*
X0263285Y0245162D01*
X0268303Y0240144D01*
G37*
G36*
X0269695Y0241536D02*
X0268295Y0240136D01*
X0263277Y0245154D01*
X0264677Y0246554D01*
X0269695Y0241536D01*
G37*
G36*
X0271087Y0242928D02*
X0269687Y0241528D01*
X0264669Y0246546D01*
X0266069Y0247946D01*
X0271087Y0242928D01*
G37*
G36*
X0272479Y0244320D02*
X0271079Y0242920D01*
X0266061Y0247938D01*
X0267461Y0249338D01*
X0272479Y0244320D01*
G37*
G36*
X0273870Y0245712D02*
X0272470Y0244312D01*
X0267452Y0249330D01*
X0268852Y0250730D01*
X0273870Y0245712D01*
G37*
G36*
X0275262Y0247104D02*
X0273862Y0245704D01*
X0268844Y0250722D01*
X0270244Y0252122D01*
X0275262Y0247104D01*
G37*
G36*
X0216244Y0306122D02*
X0214844Y0304722D01*
X0209826Y0309740D01*
X0211226Y0311140D01*
X0216244Y0306122D01*
G37*
G36*
X0214852Y0304730D02*
X0213452Y0303330D01*
X0208434Y0308348D01*
X0209834Y0309748D01*
X0214852Y0304730D01*
G37*
G36*
X0213460Y0303338D02*
X0212060Y0301938D01*
X0207042Y0306956D01*
X0208442Y0308356D01*
X0213460Y0303338D01*
G37*
G36*
X0212068Y0301946D02*
X0210668Y0300546D01*
X0205650Y0305564D01*
X0207050Y0306964D01*
X0212068Y0301946D01*
G37*
G36*
X0210676Y0300555D02*
X0209276Y0299155D01*
X0204258Y0304173D01*
X0205658Y0305573D01*
X0210676Y0300555D01*
G37*
G36*
X0209284Y0299163D02*
X0207884Y0297763D01*
X0202866Y0302781D01*
X0204266Y0304181D01*
X0209284Y0299163D01*
G37*
G36*
X0207892Y0297771D02*
X0206492Y0296371D01*
X0201474Y0301389D01*
X0202874Y0302789D01*
X0207892Y0297771D01*
G37*
G36*
X0206500Y0296379D02*
X0205100Y0294979D01*
X0200082Y0299997D01*
X0201482Y0301397D01*
X0206500Y0296379D01*
G37*
G36*
X0205109Y0294987D02*
X0203709Y0293587D01*
X0198691Y0298605D01*
X0200091Y0300005D01*
X0205109Y0294987D01*
G37*
G36*
X0203717Y0293595D02*
X0202317Y0292195D01*
X0197299Y0297213D01*
X0198699Y0298613D01*
X0203717Y0293595D01*
G37*
G36*
X0202325Y0292203D02*
X0200925Y0290803D01*
X0195907Y0295821D01*
X0197307Y0297221D01*
X0202325Y0292203D01*
G37*
G36*
X0200933Y0290811D02*
X0199533Y0289411D01*
X0194515Y0294429D01*
X0195915Y0295829D01*
X0200933Y0290811D01*
G37*
G36*
X0199541Y0289419D02*
X0198141Y0288019D01*
X0193123Y0293037D01*
X0194523Y0294437D01*
X0199541Y0289419D01*
G37*
G36*
X0198149Y0288027D02*
X0196749Y0286627D01*
X0191731Y0291645D01*
X0193131Y0293045D01*
X0198149Y0288027D01*
G37*
G36*
X0196757Y0286635D02*
X0195357Y0285235D01*
X0190339Y0290253D01*
X0191739Y0291653D01*
X0196757Y0286635D01*
G37*
G36*
X0195365Y0285243D02*
X0193965Y0283843D01*
X0188947Y0288861D01*
X0190347Y0290261D01*
X0195365Y0285243D01*
G37*
G36*
X0193973Y0283851D02*
X0192573Y0282451D01*
X0187555Y0287469D01*
X0188955Y0288869D01*
X0193973Y0283851D01*
G37*
G36*
X0192581Y0282459D02*
X0191181Y0281059D01*
X0186163Y0286077D01*
X0187563Y0287477D01*
X0192581Y0282459D01*
G37*
G36*
X0191189Y0281067D02*
X0189789Y0279667D01*
X0184771Y0284685D01*
X0186171Y0286085D01*
X0191189Y0281067D01*
G37*
G36*
X0189797Y0279675D02*
X0188397Y0278275D01*
X0183379Y0283293D01*
X0184779Y0284693D01*
X0189797Y0279675D01*
G37*
G36*
X0188405Y0278283D02*
X0187005Y0276883D01*
X0181987Y0281901D01*
X0183387Y0283301D01*
X0188405Y0278283D01*
G37*
G36*
X0187013Y0276892D02*
X0185613Y0275492D01*
X0180595Y0280510D01*
X0181995Y0281910D01*
X0187013Y0276892D01*
G37*
G36*
X0185621Y0275500D02*
X0184221Y0274100D01*
X0179203Y0279118D01*
X0180603Y0280518D01*
X0185621Y0275500D01*
G37*
G36*
X0184229Y0274108D02*
X0182829Y0272708D01*
X0177811Y0277726D01*
X0179211Y0279126D01*
X0184229Y0274108D01*
G37*
G36*
X0182837Y0272716D02*
X0181437Y0271316D01*
X0176419Y0276334D01*
X0177819Y0277734D01*
X0182837Y0272716D01*
G37*
G36*
X0181446Y0271324D02*
X0180046Y0269924D01*
X0175028Y0274942D01*
X0176428Y0276342D01*
X0181446Y0271324D01*
G37*
G36*
X0180054Y0269932D02*
X0178654Y0268532D01*
X0173636Y0273550D01*
X0175036Y0274950D01*
X0180054Y0269932D01*
G37*
G36*
X0178662Y0268540D02*
X0177262Y0267140D01*
X0172244Y0272158D01*
X0173644Y0273558D01*
X0178662Y0268540D01*
G37*
G36*
X0177270Y0267148D02*
X0175870Y0265748D01*
X0170852Y0270766D01*
X0172252Y0272166D01*
X0177270Y0267148D01*
G37*
G36*
X0175878Y0265756D02*
X0174478Y0264356D01*
X0169460Y0269374D01*
X0170860Y0270774D01*
X0175878Y0265756D01*
G37*
G36*
X0174486Y0264364D02*
X0173086Y0262964D01*
X0168068Y0267982D01*
X0169468Y0269382D01*
X0174486Y0264364D01*
G37*
G36*
X0173094Y0262972D02*
X0171694Y0261572D01*
X0166676Y0266590D01*
X0168076Y0267990D01*
X0173094Y0262972D01*
G37*
G36*
X0171702Y0261580D02*
X0170302Y0260180D01*
X0165284Y0265198D01*
X0166684Y0266598D01*
X0171702Y0261580D01*
G37*
G36*
X0170310Y0260188D02*
X0168910Y0258788D01*
X0163892Y0263806D01*
X0165292Y0265206D01*
X0170310Y0260188D01*
G37*
G36*
X0168918Y0258796D02*
X0167518Y0257396D01*
X0162500Y0262414D01*
X0163900Y0263814D01*
X0168918Y0258796D01*
G37*
G36*
X0167526Y0257404D02*
X0166126Y0256004D01*
X0161108Y0261022D01*
X0162508Y0262422D01*
X0167526Y0257404D01*
G37*
D11*
G36*
X0167526Y0250722D02*
X0162508Y0245704D01*
X0161108Y0247104D01*
X0166126Y0252122D01*
X0167526Y0250722D01*
G37*
G36*
X0168918Y0249330D02*
X0163900Y0244312D01*
X0162500Y0245712D01*
X0167518Y0250730D01*
X0168918Y0249330D01*
G37*
G36*
X0170310Y0247938D02*
X0165292Y0242920D01*
X0163892Y0244320D01*
X0168910Y0249338D01*
X0170310Y0247938D01*
G37*
G36*
X0171702Y0246546D02*
X0166684Y0241528D01*
X0165284Y0242928D01*
X0170302Y0247946D01*
X0171702Y0246546D01*
G37*
G36*
X0173094Y0245154D02*
X0168076Y0240136D01*
X0166676Y0241536D01*
X0171694Y0246554D01*
X0173094Y0245154D01*
G37*
G36*
X0174486Y0243762D02*
X0169468Y0238744D01*
X0168068Y0240144D01*
X0173086Y0245162D01*
X0174486Y0243762D01*
G37*
G36*
X0175878Y0242370D02*
X0170860Y0237352D01*
X0169460Y0238752D01*
X0174478Y0243770D01*
X0175878Y0242370D01*
G37*
G36*
X0177270Y0240978D02*
X0172252Y0235960D01*
X0170852Y0237360D01*
X0175870Y0242378D01*
X0177270Y0240978D01*
G37*
G36*
X0178662Y0239586D02*
X0173644Y0234568D01*
X0172244Y0235968D01*
X0177262Y0240986D01*
X0178662Y0239586D01*
G37*
G36*
X0180054Y0238194D02*
X0175036Y0233176D01*
X0173636Y0234576D01*
X0178654Y0239594D01*
X0180054Y0238194D01*
G37*
G36*
X0181446Y0236803D02*
X0176428Y0231785D01*
X0175028Y0233185D01*
X0180046Y0238203D01*
X0181446Y0236803D01*
G37*
G36*
X0182837Y0235411D02*
X0177819Y0230393D01*
X0176419Y0231793D01*
X0181437Y0236811D01*
X0182837Y0235411D01*
G37*
G36*
X0184229Y0234019D02*
X0179211Y0229001D01*
X0177811Y0230401D01*
X0182829Y0235419D01*
X0184229Y0234019D01*
G37*
G36*
X0185621Y0232627D02*
X0180603Y0227609D01*
X0179203Y0229009D01*
X0184221Y0234027D01*
X0185621Y0232627D01*
G37*
G36*
X0187013Y0231235D02*
X0181995Y0226217D01*
X0180595Y0227617D01*
X0185613Y0232635D01*
X0187013Y0231235D01*
G37*
G36*
X0188405Y0229843D02*
X0183387Y0224825D01*
X0181987Y0226225D01*
X0187005Y0231243D01*
X0188405Y0229843D01*
G37*
G36*
X0189797Y0228451D02*
X0184779Y0223433D01*
X0183379Y0224833D01*
X0188397Y0229851D01*
X0189797Y0228451D01*
G37*
G36*
X0191189Y0227059D02*
X0186171Y0222041D01*
X0184771Y0223441D01*
X0189789Y0228459D01*
X0191189Y0227059D01*
G37*
G36*
X0192581Y0225667D02*
X0187563Y0220649D01*
X0186163Y0222049D01*
X0191181Y0227067D01*
X0192581Y0225667D01*
G37*
G36*
X0193973Y0224275D02*
X0188955Y0219257D01*
X0187555Y0220657D01*
X0192573Y0225675D01*
X0193973Y0224275D01*
G37*
G36*
X0195365Y0222883D02*
X0190347Y0217865D01*
X0188947Y0219265D01*
X0193965Y0224283D01*
X0195365Y0222883D01*
G37*
G36*
X0196757Y0221491D02*
X0191739Y0216473D01*
X0190339Y0217873D01*
X0195357Y0222891D01*
X0196757Y0221491D01*
G37*
G36*
X0198149Y0220099D02*
X0193131Y0215081D01*
X0191731Y0216481D01*
X0196749Y0221499D01*
X0198149Y0220099D01*
G37*
G36*
X0199541Y0218707D02*
X0194523Y0213689D01*
X0193123Y0215089D01*
X0198141Y0220107D01*
X0199541Y0218707D01*
G37*
G36*
X0200933Y0217315D02*
X0195915Y0212297D01*
X0194515Y0213697D01*
X0199533Y0218715D01*
X0200933Y0217315D01*
G37*
G36*
X0202325Y0215923D02*
X0197307Y0210905D01*
X0195907Y0212305D01*
X0200925Y0217323D01*
X0202325Y0215923D01*
G37*
G36*
X0203717Y0214531D02*
X0198699Y0209513D01*
X0197299Y0210913D01*
X0202317Y0215931D01*
X0203717Y0214531D01*
G37*
G36*
X0205109Y0213139D02*
X0200091Y0208121D01*
X0198691Y0209521D01*
X0203709Y0214539D01*
X0205109Y0213139D01*
G37*
G36*
X0206500Y0211748D02*
X0201482Y0206730D01*
X0200082Y0208130D01*
X0205100Y0213148D01*
X0206500Y0211748D01*
G37*
G36*
X0207892Y0210356D02*
X0202874Y0205338D01*
X0201474Y0206738D01*
X0206492Y0211756D01*
X0207892Y0210356D01*
G37*
G36*
X0209284Y0208964D02*
X0204266Y0203946D01*
X0202866Y0205346D01*
X0207884Y0210364D01*
X0209284Y0208964D01*
G37*
G36*
X0210676Y0207572D02*
X0205658Y0202554D01*
X0204258Y0203954D01*
X0209276Y0208972D01*
X0210676Y0207572D01*
G37*
G36*
X0212068Y0206180D02*
X0207050Y0201162D01*
X0205650Y0202562D01*
X0210668Y0207580D01*
X0212068Y0206180D01*
G37*
G36*
X0213460Y0204788D02*
X0208442Y0199770D01*
X0207042Y0201170D01*
X0212060Y0206188D01*
X0213460Y0204788D01*
G37*
G36*
X0214852Y0203396D02*
X0209834Y0198378D01*
X0208434Y0199778D01*
X0213452Y0204796D01*
X0214852Y0203396D01*
G37*
G36*
X0216244Y0202004D02*
X0211226Y0196986D01*
X0209826Y0198386D01*
X0214844Y0203404D01*
X0216244Y0202004D01*
G37*
G36*
X0273870Y0262414D02*
X0268852Y0257396D01*
X0267452Y0258796D01*
X0272470Y0263814D01*
X0273870Y0262414D01*
G37*
G36*
X0275262Y0261022D02*
X0270244Y0256004D01*
X0268844Y0257404D01*
X0273862Y0262422D01*
X0275262Y0261022D01*
G37*
G36*
X0272479Y0263806D02*
X0267461Y0258788D01*
X0266061Y0260188D01*
X0271079Y0265206D01*
X0272479Y0263806D01*
G37*
G36*
X0271087Y0265198D02*
X0266069Y0260180D01*
X0264669Y0261580D01*
X0269687Y0266598D01*
X0271087Y0265198D01*
G37*
G36*
X0269695Y0266590D02*
X0264677Y0261572D01*
X0263277Y0262972D01*
X0268295Y0267990D01*
X0269695Y0266590D01*
G37*
G36*
X0268303Y0267982D02*
X0263285Y0262964D01*
X0261885Y0264364D01*
X0266903Y0269382D01*
X0268303Y0267982D01*
G37*
G36*
X0266911Y0269374D02*
X0261893Y0264356D01*
X0260493Y0265756D01*
X0265511Y0270774D01*
X0266911Y0269374D01*
G37*
G36*
X0265519Y0270766D02*
X0260501Y0265748D01*
X0259101Y0267148D01*
X0264119Y0272166D01*
X0265519Y0270766D01*
G37*
G36*
X0264127Y0272158D02*
X0259109Y0267140D01*
X0257709Y0268540D01*
X0262727Y0273558D01*
X0264127Y0272158D01*
G37*
G36*
X0262735Y0273550D02*
X0257717Y0268532D01*
X0256317Y0269932D01*
X0261335Y0274950D01*
X0262735Y0273550D01*
G37*
G36*
X0261343Y0274942D02*
X0256325Y0269924D01*
X0254925Y0271324D01*
X0259943Y0276342D01*
X0261343Y0274942D01*
G37*
G36*
X0259951Y0276334D02*
X0254933Y0271316D01*
X0253533Y0272716D01*
X0258551Y0277734D01*
X0259951Y0276334D01*
G37*
G36*
X0258559Y0277726D02*
X0253541Y0272708D01*
X0252141Y0274108D01*
X0257159Y0279126D01*
X0258559Y0277726D01*
G37*
G36*
X0257167Y0279118D02*
X0252149Y0274100D01*
X0250749Y0275500D01*
X0255767Y0280518D01*
X0257167Y0279118D01*
G37*
G36*
X0255775Y0280510D02*
X0250757Y0275492D01*
X0249357Y0276892D01*
X0254375Y0281910D01*
X0255775Y0280510D01*
G37*
G36*
X0254383Y0281901D02*
X0249365Y0276883D01*
X0247965Y0278283D01*
X0252983Y0283301D01*
X0254383Y0281901D01*
G37*
G36*
X0252991Y0283293D02*
X0247973Y0278275D01*
X0246573Y0279675D01*
X0251591Y0284693D01*
X0252991Y0283293D01*
G37*
G36*
X0251599Y0284685D02*
X0246581Y0279667D01*
X0245181Y0281067D01*
X0250199Y0286085D01*
X0251599Y0284685D01*
G37*
G36*
X0250207Y0286077D02*
X0245189Y0281059D01*
X0243789Y0282459D01*
X0248807Y0287477D01*
X0250207Y0286077D01*
G37*
G36*
X0248816Y0287469D02*
X0243798Y0282451D01*
X0242398Y0283851D01*
X0247416Y0288869D01*
X0248816Y0287469D01*
G37*
G36*
X0247424Y0288861D02*
X0242406Y0283843D01*
X0241006Y0285243D01*
X0246024Y0290261D01*
X0247424Y0288861D01*
G37*
G36*
X0246032Y0290253D02*
X0241014Y0285235D01*
X0239614Y0286635D01*
X0244632Y0291653D01*
X0246032Y0290253D01*
G37*
G36*
X0244640Y0291645D02*
X0239622Y0286627D01*
X0238222Y0288027D01*
X0243240Y0293045D01*
X0244640Y0291645D01*
G37*
G36*
X0243248Y0293037D02*
X0238230Y0288019D01*
X0236830Y0289419D01*
X0241848Y0294437D01*
X0243248Y0293037D01*
G37*
G36*
X0241856Y0294429D02*
X0236838Y0289411D01*
X0235438Y0290811D01*
X0240456Y0295829D01*
X0241856Y0294429D01*
G37*
G36*
X0240464Y0295821D02*
X0235446Y0290803D01*
X0234046Y0292203D01*
X0239064Y0297221D01*
X0240464Y0295821D01*
G37*
G36*
X0239072Y0297213D02*
X0234054Y0292195D01*
X0232654Y0293595D01*
X0237672Y0298613D01*
X0239072Y0297213D01*
G37*
G36*
X0237680Y0298605D02*
X0232662Y0293587D01*
X0231262Y0294987D01*
X0236280Y0300005D01*
X0237680Y0298605D01*
G37*
G36*
X0236288Y0299997D02*
X0231270Y0294979D01*
X0229870Y0296379D01*
X0234888Y0301397D01*
X0236288Y0299997D01*
G37*
G36*
X0234896Y0301389D02*
X0229878Y0296371D01*
X0228478Y0297771D01*
X0233496Y0302789D01*
X0234896Y0301389D01*
G37*
G36*
X0233504Y0302781D02*
X0228486Y0297763D01*
X0227086Y0299163D01*
X0232104Y0304181D01*
X0233504Y0302781D01*
G37*
G36*
X0232112Y0304173D02*
X0227094Y0299155D01*
X0225694Y0300555D01*
X0230712Y0305573D01*
X0232112Y0304173D01*
G37*
G36*
X0230720Y0305564D02*
X0225702Y0300546D01*
X0224302Y0301946D01*
X0229320Y0306964D01*
X0230720Y0305564D01*
G37*
G36*
X0229328Y0306956D02*
X0224310Y0301938D01*
X0222910Y0303338D01*
X0227928Y0308356D01*
X0229328Y0306956D01*
G37*
G36*
X0227936Y0308348D02*
X0222918Y0303330D01*
X0221518Y0304730D01*
X0226536Y0309748D01*
X0227936Y0308348D01*
G37*
G36*
X0226544Y0309740D02*
X0221526Y0304722D01*
X0220126Y0306122D01*
X0225144Y0311140D01*
X0226544Y0309740D01*
G37*
D12*
X0165841Y0396748D03*
X0159148Y0396748D03*
X0146091Y0364248D03*
X0139398Y0364248D03*
X0131091Y0364248D03*
X0124398Y0364248D03*
X0125841Y0396748D03*
X0119148Y0396748D03*
X0062744Y0368844D03*
X0062744Y0362152D03*
X0087244Y0324844D03*
X0087244Y0318152D03*
X0087398Y0118248D03*
X0094091Y0118248D03*
G36*
X0187396Y0115056D02*
X0184047Y0118405D01*
X0187674Y0122032D01*
X0191023Y0118683D01*
X0187396Y0115056D01*
G37*
G36*
X0192128Y0110323D02*
X0188779Y0113672D01*
X0192406Y0117299D01*
X0195755Y0113950D01*
X0192128Y0110323D01*
G37*
X0338994Y0361152D03*
X0338994Y0367844D03*
X0326494Y0376452D03*
X0321494Y0376452D03*
X0321494Y0383144D03*
X0326494Y0383144D03*
X0316494Y0383144D03*
X0316494Y0376452D03*
X0327398Y0395498D03*
X0334091Y0395498D03*
X0339898Y0395498D03*
X0346591Y0395498D03*
D13*
G36*
X0327487Y0199333D02*
X0332505Y0194315D01*
X0327763Y0189573D01*
X0322745Y0194591D01*
X0327487Y0199333D01*
G37*
G36*
X0321360Y0183170D02*
X0316342Y0188188D01*
X0321084Y0192930D01*
X0326102Y0187912D01*
X0321360Y0183170D01*
G37*
G36*
X0328319Y0176211D02*
X0323301Y0181229D01*
X0328043Y0185971D01*
X0333061Y0180953D01*
X0328319Y0176211D01*
G37*
G36*
X0334446Y0192373D02*
X0339464Y0187355D01*
X0334722Y0182613D01*
X0329704Y0187631D01*
X0334446Y0192373D01*
G37*
D14*
G36*
X0318524Y0181519D02*
X0322151Y0177892D01*
X0318802Y0174543D01*
X0315175Y0178170D01*
X0318524Y0181519D01*
G37*
G36*
X0313791Y0186252D02*
X0317418Y0182625D01*
X0314069Y0179276D01*
X0310442Y0182903D01*
X0313791Y0186252D01*
G37*
X0337744Y0347402D03*
X0337744Y0354094D03*
X0333994Y0361152D03*
X0333994Y0367844D03*
X0328494Y0367844D03*
X0328494Y0361152D03*
X0347744Y0354094D03*
X0347744Y0347402D03*
X0356494Y0366152D03*
X0356494Y0372844D03*
X0193744Y0396402D03*
X0187744Y0396402D03*
X0181744Y0396402D03*
X0175744Y0396402D03*
X0175744Y0403094D03*
X0181744Y0403094D03*
X0187744Y0403094D03*
X0193744Y0403094D03*
D15*
X0233034Y0389121D03*
X0353243Y0239214D03*
X0203336Y0119006D03*
X0083128Y0268912D03*
D16*
X0092118Y0262261D02*
X0092758Y0262901D01*
X0092758Y0260781D01*
X0091259Y0259282D01*
X0089139Y0259282D01*
X0087640Y0260781D01*
X0087640Y0262901D01*
X0089139Y0264400D01*
X0091259Y0264400D01*
X0092758Y0262901D01*
X0091798Y0262504D01*
X0091798Y0261178D01*
X0090862Y0260242D01*
X0089536Y0260242D01*
X0088600Y0261178D01*
X0088600Y0262504D01*
X0089536Y0263440D01*
X0090862Y0263440D01*
X0091798Y0262504D01*
X0090838Y0262106D01*
X0090838Y0261576D01*
X0090464Y0261202D01*
X0089934Y0261202D01*
X0089560Y0261576D01*
X0089560Y0262106D01*
X0089934Y0262480D01*
X0090464Y0262480D01*
X0090838Y0262106D01*
X0099189Y0269332D02*
X0099829Y0269972D01*
X0099829Y0267852D01*
X0098330Y0266353D01*
X0096210Y0266353D01*
X0094711Y0267852D01*
X0094711Y0269972D01*
X0096210Y0271471D01*
X0098330Y0271471D01*
X0099829Y0269972D01*
X0098869Y0269575D01*
X0098869Y0268249D01*
X0097933Y0267313D01*
X0096607Y0267313D01*
X0095671Y0268249D01*
X0095671Y0269575D01*
X0096607Y0270511D01*
X0097933Y0270511D01*
X0098869Y0269575D01*
X0097909Y0269177D01*
X0097909Y0268647D01*
X0097535Y0268273D01*
X0097005Y0268273D01*
X0096631Y0268647D01*
X0096631Y0269177D01*
X0097005Y0269551D01*
X0097535Y0269551D01*
X0097909Y0269177D01*
X0106260Y0276403D02*
X0106900Y0277043D01*
X0106900Y0274923D01*
X0105401Y0273424D01*
X0103281Y0273424D01*
X0101782Y0274923D01*
X0101782Y0277043D01*
X0103281Y0278542D01*
X0105401Y0278542D01*
X0106900Y0277043D01*
X0105940Y0276646D01*
X0105940Y0275320D01*
X0105004Y0274384D01*
X0103678Y0274384D01*
X0102742Y0275320D01*
X0102742Y0276646D01*
X0103678Y0277582D01*
X0105004Y0277582D01*
X0105940Y0276646D01*
X0104980Y0276248D01*
X0104980Y0275718D01*
X0104606Y0275344D01*
X0104076Y0275344D01*
X0103702Y0275718D01*
X0103702Y0276248D01*
X0104076Y0276622D01*
X0104606Y0276622D01*
X0104980Y0276248D01*
X0113331Y0283475D02*
X0113971Y0284115D01*
X0113971Y0281995D01*
X0112472Y0280496D01*
X0110352Y0280496D01*
X0108853Y0281995D01*
X0108853Y0284115D01*
X0110352Y0285614D01*
X0112472Y0285614D01*
X0113971Y0284115D01*
X0113011Y0283718D01*
X0113011Y0282392D01*
X0112075Y0281456D01*
X0110749Y0281456D01*
X0109813Y0282392D01*
X0109813Y0283718D01*
X0110749Y0284654D01*
X0112075Y0284654D01*
X0113011Y0283718D01*
X0112051Y0283320D01*
X0112051Y0282790D01*
X0111677Y0282416D01*
X0111147Y0282416D01*
X0110773Y0282790D01*
X0110773Y0283320D01*
X0111147Y0283694D01*
X0111677Y0283694D01*
X0112051Y0283320D01*
X0120402Y0290546D02*
X0121042Y0291186D01*
X0121042Y0289066D01*
X0119543Y0287567D01*
X0117423Y0287567D01*
X0115924Y0289066D01*
X0115924Y0291186D01*
X0117423Y0292685D01*
X0119543Y0292685D01*
X0121042Y0291186D01*
X0120082Y0290789D01*
X0120082Y0289463D01*
X0119146Y0288527D01*
X0117820Y0288527D01*
X0116884Y0289463D01*
X0116884Y0290789D01*
X0117820Y0291725D01*
X0119146Y0291725D01*
X0120082Y0290789D01*
X0119122Y0290391D01*
X0119122Y0289861D01*
X0118748Y0289487D01*
X0118218Y0289487D01*
X0117844Y0289861D01*
X0117844Y0290391D01*
X0118218Y0290765D01*
X0118748Y0290765D01*
X0119122Y0290391D01*
X0127473Y0297617D02*
X0128113Y0298257D01*
X0128113Y0296137D01*
X0126614Y0294638D01*
X0124494Y0294638D01*
X0122995Y0296137D01*
X0122995Y0298257D01*
X0124494Y0299756D01*
X0126614Y0299756D01*
X0128113Y0298257D01*
X0127153Y0297860D01*
X0127153Y0296534D01*
X0126217Y0295598D01*
X0124891Y0295598D01*
X0123955Y0296534D01*
X0123955Y0297860D01*
X0124891Y0298796D01*
X0126217Y0298796D01*
X0127153Y0297860D01*
X0126193Y0297462D01*
X0126193Y0296932D01*
X0125819Y0296558D01*
X0125289Y0296558D01*
X0124915Y0296932D01*
X0124915Y0297462D01*
X0125289Y0297836D01*
X0125819Y0297836D01*
X0126193Y0297462D01*
X0134544Y0304688D02*
X0135184Y0305328D01*
X0135184Y0303208D01*
X0133685Y0301709D01*
X0131565Y0301709D01*
X0130066Y0303208D01*
X0130066Y0305328D01*
X0131565Y0306827D01*
X0133685Y0306827D01*
X0135184Y0305328D01*
X0134224Y0304931D01*
X0134224Y0303605D01*
X0133288Y0302669D01*
X0131962Y0302669D01*
X0131026Y0303605D01*
X0131026Y0304931D01*
X0131962Y0305867D01*
X0133288Y0305867D01*
X0134224Y0304931D01*
X0133264Y0304533D01*
X0133264Y0304003D01*
X0132890Y0303629D01*
X0132360Y0303629D01*
X0131986Y0304003D01*
X0131986Y0304533D01*
X0132360Y0304907D01*
X0132890Y0304907D01*
X0133264Y0304533D01*
X0141615Y0311759D02*
X0142255Y0312399D01*
X0142255Y0310279D01*
X0140756Y0308780D01*
X0138636Y0308780D01*
X0137137Y0310279D01*
X0137137Y0312399D01*
X0138636Y0313898D01*
X0140756Y0313898D01*
X0142255Y0312399D01*
X0141295Y0312002D01*
X0141295Y0310676D01*
X0140359Y0309740D01*
X0139033Y0309740D01*
X0138097Y0310676D01*
X0138097Y0312002D01*
X0139033Y0312938D01*
X0140359Y0312938D01*
X0141295Y0312002D01*
X0140335Y0311604D01*
X0140335Y0311074D01*
X0139961Y0310700D01*
X0139431Y0310700D01*
X0139057Y0311074D01*
X0139057Y0311604D01*
X0139431Y0311978D01*
X0139961Y0311978D01*
X0140335Y0311604D01*
X0148686Y0318830D02*
X0149326Y0319470D01*
X0149326Y0317350D01*
X0147827Y0315851D01*
X0145707Y0315851D01*
X0144208Y0317350D01*
X0144208Y0319470D01*
X0145707Y0320969D01*
X0147827Y0320969D01*
X0149326Y0319470D01*
X0148366Y0319073D01*
X0148366Y0317747D01*
X0147430Y0316811D01*
X0146104Y0316811D01*
X0145168Y0317747D01*
X0145168Y0319073D01*
X0146104Y0320009D01*
X0147430Y0320009D01*
X0148366Y0319073D01*
X0147406Y0318675D01*
X0147406Y0318145D01*
X0147032Y0317771D01*
X0146502Y0317771D01*
X0146128Y0318145D01*
X0146128Y0318675D01*
X0146502Y0319049D01*
X0147032Y0319049D01*
X0147406Y0318675D01*
X0155758Y0325901D02*
X0156398Y0326541D01*
X0156398Y0324421D01*
X0154899Y0322922D01*
X0152779Y0322922D01*
X0151280Y0324421D01*
X0151280Y0326541D01*
X0152779Y0328040D01*
X0154899Y0328040D01*
X0156398Y0326541D01*
X0155438Y0326144D01*
X0155438Y0324818D01*
X0154502Y0323882D01*
X0153176Y0323882D01*
X0152240Y0324818D01*
X0152240Y0326144D01*
X0153176Y0327080D01*
X0154502Y0327080D01*
X0155438Y0326144D01*
X0154478Y0325746D01*
X0154478Y0325216D01*
X0154104Y0324842D01*
X0153574Y0324842D01*
X0153200Y0325216D01*
X0153200Y0325746D01*
X0153574Y0326120D01*
X0154104Y0326120D01*
X0154478Y0325746D01*
X0162829Y0332972D02*
X0163469Y0333612D01*
X0163469Y0331492D01*
X0161970Y0329993D01*
X0159850Y0329993D01*
X0158351Y0331492D01*
X0158351Y0333612D01*
X0159850Y0335111D01*
X0161970Y0335111D01*
X0163469Y0333612D01*
X0162509Y0333215D01*
X0162509Y0331889D01*
X0161573Y0330953D01*
X0160247Y0330953D01*
X0159311Y0331889D01*
X0159311Y0333215D01*
X0160247Y0334151D01*
X0161573Y0334151D01*
X0162509Y0333215D01*
X0161549Y0332817D01*
X0161549Y0332287D01*
X0161175Y0331913D01*
X0160645Y0331913D01*
X0160271Y0332287D01*
X0160271Y0332817D01*
X0160645Y0333191D01*
X0161175Y0333191D01*
X0161549Y0332817D01*
X0169900Y0340043D02*
X0170540Y0340683D01*
X0170540Y0338563D01*
X0169041Y0337064D01*
X0166921Y0337064D01*
X0165422Y0338563D01*
X0165422Y0340683D01*
X0166921Y0342182D01*
X0169041Y0342182D01*
X0170540Y0340683D01*
X0169580Y0340286D01*
X0169580Y0338960D01*
X0168644Y0338024D01*
X0167318Y0338024D01*
X0166382Y0338960D01*
X0166382Y0340286D01*
X0167318Y0341222D01*
X0168644Y0341222D01*
X0169580Y0340286D01*
X0168620Y0339888D01*
X0168620Y0339358D01*
X0168246Y0338984D01*
X0167716Y0338984D01*
X0167342Y0339358D01*
X0167342Y0339888D01*
X0167716Y0340262D01*
X0168246Y0340262D01*
X0168620Y0339888D01*
X0176971Y0347114D02*
X0177611Y0347754D01*
X0177611Y0345634D01*
X0176112Y0344135D01*
X0173992Y0344135D01*
X0172493Y0345634D01*
X0172493Y0347754D01*
X0173992Y0349253D01*
X0176112Y0349253D01*
X0177611Y0347754D01*
X0176651Y0347357D01*
X0176651Y0346031D01*
X0175715Y0345095D01*
X0174389Y0345095D01*
X0173453Y0346031D01*
X0173453Y0347357D01*
X0174389Y0348293D01*
X0175715Y0348293D01*
X0176651Y0347357D01*
X0175691Y0346959D01*
X0175691Y0346429D01*
X0175317Y0346055D01*
X0174787Y0346055D01*
X0174413Y0346429D01*
X0174413Y0346959D01*
X0174787Y0347333D01*
X0175317Y0347333D01*
X0175691Y0346959D01*
X0184042Y0354185D02*
X0184682Y0354825D01*
X0184682Y0352705D01*
X0183183Y0351206D01*
X0181063Y0351206D01*
X0179564Y0352705D01*
X0179564Y0354825D01*
X0181063Y0356324D01*
X0183183Y0356324D01*
X0184682Y0354825D01*
X0183722Y0354428D01*
X0183722Y0353102D01*
X0182786Y0352166D01*
X0181460Y0352166D01*
X0180524Y0353102D01*
X0180524Y0354428D01*
X0181460Y0355364D01*
X0182786Y0355364D01*
X0183722Y0354428D01*
X0182762Y0354030D01*
X0182762Y0353500D01*
X0182388Y0353126D01*
X0181858Y0353126D01*
X0181484Y0353500D01*
X0181484Y0354030D01*
X0181858Y0354404D01*
X0182388Y0354404D01*
X0182762Y0354030D01*
X0191113Y0361256D02*
X0191753Y0361896D01*
X0191753Y0359776D01*
X0190254Y0358277D01*
X0188134Y0358277D01*
X0186635Y0359776D01*
X0186635Y0361896D01*
X0188134Y0363395D01*
X0190254Y0363395D01*
X0191753Y0361896D01*
X0190793Y0361499D01*
X0190793Y0360173D01*
X0189857Y0359237D01*
X0188531Y0359237D01*
X0187595Y0360173D01*
X0187595Y0361499D01*
X0188531Y0362435D01*
X0189857Y0362435D01*
X0190793Y0361499D01*
X0189833Y0361101D01*
X0189833Y0360571D01*
X0189459Y0360197D01*
X0188929Y0360197D01*
X0188555Y0360571D01*
X0188555Y0361101D01*
X0188929Y0361475D01*
X0189459Y0361475D01*
X0189833Y0361101D01*
X0198184Y0368327D02*
X0198824Y0368967D01*
X0198824Y0366847D01*
X0197325Y0365348D01*
X0195205Y0365348D01*
X0193706Y0366847D01*
X0193706Y0368967D01*
X0195205Y0370466D01*
X0197325Y0370466D01*
X0198824Y0368967D01*
X0197864Y0368570D01*
X0197864Y0367244D01*
X0196928Y0366308D01*
X0195602Y0366308D01*
X0194666Y0367244D01*
X0194666Y0368570D01*
X0195602Y0369506D01*
X0196928Y0369506D01*
X0197864Y0368570D01*
X0196904Y0368172D01*
X0196904Y0367642D01*
X0196530Y0367268D01*
X0196000Y0367268D01*
X0195626Y0367642D01*
X0195626Y0368172D01*
X0196000Y0368546D01*
X0196530Y0368546D01*
X0196904Y0368172D01*
X0205255Y0375398D02*
X0205895Y0376038D01*
X0205895Y0373918D01*
X0204396Y0372419D01*
X0202276Y0372419D01*
X0200777Y0373918D01*
X0200777Y0376038D01*
X0202276Y0377537D01*
X0204396Y0377537D01*
X0205895Y0376038D01*
X0204935Y0375641D01*
X0204935Y0374315D01*
X0203999Y0373379D01*
X0202673Y0373379D01*
X0201737Y0374315D01*
X0201737Y0375641D01*
X0202673Y0376577D01*
X0203999Y0376577D01*
X0204935Y0375641D01*
X0203975Y0375243D01*
X0203975Y0374713D01*
X0203601Y0374339D01*
X0203071Y0374339D01*
X0202697Y0374713D01*
X0202697Y0375243D01*
X0203071Y0375617D01*
X0203601Y0375617D01*
X0203975Y0375243D01*
X0212326Y0382469D02*
X0212966Y0383109D01*
X0212966Y0380989D01*
X0211467Y0379490D01*
X0209347Y0379490D01*
X0207848Y0380989D01*
X0207848Y0383109D01*
X0209347Y0384608D01*
X0211467Y0384608D01*
X0212966Y0383109D01*
X0212006Y0382712D01*
X0212006Y0381386D01*
X0211070Y0380450D01*
X0209744Y0380450D01*
X0208808Y0381386D01*
X0208808Y0382712D01*
X0209744Y0383648D01*
X0211070Y0383648D01*
X0212006Y0382712D01*
X0211046Y0382314D01*
X0211046Y0381784D01*
X0210672Y0381410D01*
X0210142Y0381410D01*
X0209768Y0381784D01*
X0209768Y0382314D01*
X0210142Y0382688D01*
X0210672Y0382688D01*
X0211046Y0382314D01*
X0205255Y0389541D02*
X0205895Y0390181D01*
X0205895Y0388061D01*
X0204396Y0386562D01*
X0202276Y0386562D01*
X0200777Y0388061D01*
X0200777Y0390181D01*
X0202276Y0391680D01*
X0204396Y0391680D01*
X0205895Y0390181D01*
X0204935Y0389784D01*
X0204935Y0388458D01*
X0203999Y0387522D01*
X0202673Y0387522D01*
X0201737Y0388458D01*
X0201737Y0389784D01*
X0202673Y0390720D01*
X0203999Y0390720D01*
X0204935Y0389784D01*
X0203975Y0389386D01*
X0203975Y0388856D01*
X0203601Y0388482D01*
X0203071Y0388482D01*
X0202697Y0388856D01*
X0202697Y0389386D01*
X0203071Y0389760D01*
X0203601Y0389760D01*
X0203975Y0389386D01*
X0198184Y0382469D02*
X0198824Y0383109D01*
X0198824Y0380989D01*
X0197325Y0379490D01*
X0195205Y0379490D01*
X0193706Y0380989D01*
X0193706Y0383109D01*
X0195205Y0384608D01*
X0197325Y0384608D01*
X0198824Y0383109D01*
X0197864Y0382712D01*
X0197864Y0381386D01*
X0196928Y0380450D01*
X0195602Y0380450D01*
X0194666Y0381386D01*
X0194666Y0382712D01*
X0195602Y0383648D01*
X0196928Y0383648D01*
X0197864Y0382712D01*
X0196904Y0382314D01*
X0196904Y0381784D01*
X0196530Y0381410D01*
X0196000Y0381410D01*
X0195626Y0381784D01*
X0195626Y0382314D01*
X0196000Y0382688D01*
X0196530Y0382688D01*
X0196904Y0382314D01*
X0191113Y0375398D02*
X0191753Y0376038D01*
X0191753Y0373918D01*
X0190254Y0372419D01*
X0188134Y0372419D01*
X0186635Y0373918D01*
X0186635Y0376038D01*
X0188134Y0377537D01*
X0190254Y0377537D01*
X0191753Y0376038D01*
X0190793Y0375641D01*
X0190793Y0374315D01*
X0189857Y0373379D01*
X0188531Y0373379D01*
X0187595Y0374315D01*
X0187595Y0375641D01*
X0188531Y0376577D01*
X0189857Y0376577D01*
X0190793Y0375641D01*
X0189833Y0375243D01*
X0189833Y0374713D01*
X0189459Y0374339D01*
X0188929Y0374339D01*
X0188555Y0374713D01*
X0188555Y0375243D01*
X0188929Y0375617D01*
X0189459Y0375617D01*
X0189833Y0375243D01*
X0184042Y0368327D02*
X0184682Y0368967D01*
X0184682Y0366847D01*
X0183183Y0365348D01*
X0181063Y0365348D01*
X0179564Y0366847D01*
X0179564Y0368967D01*
X0181063Y0370466D01*
X0183183Y0370466D01*
X0184682Y0368967D01*
X0183722Y0368570D01*
X0183722Y0367244D01*
X0182786Y0366308D01*
X0181460Y0366308D01*
X0180524Y0367244D01*
X0180524Y0368570D01*
X0181460Y0369506D01*
X0182786Y0369506D01*
X0183722Y0368570D01*
X0182762Y0368172D01*
X0182762Y0367642D01*
X0182388Y0367268D01*
X0181858Y0367268D01*
X0181484Y0367642D01*
X0181484Y0368172D01*
X0181858Y0368546D01*
X0182388Y0368546D01*
X0182762Y0368172D01*
X0176971Y0361256D02*
X0177611Y0361896D01*
X0177611Y0359776D01*
X0176112Y0358277D01*
X0173992Y0358277D01*
X0172493Y0359776D01*
X0172493Y0361896D01*
X0173992Y0363395D01*
X0176112Y0363395D01*
X0177611Y0361896D01*
X0176651Y0361499D01*
X0176651Y0360173D01*
X0175715Y0359237D01*
X0174389Y0359237D01*
X0173453Y0360173D01*
X0173453Y0361499D01*
X0174389Y0362435D01*
X0175715Y0362435D01*
X0176651Y0361499D01*
X0175691Y0361101D01*
X0175691Y0360571D01*
X0175317Y0360197D01*
X0174787Y0360197D01*
X0174413Y0360571D01*
X0174413Y0361101D01*
X0174787Y0361475D01*
X0175317Y0361475D01*
X0175691Y0361101D01*
X0169900Y0354185D02*
X0170540Y0354825D01*
X0170540Y0352705D01*
X0169041Y0351206D01*
X0166921Y0351206D01*
X0165422Y0352705D01*
X0165422Y0354825D01*
X0166921Y0356324D01*
X0169041Y0356324D01*
X0170540Y0354825D01*
X0169580Y0354428D01*
X0169580Y0353102D01*
X0168644Y0352166D01*
X0167318Y0352166D01*
X0166382Y0353102D01*
X0166382Y0354428D01*
X0167318Y0355364D01*
X0168644Y0355364D01*
X0169580Y0354428D01*
X0168620Y0354030D01*
X0168620Y0353500D01*
X0168246Y0353126D01*
X0167716Y0353126D01*
X0167342Y0353500D01*
X0167342Y0354030D01*
X0167716Y0354404D01*
X0168246Y0354404D01*
X0168620Y0354030D01*
X0162829Y0347114D02*
X0163469Y0347754D01*
X0163469Y0345634D01*
X0161970Y0344135D01*
X0159850Y0344135D01*
X0158351Y0345634D01*
X0158351Y0347754D01*
X0159850Y0349253D01*
X0161970Y0349253D01*
X0163469Y0347754D01*
X0162509Y0347357D01*
X0162509Y0346031D01*
X0161573Y0345095D01*
X0160247Y0345095D01*
X0159311Y0346031D01*
X0159311Y0347357D01*
X0160247Y0348293D01*
X0161573Y0348293D01*
X0162509Y0347357D01*
X0161549Y0346959D01*
X0161549Y0346429D01*
X0161175Y0346055D01*
X0160645Y0346055D01*
X0160271Y0346429D01*
X0160271Y0346959D01*
X0160645Y0347333D01*
X0161175Y0347333D01*
X0161549Y0346959D01*
X0155758Y0340043D02*
X0156398Y0340683D01*
X0156398Y0338563D01*
X0154899Y0337064D01*
X0152779Y0337064D01*
X0151280Y0338563D01*
X0151280Y0340683D01*
X0152779Y0342182D01*
X0154899Y0342182D01*
X0156398Y0340683D01*
X0155438Y0340286D01*
X0155438Y0338960D01*
X0154502Y0338024D01*
X0153176Y0338024D01*
X0152240Y0338960D01*
X0152240Y0340286D01*
X0153176Y0341222D01*
X0154502Y0341222D01*
X0155438Y0340286D01*
X0154478Y0339888D01*
X0154478Y0339358D01*
X0154104Y0338984D01*
X0153574Y0338984D01*
X0153200Y0339358D01*
X0153200Y0339888D01*
X0153574Y0340262D01*
X0154104Y0340262D01*
X0154478Y0339888D01*
X0148686Y0332972D02*
X0149326Y0333612D01*
X0149326Y0331492D01*
X0147827Y0329993D01*
X0145707Y0329993D01*
X0144208Y0331492D01*
X0144208Y0333612D01*
X0145707Y0335111D01*
X0147827Y0335111D01*
X0149326Y0333612D01*
X0148366Y0333215D01*
X0148366Y0331889D01*
X0147430Y0330953D01*
X0146104Y0330953D01*
X0145168Y0331889D01*
X0145168Y0333215D01*
X0146104Y0334151D01*
X0147430Y0334151D01*
X0148366Y0333215D01*
X0147406Y0332817D01*
X0147406Y0332287D01*
X0147032Y0331913D01*
X0146502Y0331913D01*
X0146128Y0332287D01*
X0146128Y0332817D01*
X0146502Y0333191D01*
X0147032Y0333191D01*
X0147406Y0332817D01*
X0141615Y0325901D02*
X0142255Y0326541D01*
X0142255Y0324421D01*
X0140756Y0322922D01*
X0138636Y0322922D01*
X0137137Y0324421D01*
X0137137Y0326541D01*
X0138636Y0328040D01*
X0140756Y0328040D01*
X0142255Y0326541D01*
X0141295Y0326144D01*
X0141295Y0324818D01*
X0140359Y0323882D01*
X0139033Y0323882D01*
X0138097Y0324818D01*
X0138097Y0326144D01*
X0139033Y0327080D01*
X0140359Y0327080D01*
X0141295Y0326144D01*
X0140335Y0325746D01*
X0140335Y0325216D01*
X0139961Y0324842D01*
X0139431Y0324842D01*
X0139057Y0325216D01*
X0139057Y0325746D01*
X0139431Y0326120D01*
X0139961Y0326120D01*
X0140335Y0325746D01*
X0134544Y0318830D02*
X0135184Y0319470D01*
X0135184Y0317350D01*
X0133685Y0315851D01*
X0131565Y0315851D01*
X0130066Y0317350D01*
X0130066Y0319470D01*
X0131565Y0320969D01*
X0133685Y0320969D01*
X0135184Y0319470D01*
X0134224Y0319073D01*
X0134224Y0317747D01*
X0133288Y0316811D01*
X0131962Y0316811D01*
X0131026Y0317747D01*
X0131026Y0319073D01*
X0131962Y0320009D01*
X0133288Y0320009D01*
X0134224Y0319073D01*
X0133264Y0318675D01*
X0133264Y0318145D01*
X0132890Y0317771D01*
X0132360Y0317771D01*
X0131986Y0318145D01*
X0131986Y0318675D01*
X0132360Y0319049D01*
X0132890Y0319049D01*
X0133264Y0318675D01*
X0127473Y0311759D02*
X0128113Y0312399D01*
X0128113Y0310279D01*
X0126614Y0308780D01*
X0124494Y0308780D01*
X0122995Y0310279D01*
X0122995Y0312399D01*
X0124494Y0313898D01*
X0126614Y0313898D01*
X0128113Y0312399D01*
X0127153Y0312002D01*
X0127153Y0310676D01*
X0126217Y0309740D01*
X0124891Y0309740D01*
X0123955Y0310676D01*
X0123955Y0312002D01*
X0124891Y0312938D01*
X0126217Y0312938D01*
X0127153Y0312002D01*
X0126193Y0311604D01*
X0126193Y0311074D01*
X0125819Y0310700D01*
X0125289Y0310700D01*
X0124915Y0311074D01*
X0124915Y0311604D01*
X0125289Y0311978D01*
X0125819Y0311978D01*
X0126193Y0311604D01*
X0120402Y0304688D02*
X0121042Y0305328D01*
X0121042Y0303208D01*
X0119543Y0301709D01*
X0117423Y0301709D01*
X0115924Y0303208D01*
X0115924Y0305328D01*
X0117423Y0306827D01*
X0119543Y0306827D01*
X0121042Y0305328D01*
X0120082Y0304931D01*
X0120082Y0303605D01*
X0119146Y0302669D01*
X0117820Y0302669D01*
X0116884Y0303605D01*
X0116884Y0304931D01*
X0117820Y0305867D01*
X0119146Y0305867D01*
X0120082Y0304931D01*
X0119122Y0304533D01*
X0119122Y0304003D01*
X0118748Y0303629D01*
X0118218Y0303629D01*
X0117844Y0304003D01*
X0117844Y0304533D01*
X0118218Y0304907D01*
X0118748Y0304907D01*
X0119122Y0304533D01*
X0113331Y0297617D02*
X0113971Y0298257D01*
X0113971Y0296137D01*
X0112472Y0294638D01*
X0110352Y0294638D01*
X0108853Y0296137D01*
X0108853Y0298257D01*
X0110352Y0299756D01*
X0112472Y0299756D01*
X0113971Y0298257D01*
X0113011Y0297860D01*
X0113011Y0296534D01*
X0112075Y0295598D01*
X0110749Y0295598D01*
X0109813Y0296534D01*
X0109813Y0297860D01*
X0110749Y0298796D01*
X0112075Y0298796D01*
X0113011Y0297860D01*
X0112051Y0297462D01*
X0112051Y0296932D01*
X0111677Y0296558D01*
X0111147Y0296558D01*
X0110773Y0296932D01*
X0110773Y0297462D01*
X0111147Y0297836D01*
X0111677Y0297836D01*
X0112051Y0297462D01*
X0106260Y0290546D02*
X0106900Y0291186D01*
X0106900Y0289066D01*
X0105401Y0287567D01*
X0103281Y0287567D01*
X0101782Y0289066D01*
X0101782Y0291186D01*
X0103281Y0292685D01*
X0105401Y0292685D01*
X0106900Y0291186D01*
X0105940Y0290789D01*
X0105940Y0289463D01*
X0105004Y0288527D01*
X0103678Y0288527D01*
X0102742Y0289463D01*
X0102742Y0290789D01*
X0103678Y0291725D01*
X0105004Y0291725D01*
X0105940Y0290789D01*
X0104980Y0290391D01*
X0104980Y0289861D01*
X0104606Y0289487D01*
X0104076Y0289487D01*
X0103702Y0289861D01*
X0103702Y0290391D01*
X0104076Y0290765D01*
X0104606Y0290765D01*
X0104980Y0290391D01*
X0099189Y0283475D02*
X0099829Y0284115D01*
X0099829Y0281995D01*
X0098330Y0280496D01*
X0096210Y0280496D01*
X0094711Y0281995D01*
X0094711Y0284115D01*
X0096210Y0285614D01*
X0098330Y0285614D01*
X0099829Y0284115D01*
X0098869Y0283718D01*
X0098869Y0282392D01*
X0097933Y0281456D01*
X0096607Y0281456D01*
X0095671Y0282392D01*
X0095671Y0283718D01*
X0096607Y0284654D01*
X0097933Y0284654D01*
X0098869Y0283718D01*
X0097909Y0283320D01*
X0097909Y0282790D01*
X0097535Y0282416D01*
X0097005Y0282416D01*
X0096631Y0282790D01*
X0096631Y0283320D01*
X0097005Y0283694D01*
X0097535Y0283694D01*
X0097909Y0283320D01*
X0092118Y0276403D02*
X0092758Y0277043D01*
X0092758Y0274923D01*
X0091259Y0273424D01*
X0089139Y0273424D01*
X0087640Y0274923D01*
X0087640Y0277043D01*
X0089139Y0278542D01*
X0091259Y0278542D01*
X0092758Y0277043D01*
X0091798Y0276646D01*
X0091798Y0275320D01*
X0090862Y0274384D01*
X0089536Y0274384D01*
X0088600Y0275320D01*
X0088600Y0276646D01*
X0089536Y0277582D01*
X0090862Y0277582D01*
X0091798Y0276646D01*
X0090838Y0276248D01*
X0090838Y0275718D01*
X0090464Y0275344D01*
X0089934Y0275344D01*
X0089560Y0275718D01*
X0089560Y0276248D01*
X0089934Y0276622D01*
X0090464Y0276622D01*
X0090838Y0276248D01*
X0089779Y0248204D02*
X0089139Y0248844D01*
X0091259Y0248844D01*
X0092758Y0247345D01*
X0092758Y0245225D01*
X0091259Y0243726D01*
X0089139Y0243726D01*
X0087640Y0245225D01*
X0087640Y0247345D01*
X0089139Y0248844D01*
X0089536Y0247884D01*
X0090862Y0247884D01*
X0091798Y0246948D01*
X0091798Y0245622D01*
X0090862Y0244686D01*
X0089536Y0244686D01*
X0088600Y0245622D01*
X0088600Y0246948D01*
X0089536Y0247884D01*
X0089934Y0246924D01*
X0090464Y0246924D01*
X0090838Y0246550D01*
X0090838Y0246020D01*
X0090464Y0245646D01*
X0089934Y0245646D01*
X0089560Y0246020D01*
X0089560Y0246550D01*
X0089934Y0246924D01*
X0082708Y0241133D02*
X0082068Y0241773D01*
X0084188Y0241773D01*
X0085687Y0240274D01*
X0085687Y0238154D01*
X0084188Y0236655D01*
X0082068Y0236655D01*
X0080569Y0238154D01*
X0080569Y0240274D01*
X0082068Y0241773D01*
X0082465Y0240813D01*
X0083791Y0240813D01*
X0084727Y0239877D01*
X0084727Y0238551D01*
X0083791Y0237615D01*
X0082465Y0237615D01*
X0081529Y0238551D01*
X0081529Y0239877D01*
X0082465Y0240813D01*
X0082863Y0239853D01*
X0083393Y0239853D01*
X0083767Y0239479D01*
X0083767Y0238949D01*
X0083393Y0238575D01*
X0082863Y0238575D01*
X0082489Y0238949D01*
X0082489Y0239479D01*
X0082863Y0239853D01*
X0089779Y0234062D02*
X0089139Y0234702D01*
X0091259Y0234702D01*
X0092758Y0233203D01*
X0092758Y0231083D01*
X0091259Y0229584D01*
X0089139Y0229584D01*
X0087640Y0231083D01*
X0087640Y0233203D01*
X0089139Y0234702D01*
X0089536Y0233742D01*
X0090862Y0233742D01*
X0091798Y0232806D01*
X0091798Y0231480D01*
X0090862Y0230544D01*
X0089536Y0230544D01*
X0088600Y0231480D01*
X0088600Y0232806D01*
X0089536Y0233742D01*
X0089934Y0232782D01*
X0090464Y0232782D01*
X0090838Y0232408D01*
X0090838Y0231878D01*
X0090464Y0231504D01*
X0089934Y0231504D01*
X0089560Y0231878D01*
X0089560Y0232408D01*
X0089934Y0232782D01*
X0096850Y0241133D02*
X0096210Y0241773D01*
X0098330Y0241773D01*
X0099829Y0240274D01*
X0099829Y0238154D01*
X0098330Y0236655D01*
X0096210Y0236655D01*
X0094711Y0238154D01*
X0094711Y0240274D01*
X0096210Y0241773D01*
X0096607Y0240813D01*
X0097933Y0240813D01*
X0098869Y0239877D01*
X0098869Y0238551D01*
X0097933Y0237615D01*
X0096607Y0237615D01*
X0095671Y0238551D01*
X0095671Y0239877D01*
X0096607Y0240813D01*
X0097005Y0239853D01*
X0097535Y0239853D01*
X0097909Y0239479D01*
X0097909Y0238949D01*
X0097535Y0238575D01*
X0097005Y0238575D01*
X0096631Y0238949D01*
X0096631Y0239479D01*
X0097005Y0239853D01*
X0103921Y0234062D02*
X0103281Y0234702D01*
X0105401Y0234702D01*
X0106900Y0233203D01*
X0106900Y0231083D01*
X0105401Y0229584D01*
X0103281Y0229584D01*
X0101782Y0231083D01*
X0101782Y0233203D01*
X0103281Y0234702D01*
X0103678Y0233742D01*
X0105004Y0233742D01*
X0105940Y0232806D01*
X0105940Y0231480D01*
X0105004Y0230544D01*
X0103678Y0230544D01*
X0102742Y0231480D01*
X0102742Y0232806D01*
X0103678Y0233742D01*
X0104076Y0232782D01*
X0104606Y0232782D01*
X0104980Y0232408D01*
X0104980Y0231878D01*
X0104606Y0231504D01*
X0104076Y0231504D01*
X0103702Y0231878D01*
X0103702Y0232408D01*
X0104076Y0232782D01*
X0096850Y0226991D02*
X0096210Y0227631D01*
X0098330Y0227631D01*
X0099829Y0226132D01*
X0099829Y0224012D01*
X0098330Y0222513D01*
X0096210Y0222513D01*
X0094711Y0224012D01*
X0094711Y0226132D01*
X0096210Y0227631D01*
X0096607Y0226671D01*
X0097933Y0226671D01*
X0098869Y0225735D01*
X0098869Y0224409D01*
X0097933Y0223473D01*
X0096607Y0223473D01*
X0095671Y0224409D01*
X0095671Y0225735D01*
X0096607Y0226671D01*
X0097005Y0225711D01*
X0097535Y0225711D01*
X0097909Y0225337D01*
X0097909Y0224807D01*
X0097535Y0224433D01*
X0097005Y0224433D01*
X0096631Y0224807D01*
X0096631Y0225337D01*
X0097005Y0225711D01*
X0103921Y0219920D02*
X0103281Y0220560D01*
X0105401Y0220560D01*
X0106900Y0219061D01*
X0106900Y0216941D01*
X0105401Y0215442D01*
X0103281Y0215442D01*
X0101782Y0216941D01*
X0101782Y0219061D01*
X0103281Y0220560D01*
X0103678Y0219600D01*
X0105004Y0219600D01*
X0105940Y0218664D01*
X0105940Y0217338D01*
X0105004Y0216402D01*
X0103678Y0216402D01*
X0102742Y0217338D01*
X0102742Y0218664D01*
X0103678Y0219600D01*
X0104076Y0218640D01*
X0104606Y0218640D01*
X0104980Y0218266D01*
X0104980Y0217736D01*
X0104606Y0217362D01*
X0104076Y0217362D01*
X0103702Y0217736D01*
X0103702Y0218266D01*
X0104076Y0218640D01*
X0110992Y0226991D02*
X0110352Y0227631D01*
X0112472Y0227631D01*
X0113971Y0226132D01*
X0113971Y0224012D01*
X0112472Y0222513D01*
X0110352Y0222513D01*
X0108853Y0224012D01*
X0108853Y0226132D01*
X0110352Y0227631D01*
X0110749Y0226671D01*
X0112075Y0226671D01*
X0113011Y0225735D01*
X0113011Y0224409D01*
X0112075Y0223473D01*
X0110749Y0223473D01*
X0109813Y0224409D01*
X0109813Y0225735D01*
X0110749Y0226671D01*
X0111147Y0225711D01*
X0111677Y0225711D01*
X0112051Y0225337D01*
X0112051Y0224807D01*
X0111677Y0224433D01*
X0111147Y0224433D01*
X0110773Y0224807D01*
X0110773Y0225337D01*
X0111147Y0225711D01*
X0118063Y0219920D02*
X0117423Y0220560D01*
X0119543Y0220560D01*
X0121042Y0219061D01*
X0121042Y0216941D01*
X0119543Y0215442D01*
X0117423Y0215442D01*
X0115924Y0216941D01*
X0115924Y0219061D01*
X0117423Y0220560D01*
X0117820Y0219600D01*
X0119146Y0219600D01*
X0120082Y0218664D01*
X0120082Y0217338D01*
X0119146Y0216402D01*
X0117820Y0216402D01*
X0116884Y0217338D01*
X0116884Y0218664D01*
X0117820Y0219600D01*
X0118218Y0218640D01*
X0118748Y0218640D01*
X0119122Y0218266D01*
X0119122Y0217736D01*
X0118748Y0217362D01*
X0118218Y0217362D01*
X0117844Y0217736D01*
X0117844Y0218266D01*
X0118218Y0218640D01*
X0110992Y0212849D02*
X0110352Y0213489D01*
X0112472Y0213489D01*
X0113971Y0211990D01*
X0113971Y0209870D01*
X0112472Y0208371D01*
X0110352Y0208371D01*
X0108853Y0209870D01*
X0108853Y0211990D01*
X0110352Y0213489D01*
X0110749Y0212529D01*
X0112075Y0212529D01*
X0113011Y0211593D01*
X0113011Y0210267D01*
X0112075Y0209331D01*
X0110749Y0209331D01*
X0109813Y0210267D01*
X0109813Y0211593D01*
X0110749Y0212529D01*
X0111147Y0211569D01*
X0111677Y0211569D01*
X0112051Y0211195D01*
X0112051Y0210665D01*
X0111677Y0210291D01*
X0111147Y0210291D01*
X0110773Y0210665D01*
X0110773Y0211195D01*
X0111147Y0211569D01*
X0118063Y0205778D02*
X0117423Y0206418D01*
X0119543Y0206418D01*
X0121042Y0204919D01*
X0121042Y0202799D01*
X0119543Y0201300D01*
X0117423Y0201300D01*
X0115924Y0202799D01*
X0115924Y0204919D01*
X0117423Y0206418D01*
X0117820Y0205458D01*
X0119146Y0205458D01*
X0120082Y0204522D01*
X0120082Y0203196D01*
X0119146Y0202260D01*
X0117820Y0202260D01*
X0116884Y0203196D01*
X0116884Y0204522D01*
X0117820Y0205458D01*
X0118218Y0204498D01*
X0118748Y0204498D01*
X0119122Y0204124D01*
X0119122Y0203594D01*
X0118748Y0203220D01*
X0118218Y0203220D01*
X0117844Y0203594D01*
X0117844Y0204124D01*
X0118218Y0204498D01*
X0125134Y0212849D02*
X0124494Y0213489D01*
X0126614Y0213489D01*
X0128113Y0211990D01*
X0128113Y0209870D01*
X0126614Y0208371D01*
X0124494Y0208371D01*
X0122995Y0209870D01*
X0122995Y0211990D01*
X0124494Y0213489D01*
X0124891Y0212529D01*
X0126217Y0212529D01*
X0127153Y0211593D01*
X0127153Y0210267D01*
X0126217Y0209331D01*
X0124891Y0209331D01*
X0123955Y0210267D01*
X0123955Y0211593D01*
X0124891Y0212529D01*
X0125289Y0211569D01*
X0125819Y0211569D01*
X0126193Y0211195D01*
X0126193Y0210665D01*
X0125819Y0210291D01*
X0125289Y0210291D01*
X0124915Y0210665D01*
X0124915Y0211195D01*
X0125289Y0211569D01*
X0132205Y0205778D02*
X0131565Y0206418D01*
X0133685Y0206418D01*
X0135184Y0204919D01*
X0135184Y0202799D01*
X0133685Y0201300D01*
X0131565Y0201300D01*
X0130066Y0202799D01*
X0130066Y0204919D01*
X0131565Y0206418D01*
X0131962Y0205458D01*
X0133288Y0205458D01*
X0134224Y0204522D01*
X0134224Y0203196D01*
X0133288Y0202260D01*
X0131962Y0202260D01*
X0131026Y0203196D01*
X0131026Y0204522D01*
X0131962Y0205458D01*
X0132360Y0204498D01*
X0132890Y0204498D01*
X0133264Y0204124D01*
X0133264Y0203594D01*
X0132890Y0203220D01*
X0132360Y0203220D01*
X0131986Y0203594D01*
X0131986Y0204124D01*
X0132360Y0204498D01*
X0125134Y0198706D02*
X0124494Y0199346D01*
X0126614Y0199346D01*
X0128113Y0197847D01*
X0128113Y0195727D01*
X0126614Y0194228D01*
X0124494Y0194228D01*
X0122995Y0195727D01*
X0122995Y0197847D01*
X0124494Y0199346D01*
X0124891Y0198386D01*
X0126217Y0198386D01*
X0127153Y0197450D01*
X0127153Y0196124D01*
X0126217Y0195188D01*
X0124891Y0195188D01*
X0123955Y0196124D01*
X0123955Y0197450D01*
X0124891Y0198386D01*
X0125289Y0197426D01*
X0125819Y0197426D01*
X0126193Y0197052D01*
X0126193Y0196522D01*
X0125819Y0196148D01*
X0125289Y0196148D01*
X0124915Y0196522D01*
X0124915Y0197052D01*
X0125289Y0197426D01*
X0132205Y0191635D02*
X0131565Y0192275D01*
X0133685Y0192275D01*
X0135184Y0190776D01*
X0135184Y0188656D01*
X0133685Y0187157D01*
X0131565Y0187157D01*
X0130066Y0188656D01*
X0130066Y0190776D01*
X0131565Y0192275D01*
X0131962Y0191315D01*
X0133288Y0191315D01*
X0134224Y0190379D01*
X0134224Y0189053D01*
X0133288Y0188117D01*
X0131962Y0188117D01*
X0131026Y0189053D01*
X0131026Y0190379D01*
X0131962Y0191315D01*
X0132360Y0190355D01*
X0132890Y0190355D01*
X0133264Y0189981D01*
X0133264Y0189451D01*
X0132890Y0189077D01*
X0132360Y0189077D01*
X0131986Y0189451D01*
X0131986Y0189981D01*
X0132360Y0190355D01*
X0139276Y0198706D02*
X0138636Y0199346D01*
X0140756Y0199346D01*
X0142255Y0197847D01*
X0142255Y0195727D01*
X0140756Y0194228D01*
X0138636Y0194228D01*
X0137137Y0195727D01*
X0137137Y0197847D01*
X0138636Y0199346D01*
X0139033Y0198386D01*
X0140359Y0198386D01*
X0141295Y0197450D01*
X0141295Y0196124D01*
X0140359Y0195188D01*
X0139033Y0195188D01*
X0138097Y0196124D01*
X0138097Y0197450D01*
X0139033Y0198386D01*
X0139431Y0197426D01*
X0139961Y0197426D01*
X0140335Y0197052D01*
X0140335Y0196522D01*
X0139961Y0196148D01*
X0139431Y0196148D01*
X0139057Y0196522D01*
X0139057Y0197052D01*
X0139431Y0197426D01*
X0146347Y0191635D02*
X0145707Y0192275D01*
X0147827Y0192275D01*
X0149326Y0190776D01*
X0149326Y0188656D01*
X0147827Y0187157D01*
X0145707Y0187157D01*
X0144208Y0188656D01*
X0144208Y0190776D01*
X0145707Y0192275D01*
X0146104Y0191315D01*
X0147430Y0191315D01*
X0148366Y0190379D01*
X0148366Y0189053D01*
X0147430Y0188117D01*
X0146104Y0188117D01*
X0145168Y0189053D01*
X0145168Y0190379D01*
X0146104Y0191315D01*
X0146502Y0190355D01*
X0147032Y0190355D01*
X0147406Y0189981D01*
X0147406Y0189451D01*
X0147032Y0189077D01*
X0146502Y0189077D01*
X0146128Y0189451D01*
X0146128Y0189981D01*
X0146502Y0190355D01*
X0139276Y0184564D02*
X0138636Y0185204D01*
X0140756Y0185204D01*
X0142255Y0183705D01*
X0142255Y0181585D01*
X0140756Y0180086D01*
X0138636Y0180086D01*
X0137137Y0181585D01*
X0137137Y0183705D01*
X0138636Y0185204D01*
X0139033Y0184244D01*
X0140359Y0184244D01*
X0141295Y0183308D01*
X0141295Y0181982D01*
X0140359Y0181046D01*
X0139033Y0181046D01*
X0138097Y0181982D01*
X0138097Y0183308D01*
X0139033Y0184244D01*
X0139431Y0183284D01*
X0139961Y0183284D01*
X0140335Y0182910D01*
X0140335Y0182380D01*
X0139961Y0182006D01*
X0139431Y0182006D01*
X0139057Y0182380D01*
X0139057Y0182910D01*
X0139431Y0183284D01*
X0146347Y0177493D02*
X0145707Y0178133D01*
X0147827Y0178133D01*
X0149326Y0176634D01*
X0149326Y0174514D01*
X0147827Y0173015D01*
X0145707Y0173015D01*
X0144208Y0174514D01*
X0144208Y0176634D01*
X0145707Y0178133D01*
X0146104Y0177173D01*
X0147430Y0177173D01*
X0148366Y0176237D01*
X0148366Y0174911D01*
X0147430Y0173975D01*
X0146104Y0173975D01*
X0145168Y0174911D01*
X0145168Y0176237D01*
X0146104Y0177173D01*
X0146502Y0176213D01*
X0147032Y0176213D01*
X0147406Y0175839D01*
X0147406Y0175309D01*
X0147032Y0174935D01*
X0146502Y0174935D01*
X0146128Y0175309D01*
X0146128Y0175839D01*
X0146502Y0176213D01*
X0153419Y0184564D02*
X0152779Y0185204D01*
X0154899Y0185204D01*
X0156398Y0183705D01*
X0156398Y0181585D01*
X0154899Y0180086D01*
X0152779Y0180086D01*
X0151280Y0181585D01*
X0151280Y0183705D01*
X0152779Y0185204D01*
X0153176Y0184244D01*
X0154502Y0184244D01*
X0155438Y0183308D01*
X0155438Y0181982D01*
X0154502Y0181046D01*
X0153176Y0181046D01*
X0152240Y0181982D01*
X0152240Y0183308D01*
X0153176Y0184244D01*
X0153574Y0183284D01*
X0154104Y0183284D01*
X0154478Y0182910D01*
X0154478Y0182380D01*
X0154104Y0182006D01*
X0153574Y0182006D01*
X0153200Y0182380D01*
X0153200Y0182910D01*
X0153574Y0183284D01*
X0160490Y0177493D02*
X0159850Y0178133D01*
X0161970Y0178133D01*
X0163469Y0176634D01*
X0163469Y0174514D01*
X0161970Y0173015D01*
X0159850Y0173015D01*
X0158351Y0174514D01*
X0158351Y0176634D01*
X0159850Y0178133D01*
X0160247Y0177173D01*
X0161573Y0177173D01*
X0162509Y0176237D01*
X0162509Y0174911D01*
X0161573Y0173975D01*
X0160247Y0173975D01*
X0159311Y0174911D01*
X0159311Y0176237D01*
X0160247Y0177173D01*
X0160645Y0176213D01*
X0161175Y0176213D01*
X0161549Y0175839D01*
X0161549Y0175309D01*
X0161175Y0174935D01*
X0160645Y0174935D01*
X0160271Y0175309D01*
X0160271Y0175839D01*
X0160645Y0176213D01*
X0153419Y0170422D02*
X0152779Y0171062D01*
X0154899Y0171062D01*
X0156398Y0169563D01*
X0156398Y0167443D01*
X0154899Y0165944D01*
X0152779Y0165944D01*
X0151280Y0167443D01*
X0151280Y0169563D01*
X0152779Y0171062D01*
X0153176Y0170102D01*
X0154502Y0170102D01*
X0155438Y0169166D01*
X0155438Y0167840D01*
X0154502Y0166904D01*
X0153176Y0166904D01*
X0152240Y0167840D01*
X0152240Y0169166D01*
X0153176Y0170102D01*
X0153574Y0169142D01*
X0154104Y0169142D01*
X0154478Y0168768D01*
X0154478Y0168238D01*
X0154104Y0167864D01*
X0153574Y0167864D01*
X0153200Y0168238D01*
X0153200Y0168768D01*
X0153574Y0169142D01*
X0160490Y0163351D02*
X0159850Y0163991D01*
X0161970Y0163991D01*
X0163469Y0162492D01*
X0163469Y0160372D01*
X0161970Y0158873D01*
X0159850Y0158873D01*
X0158351Y0160372D01*
X0158351Y0162492D01*
X0159850Y0163991D01*
X0160247Y0163031D01*
X0161573Y0163031D01*
X0162509Y0162095D01*
X0162509Y0160769D01*
X0161573Y0159833D01*
X0160247Y0159833D01*
X0159311Y0160769D01*
X0159311Y0162095D01*
X0160247Y0163031D01*
X0160645Y0162071D01*
X0161175Y0162071D01*
X0161549Y0161697D01*
X0161549Y0161167D01*
X0161175Y0160793D01*
X0160645Y0160793D01*
X0160271Y0161167D01*
X0160271Y0161697D01*
X0160645Y0162071D01*
X0167561Y0170422D02*
X0166921Y0171062D01*
X0169041Y0171062D01*
X0170540Y0169563D01*
X0170540Y0167443D01*
X0169041Y0165944D01*
X0166921Y0165944D01*
X0165422Y0167443D01*
X0165422Y0169563D01*
X0166921Y0171062D01*
X0167318Y0170102D01*
X0168644Y0170102D01*
X0169580Y0169166D01*
X0169580Y0167840D01*
X0168644Y0166904D01*
X0167318Y0166904D01*
X0166382Y0167840D01*
X0166382Y0169166D01*
X0167318Y0170102D01*
X0167716Y0169142D01*
X0168246Y0169142D01*
X0168620Y0168768D01*
X0168620Y0168238D01*
X0168246Y0167864D01*
X0167716Y0167864D01*
X0167342Y0168238D01*
X0167342Y0168768D01*
X0167716Y0169142D01*
X0174632Y0163351D02*
X0173992Y0163991D01*
X0176112Y0163991D01*
X0177611Y0162492D01*
X0177611Y0160372D01*
X0176112Y0158873D01*
X0173992Y0158873D01*
X0172493Y0160372D01*
X0172493Y0162492D01*
X0173992Y0163991D01*
X0174389Y0163031D01*
X0175715Y0163031D01*
X0176651Y0162095D01*
X0176651Y0160769D01*
X0175715Y0159833D01*
X0174389Y0159833D01*
X0173453Y0160769D01*
X0173453Y0162095D01*
X0174389Y0163031D01*
X0174787Y0162071D01*
X0175317Y0162071D01*
X0175691Y0161697D01*
X0175691Y0161167D01*
X0175317Y0160793D01*
X0174787Y0160793D01*
X0174413Y0161167D01*
X0174413Y0161697D01*
X0174787Y0162071D01*
X0167561Y0156280D02*
X0166921Y0156920D01*
X0169041Y0156920D01*
X0170540Y0155421D01*
X0170540Y0153301D01*
X0169041Y0151802D01*
X0166921Y0151802D01*
X0165422Y0153301D01*
X0165422Y0155421D01*
X0166921Y0156920D01*
X0167318Y0155960D01*
X0168644Y0155960D01*
X0169580Y0155024D01*
X0169580Y0153698D01*
X0168644Y0152762D01*
X0167318Y0152762D01*
X0166382Y0153698D01*
X0166382Y0155024D01*
X0167318Y0155960D01*
X0167716Y0155000D01*
X0168246Y0155000D01*
X0168620Y0154626D01*
X0168620Y0154096D01*
X0168246Y0153722D01*
X0167716Y0153722D01*
X0167342Y0154096D01*
X0167342Y0154626D01*
X0167716Y0155000D01*
X0174632Y0149209D02*
X0173992Y0149849D01*
X0176112Y0149849D01*
X0177611Y0148350D01*
X0177611Y0146230D01*
X0176112Y0144731D01*
X0173992Y0144731D01*
X0172493Y0146230D01*
X0172493Y0148350D01*
X0173992Y0149849D01*
X0174389Y0148889D01*
X0175715Y0148889D01*
X0176651Y0147953D01*
X0176651Y0146627D01*
X0175715Y0145691D01*
X0174389Y0145691D01*
X0173453Y0146627D01*
X0173453Y0147953D01*
X0174389Y0148889D01*
X0174787Y0147929D01*
X0175317Y0147929D01*
X0175691Y0147555D01*
X0175691Y0147025D01*
X0175317Y0146651D01*
X0174787Y0146651D01*
X0174413Y0147025D01*
X0174413Y0147555D01*
X0174787Y0147929D01*
X0181703Y0156280D02*
X0181063Y0156920D01*
X0183183Y0156920D01*
X0184682Y0155421D01*
X0184682Y0153301D01*
X0183183Y0151802D01*
X0181063Y0151802D01*
X0179564Y0153301D01*
X0179564Y0155421D01*
X0181063Y0156920D01*
X0181460Y0155960D01*
X0182786Y0155960D01*
X0183722Y0155024D01*
X0183722Y0153698D01*
X0182786Y0152762D01*
X0181460Y0152762D01*
X0180524Y0153698D01*
X0180524Y0155024D01*
X0181460Y0155960D01*
X0181858Y0155000D01*
X0182388Y0155000D01*
X0182762Y0154626D01*
X0182762Y0154096D01*
X0182388Y0153722D01*
X0181858Y0153722D01*
X0181484Y0154096D01*
X0181484Y0154626D01*
X0181858Y0155000D01*
X0188774Y0149209D02*
X0188134Y0149849D01*
X0190254Y0149849D01*
X0191753Y0148350D01*
X0191753Y0146230D01*
X0190254Y0144731D01*
X0188134Y0144731D01*
X0186635Y0146230D01*
X0186635Y0148350D01*
X0188134Y0149849D01*
X0188531Y0148889D01*
X0189857Y0148889D01*
X0190793Y0147953D01*
X0190793Y0146627D01*
X0189857Y0145691D01*
X0188531Y0145691D01*
X0187595Y0146627D01*
X0187595Y0147953D01*
X0188531Y0148889D01*
X0188929Y0147929D01*
X0189459Y0147929D01*
X0189833Y0147555D01*
X0189833Y0147025D01*
X0189459Y0146651D01*
X0188929Y0146651D01*
X0188555Y0147025D01*
X0188555Y0147555D01*
X0188929Y0147929D01*
X0181703Y0142138D02*
X0181063Y0142778D01*
X0183183Y0142778D01*
X0184682Y0141279D01*
X0184682Y0139159D01*
X0183183Y0137660D01*
X0181063Y0137660D01*
X0179564Y0139159D01*
X0179564Y0141279D01*
X0181063Y0142778D01*
X0181460Y0141818D01*
X0182786Y0141818D01*
X0183722Y0140882D01*
X0183722Y0139556D01*
X0182786Y0138620D01*
X0181460Y0138620D01*
X0180524Y0139556D01*
X0180524Y0140882D01*
X0181460Y0141818D01*
X0181858Y0140858D01*
X0182388Y0140858D01*
X0182762Y0140484D01*
X0182762Y0139954D01*
X0182388Y0139580D01*
X0181858Y0139580D01*
X0181484Y0139954D01*
X0181484Y0140484D01*
X0181858Y0140858D01*
X0188774Y0135067D02*
X0188134Y0135707D01*
X0190254Y0135707D01*
X0191753Y0134208D01*
X0191753Y0132088D01*
X0190254Y0130589D01*
X0188134Y0130589D01*
X0186635Y0132088D01*
X0186635Y0134208D01*
X0188134Y0135707D01*
X0188531Y0134747D01*
X0189857Y0134747D01*
X0190793Y0133811D01*
X0190793Y0132485D01*
X0189857Y0131549D01*
X0188531Y0131549D01*
X0187595Y0132485D01*
X0187595Y0133811D01*
X0188531Y0134747D01*
X0188929Y0133787D01*
X0189459Y0133787D01*
X0189833Y0133413D01*
X0189833Y0132883D01*
X0189459Y0132509D01*
X0188929Y0132509D01*
X0188555Y0132883D01*
X0188555Y0133413D01*
X0188929Y0133787D01*
X0195845Y0142138D02*
X0195205Y0142778D01*
X0197325Y0142778D01*
X0198824Y0141279D01*
X0198824Y0139159D01*
X0197325Y0137660D01*
X0195205Y0137660D01*
X0193706Y0139159D01*
X0193706Y0141279D01*
X0195205Y0142778D01*
X0195602Y0141818D01*
X0196928Y0141818D01*
X0197864Y0140882D01*
X0197864Y0139556D01*
X0196928Y0138620D01*
X0195602Y0138620D01*
X0194666Y0139556D01*
X0194666Y0140882D01*
X0195602Y0141818D01*
X0196000Y0140858D01*
X0196530Y0140858D01*
X0196904Y0140484D01*
X0196904Y0139954D01*
X0196530Y0139580D01*
X0196000Y0139580D01*
X0195626Y0139954D01*
X0195626Y0140484D01*
X0196000Y0140858D01*
X0202916Y0135067D02*
X0202276Y0135707D01*
X0204396Y0135707D01*
X0205895Y0134208D01*
X0205895Y0132088D01*
X0204396Y0130589D01*
X0202276Y0130589D01*
X0200777Y0132088D01*
X0200777Y0134208D01*
X0202276Y0135707D01*
X0202673Y0134747D01*
X0203999Y0134747D01*
X0204935Y0133811D01*
X0204935Y0132485D01*
X0203999Y0131549D01*
X0202673Y0131549D01*
X0201737Y0132485D01*
X0201737Y0133811D01*
X0202673Y0134747D01*
X0203071Y0133787D01*
X0203601Y0133787D01*
X0203975Y0133413D01*
X0203975Y0132883D01*
X0203601Y0132509D01*
X0203071Y0132509D01*
X0202697Y0132883D01*
X0202697Y0133413D01*
X0203071Y0133787D01*
X0195845Y0127996D02*
X0195205Y0128636D01*
X0197325Y0128636D01*
X0198824Y0127137D01*
X0198824Y0125017D01*
X0197325Y0123518D01*
X0195205Y0123518D01*
X0193706Y0125017D01*
X0193706Y0127137D01*
X0195205Y0128636D01*
X0195602Y0127676D01*
X0196928Y0127676D01*
X0197864Y0126740D01*
X0197864Y0125414D01*
X0196928Y0124478D01*
X0195602Y0124478D01*
X0194666Y0125414D01*
X0194666Y0126740D01*
X0195602Y0127676D01*
X0196000Y0126716D01*
X0196530Y0126716D01*
X0196904Y0126342D01*
X0196904Y0125812D01*
X0196530Y0125438D01*
X0196000Y0125438D01*
X0195626Y0125812D01*
X0195626Y0126342D01*
X0196000Y0126716D01*
X0209987Y0127996D02*
X0209347Y0128636D01*
X0211467Y0128636D01*
X0212966Y0127137D01*
X0212966Y0125017D01*
X0211467Y0123518D01*
X0209347Y0123518D01*
X0207848Y0125017D01*
X0207848Y0127137D01*
X0209347Y0128636D01*
X0209744Y0127676D01*
X0211070Y0127676D01*
X0212006Y0126740D01*
X0212006Y0125414D01*
X0211070Y0124478D01*
X0209744Y0124478D01*
X0208808Y0125414D01*
X0208808Y0126740D01*
X0209744Y0127676D01*
X0210142Y0126716D01*
X0210672Y0126716D01*
X0211046Y0126342D01*
X0211046Y0125812D01*
X0210672Y0125438D01*
X0210142Y0125438D01*
X0209768Y0125812D01*
X0209768Y0126342D01*
X0210142Y0126716D01*
X0224044Y0125657D02*
X0223404Y0125017D01*
X0223404Y0127137D01*
X0224903Y0128636D01*
X0227023Y0128636D01*
X0228522Y0127137D01*
X0228522Y0125017D01*
X0227023Y0123518D01*
X0224903Y0123518D01*
X0223404Y0125017D01*
X0224364Y0125414D01*
X0224364Y0126740D01*
X0225300Y0127676D01*
X0226626Y0127676D01*
X0227562Y0126740D01*
X0227562Y0125414D01*
X0226626Y0124478D01*
X0225300Y0124478D01*
X0224364Y0125414D01*
X0225324Y0125812D01*
X0225324Y0126342D01*
X0225698Y0126716D01*
X0226228Y0126716D01*
X0226602Y0126342D01*
X0226602Y0125812D01*
X0226228Y0125438D01*
X0225698Y0125438D01*
X0225324Y0125812D01*
X0231115Y0118586D02*
X0230475Y0117946D01*
X0230475Y0120066D01*
X0231974Y0121565D01*
X0234094Y0121565D01*
X0235593Y0120066D01*
X0235593Y0117946D01*
X0234094Y0116447D01*
X0231974Y0116447D01*
X0230475Y0117946D01*
X0231435Y0118343D01*
X0231435Y0119669D01*
X0232371Y0120605D01*
X0233697Y0120605D01*
X0234633Y0119669D01*
X0234633Y0118343D01*
X0233697Y0117407D01*
X0232371Y0117407D01*
X0231435Y0118343D01*
X0232395Y0118741D01*
X0232395Y0119271D01*
X0232769Y0119645D01*
X0233299Y0119645D01*
X0233673Y0119271D01*
X0233673Y0118741D01*
X0233299Y0118367D01*
X0232769Y0118367D01*
X0232395Y0118741D01*
X0238187Y0125657D02*
X0237547Y0125017D01*
X0237547Y0127137D01*
X0239046Y0128636D01*
X0241166Y0128636D01*
X0242665Y0127137D01*
X0242665Y0125017D01*
X0241166Y0123518D01*
X0239046Y0123518D01*
X0237547Y0125017D01*
X0238507Y0125414D01*
X0238507Y0126740D01*
X0239443Y0127676D01*
X0240769Y0127676D01*
X0241705Y0126740D01*
X0241705Y0125414D01*
X0240769Y0124478D01*
X0239443Y0124478D01*
X0238507Y0125414D01*
X0239467Y0125812D01*
X0239467Y0126342D01*
X0239841Y0126716D01*
X0240371Y0126716D01*
X0240745Y0126342D01*
X0240745Y0125812D01*
X0240371Y0125438D01*
X0239841Y0125438D01*
X0239467Y0125812D01*
X0231115Y0132728D02*
X0230475Y0132088D01*
X0230475Y0134208D01*
X0231974Y0135707D01*
X0234094Y0135707D01*
X0235593Y0134208D01*
X0235593Y0132088D01*
X0234094Y0130589D01*
X0231974Y0130589D01*
X0230475Y0132088D01*
X0231435Y0132485D01*
X0231435Y0133811D01*
X0232371Y0134747D01*
X0233697Y0134747D01*
X0234633Y0133811D01*
X0234633Y0132485D01*
X0233697Y0131549D01*
X0232371Y0131549D01*
X0231435Y0132485D01*
X0232395Y0132883D01*
X0232395Y0133413D01*
X0232769Y0133787D01*
X0233299Y0133787D01*
X0233673Y0133413D01*
X0233673Y0132883D01*
X0233299Y0132509D01*
X0232769Y0132509D01*
X0232395Y0132883D01*
X0238187Y0139799D02*
X0237547Y0139159D01*
X0237547Y0141279D01*
X0239046Y0142778D01*
X0241166Y0142778D01*
X0242665Y0141279D01*
X0242665Y0139159D01*
X0241166Y0137660D01*
X0239046Y0137660D01*
X0237547Y0139159D01*
X0238507Y0139556D01*
X0238507Y0140882D01*
X0239443Y0141818D01*
X0240769Y0141818D01*
X0241705Y0140882D01*
X0241705Y0139556D01*
X0240769Y0138620D01*
X0239443Y0138620D01*
X0238507Y0139556D01*
X0239467Y0139954D01*
X0239467Y0140484D01*
X0239841Y0140858D01*
X0240371Y0140858D01*
X0240745Y0140484D01*
X0240745Y0139954D01*
X0240371Y0139580D01*
X0239841Y0139580D01*
X0239467Y0139954D01*
X0245258Y0132728D02*
X0244618Y0132088D01*
X0244618Y0134208D01*
X0246117Y0135707D01*
X0248237Y0135707D01*
X0249736Y0134208D01*
X0249736Y0132088D01*
X0248237Y0130589D01*
X0246117Y0130589D01*
X0244618Y0132088D01*
X0245578Y0132485D01*
X0245578Y0133811D01*
X0246514Y0134747D01*
X0247840Y0134747D01*
X0248776Y0133811D01*
X0248776Y0132485D01*
X0247840Y0131549D01*
X0246514Y0131549D01*
X0245578Y0132485D01*
X0246538Y0132883D01*
X0246538Y0133413D01*
X0246912Y0133787D01*
X0247442Y0133787D01*
X0247816Y0133413D01*
X0247816Y0132883D01*
X0247442Y0132509D01*
X0246912Y0132509D01*
X0246538Y0132883D01*
X0252329Y0139799D02*
X0251689Y0139159D01*
X0251689Y0141279D01*
X0253188Y0142778D01*
X0255308Y0142778D01*
X0256807Y0141279D01*
X0256807Y0139159D01*
X0255308Y0137660D01*
X0253188Y0137660D01*
X0251689Y0139159D01*
X0252649Y0139556D01*
X0252649Y0140882D01*
X0253585Y0141818D01*
X0254911Y0141818D01*
X0255847Y0140882D01*
X0255847Y0139556D01*
X0254911Y0138620D01*
X0253585Y0138620D01*
X0252649Y0139556D01*
X0253609Y0139954D01*
X0253609Y0140484D01*
X0253983Y0140858D01*
X0254513Y0140858D01*
X0254887Y0140484D01*
X0254887Y0139954D01*
X0254513Y0139580D01*
X0253983Y0139580D01*
X0253609Y0139954D01*
X0245258Y0146870D02*
X0244618Y0146230D01*
X0244618Y0148350D01*
X0246117Y0149849D01*
X0248237Y0149849D01*
X0249736Y0148350D01*
X0249736Y0146230D01*
X0248237Y0144731D01*
X0246117Y0144731D01*
X0244618Y0146230D01*
X0245578Y0146627D01*
X0245578Y0147953D01*
X0246514Y0148889D01*
X0247840Y0148889D01*
X0248776Y0147953D01*
X0248776Y0146627D01*
X0247840Y0145691D01*
X0246514Y0145691D01*
X0245578Y0146627D01*
X0246538Y0147025D01*
X0246538Y0147555D01*
X0246912Y0147929D01*
X0247442Y0147929D01*
X0247816Y0147555D01*
X0247816Y0147025D01*
X0247442Y0146651D01*
X0246912Y0146651D01*
X0246538Y0147025D01*
X0252329Y0153941D02*
X0251689Y0153301D01*
X0251689Y0155421D01*
X0253188Y0156920D01*
X0255308Y0156920D01*
X0256807Y0155421D01*
X0256807Y0153301D01*
X0255308Y0151802D01*
X0253188Y0151802D01*
X0251689Y0153301D01*
X0252649Y0153698D01*
X0252649Y0155024D01*
X0253585Y0155960D01*
X0254911Y0155960D01*
X0255847Y0155024D01*
X0255847Y0153698D01*
X0254911Y0152762D01*
X0253585Y0152762D01*
X0252649Y0153698D01*
X0253609Y0154096D01*
X0253609Y0154626D01*
X0253983Y0155000D01*
X0254513Y0155000D01*
X0254887Y0154626D01*
X0254887Y0154096D01*
X0254513Y0153722D01*
X0253983Y0153722D01*
X0253609Y0154096D01*
X0259400Y0146870D02*
X0258760Y0146230D01*
X0258760Y0148350D01*
X0260259Y0149849D01*
X0262379Y0149849D01*
X0263878Y0148350D01*
X0263878Y0146230D01*
X0262379Y0144731D01*
X0260259Y0144731D01*
X0258760Y0146230D01*
X0259720Y0146627D01*
X0259720Y0147953D01*
X0260656Y0148889D01*
X0261982Y0148889D01*
X0262918Y0147953D01*
X0262918Y0146627D01*
X0261982Y0145691D01*
X0260656Y0145691D01*
X0259720Y0146627D01*
X0260680Y0147025D01*
X0260680Y0147555D01*
X0261054Y0147929D01*
X0261584Y0147929D01*
X0261958Y0147555D01*
X0261958Y0147025D01*
X0261584Y0146651D01*
X0261054Y0146651D01*
X0260680Y0147025D01*
X0266471Y0153941D02*
X0265831Y0153301D01*
X0265831Y0155421D01*
X0267330Y0156920D01*
X0269450Y0156920D01*
X0270949Y0155421D01*
X0270949Y0153301D01*
X0269450Y0151802D01*
X0267330Y0151802D01*
X0265831Y0153301D01*
X0266791Y0153698D01*
X0266791Y0155024D01*
X0267727Y0155960D01*
X0269053Y0155960D01*
X0269989Y0155024D01*
X0269989Y0153698D01*
X0269053Y0152762D01*
X0267727Y0152762D01*
X0266791Y0153698D01*
X0267751Y0154096D01*
X0267751Y0154626D01*
X0268125Y0155000D01*
X0268655Y0155000D01*
X0269029Y0154626D01*
X0269029Y0154096D01*
X0268655Y0153722D01*
X0268125Y0153722D01*
X0267751Y0154096D01*
X0259400Y0161012D02*
X0258760Y0160372D01*
X0258760Y0162492D01*
X0260259Y0163991D01*
X0262379Y0163991D01*
X0263878Y0162492D01*
X0263878Y0160372D01*
X0262379Y0158873D01*
X0260259Y0158873D01*
X0258760Y0160372D01*
X0259720Y0160769D01*
X0259720Y0162095D01*
X0260656Y0163031D01*
X0261982Y0163031D01*
X0262918Y0162095D01*
X0262918Y0160769D01*
X0261982Y0159833D01*
X0260656Y0159833D01*
X0259720Y0160769D01*
X0260680Y0161167D01*
X0260680Y0161697D01*
X0261054Y0162071D01*
X0261584Y0162071D01*
X0261958Y0161697D01*
X0261958Y0161167D01*
X0261584Y0160793D01*
X0261054Y0160793D01*
X0260680Y0161167D01*
X0266471Y0168083D02*
X0265831Y0167443D01*
X0265831Y0169563D01*
X0267330Y0171062D01*
X0269450Y0171062D01*
X0270949Y0169563D01*
X0270949Y0167443D01*
X0269450Y0165944D01*
X0267330Y0165944D01*
X0265831Y0167443D01*
X0266791Y0167840D01*
X0266791Y0169166D01*
X0267727Y0170102D01*
X0269053Y0170102D01*
X0269989Y0169166D01*
X0269989Y0167840D01*
X0269053Y0166904D01*
X0267727Y0166904D01*
X0266791Y0167840D01*
X0267751Y0168238D01*
X0267751Y0168768D01*
X0268125Y0169142D01*
X0268655Y0169142D01*
X0269029Y0168768D01*
X0269029Y0168238D01*
X0268655Y0167864D01*
X0268125Y0167864D01*
X0267751Y0168238D01*
X0273542Y0161012D02*
X0272902Y0160372D01*
X0272902Y0162492D01*
X0274401Y0163991D01*
X0276521Y0163991D01*
X0278020Y0162492D01*
X0278020Y0160372D01*
X0276521Y0158873D01*
X0274401Y0158873D01*
X0272902Y0160372D01*
X0273862Y0160769D01*
X0273862Y0162095D01*
X0274798Y0163031D01*
X0276124Y0163031D01*
X0277060Y0162095D01*
X0277060Y0160769D01*
X0276124Y0159833D01*
X0274798Y0159833D01*
X0273862Y0160769D01*
X0274822Y0161167D01*
X0274822Y0161697D01*
X0275196Y0162071D01*
X0275726Y0162071D01*
X0276100Y0161697D01*
X0276100Y0161167D01*
X0275726Y0160793D01*
X0275196Y0160793D01*
X0274822Y0161167D01*
X0280613Y0168083D02*
X0279973Y0167443D01*
X0279973Y0169563D01*
X0281472Y0171062D01*
X0283592Y0171062D01*
X0285091Y0169563D01*
X0285091Y0167443D01*
X0283592Y0165944D01*
X0281472Y0165944D01*
X0279973Y0167443D01*
X0280933Y0167840D01*
X0280933Y0169166D01*
X0281869Y0170102D01*
X0283195Y0170102D01*
X0284131Y0169166D01*
X0284131Y0167840D01*
X0283195Y0166904D01*
X0281869Y0166904D01*
X0280933Y0167840D01*
X0281893Y0168238D01*
X0281893Y0168768D01*
X0282267Y0169142D01*
X0282797Y0169142D01*
X0283171Y0168768D01*
X0283171Y0168238D01*
X0282797Y0167864D01*
X0282267Y0167864D01*
X0281893Y0168238D01*
X0273542Y0175154D02*
X0272902Y0174514D01*
X0272902Y0176634D01*
X0274401Y0178133D01*
X0276521Y0178133D01*
X0278020Y0176634D01*
X0278020Y0174514D01*
X0276521Y0173015D01*
X0274401Y0173015D01*
X0272902Y0174514D01*
X0273862Y0174911D01*
X0273862Y0176237D01*
X0274798Y0177173D01*
X0276124Y0177173D01*
X0277060Y0176237D01*
X0277060Y0174911D01*
X0276124Y0173975D01*
X0274798Y0173975D01*
X0273862Y0174911D01*
X0274822Y0175309D01*
X0274822Y0175839D01*
X0275196Y0176213D01*
X0275726Y0176213D01*
X0276100Y0175839D01*
X0276100Y0175309D01*
X0275726Y0174935D01*
X0275196Y0174935D01*
X0274822Y0175309D01*
X0280613Y0182225D02*
X0279973Y0181585D01*
X0279973Y0183705D01*
X0281472Y0185204D01*
X0283592Y0185204D01*
X0285091Y0183705D01*
X0285091Y0181585D01*
X0283592Y0180086D01*
X0281472Y0180086D01*
X0279973Y0181585D01*
X0280933Y0181982D01*
X0280933Y0183308D01*
X0281869Y0184244D01*
X0283195Y0184244D01*
X0284131Y0183308D01*
X0284131Y0181982D01*
X0283195Y0181046D01*
X0281869Y0181046D01*
X0280933Y0181982D01*
X0281893Y0182380D01*
X0281893Y0182910D01*
X0282267Y0183284D01*
X0282797Y0183284D01*
X0283171Y0182910D01*
X0283171Y0182380D01*
X0282797Y0182006D01*
X0282267Y0182006D01*
X0281893Y0182380D01*
X0287684Y0175154D02*
X0287044Y0174514D01*
X0287044Y0176634D01*
X0288543Y0178133D01*
X0290663Y0178133D01*
X0292162Y0176634D01*
X0292162Y0174514D01*
X0290663Y0173015D01*
X0288543Y0173015D01*
X0287044Y0174514D01*
X0288004Y0174911D01*
X0288004Y0176237D01*
X0288940Y0177173D01*
X0290266Y0177173D01*
X0291202Y0176237D01*
X0291202Y0174911D01*
X0290266Y0173975D01*
X0288940Y0173975D01*
X0288004Y0174911D01*
X0288964Y0175309D01*
X0288964Y0175839D01*
X0289338Y0176213D01*
X0289868Y0176213D01*
X0290242Y0175839D01*
X0290242Y0175309D01*
X0289868Y0174935D01*
X0289338Y0174935D01*
X0288964Y0175309D01*
X0294755Y0182225D02*
X0294115Y0181585D01*
X0294115Y0183705D01*
X0295614Y0185204D01*
X0297734Y0185204D01*
X0299233Y0183705D01*
X0299233Y0181585D01*
X0297734Y0180086D01*
X0295614Y0180086D01*
X0294115Y0181585D01*
X0295075Y0181982D01*
X0295075Y0183308D01*
X0296011Y0184244D01*
X0297337Y0184244D01*
X0298273Y0183308D01*
X0298273Y0181982D01*
X0297337Y0181046D01*
X0296011Y0181046D01*
X0295075Y0181982D01*
X0296035Y0182380D01*
X0296035Y0182910D01*
X0296409Y0183284D01*
X0296939Y0183284D01*
X0297313Y0182910D01*
X0297313Y0182380D01*
X0296939Y0182006D01*
X0296409Y0182006D01*
X0296035Y0182380D01*
X0287684Y0189296D02*
X0287044Y0188656D01*
X0287044Y0190776D01*
X0288543Y0192275D01*
X0290663Y0192275D01*
X0292162Y0190776D01*
X0292162Y0188656D01*
X0290663Y0187157D01*
X0288543Y0187157D01*
X0287044Y0188656D01*
X0288004Y0189053D01*
X0288004Y0190379D01*
X0288940Y0191315D01*
X0290266Y0191315D01*
X0291202Y0190379D01*
X0291202Y0189053D01*
X0290266Y0188117D01*
X0288940Y0188117D01*
X0288004Y0189053D01*
X0288964Y0189451D01*
X0288964Y0189981D01*
X0289338Y0190355D01*
X0289868Y0190355D01*
X0290242Y0189981D01*
X0290242Y0189451D01*
X0289868Y0189077D01*
X0289338Y0189077D01*
X0288964Y0189451D01*
X0294755Y0196367D02*
X0294115Y0195727D01*
X0294115Y0197847D01*
X0295614Y0199346D01*
X0297734Y0199346D01*
X0299233Y0197847D01*
X0299233Y0195727D01*
X0297734Y0194228D01*
X0295614Y0194228D01*
X0294115Y0195727D01*
X0295075Y0196124D01*
X0295075Y0197450D01*
X0296011Y0198386D01*
X0297337Y0198386D01*
X0298273Y0197450D01*
X0298273Y0196124D01*
X0297337Y0195188D01*
X0296011Y0195188D01*
X0295075Y0196124D01*
X0296035Y0196522D01*
X0296035Y0197052D01*
X0296409Y0197426D01*
X0296939Y0197426D01*
X0297313Y0197052D01*
X0297313Y0196522D01*
X0296939Y0196148D01*
X0296409Y0196148D01*
X0296035Y0196522D01*
X0301826Y0189296D02*
X0301186Y0188656D01*
X0301186Y0190776D01*
X0302685Y0192275D01*
X0304805Y0192275D01*
X0306304Y0190776D01*
X0306304Y0188656D01*
X0304805Y0187157D01*
X0302685Y0187157D01*
X0301186Y0188656D01*
X0302146Y0189053D01*
X0302146Y0190379D01*
X0303082Y0191315D01*
X0304408Y0191315D01*
X0305344Y0190379D01*
X0305344Y0189053D01*
X0304408Y0188117D01*
X0303082Y0188117D01*
X0302146Y0189053D01*
X0303106Y0189451D01*
X0303106Y0189981D01*
X0303480Y0190355D01*
X0304010Y0190355D01*
X0304384Y0189981D01*
X0304384Y0189451D01*
X0304010Y0189077D01*
X0303480Y0189077D01*
X0303106Y0189451D01*
X0308897Y0196367D02*
X0308257Y0195727D01*
X0308257Y0197847D01*
X0309756Y0199346D01*
X0311876Y0199346D01*
X0313375Y0197847D01*
X0313375Y0195727D01*
X0311876Y0194228D01*
X0309756Y0194228D01*
X0308257Y0195727D01*
X0309217Y0196124D01*
X0309217Y0197450D01*
X0310153Y0198386D01*
X0311479Y0198386D01*
X0312415Y0197450D01*
X0312415Y0196124D01*
X0311479Y0195188D01*
X0310153Y0195188D01*
X0309217Y0196124D01*
X0310177Y0196522D01*
X0310177Y0197052D01*
X0310551Y0197426D01*
X0311081Y0197426D01*
X0311455Y0197052D01*
X0311455Y0196522D01*
X0311081Y0196148D01*
X0310551Y0196148D01*
X0310177Y0196522D01*
X0301826Y0203439D02*
X0301186Y0202799D01*
X0301186Y0204919D01*
X0302685Y0206418D01*
X0304805Y0206418D01*
X0306304Y0204919D01*
X0306304Y0202799D01*
X0304805Y0201300D01*
X0302685Y0201300D01*
X0301186Y0202799D01*
X0302146Y0203196D01*
X0302146Y0204522D01*
X0303082Y0205458D01*
X0304408Y0205458D01*
X0305344Y0204522D01*
X0305344Y0203196D01*
X0304408Y0202260D01*
X0303082Y0202260D01*
X0302146Y0203196D01*
X0303106Y0203594D01*
X0303106Y0204124D01*
X0303480Y0204498D01*
X0304010Y0204498D01*
X0304384Y0204124D01*
X0304384Y0203594D01*
X0304010Y0203220D01*
X0303480Y0203220D01*
X0303106Y0203594D01*
X0308897Y0210510D02*
X0308257Y0209870D01*
X0308257Y0211990D01*
X0309756Y0213489D01*
X0311876Y0213489D01*
X0313375Y0211990D01*
X0313375Y0209870D01*
X0311876Y0208371D01*
X0309756Y0208371D01*
X0308257Y0209870D01*
X0309217Y0210267D01*
X0309217Y0211593D01*
X0310153Y0212529D01*
X0311479Y0212529D01*
X0312415Y0211593D01*
X0312415Y0210267D01*
X0311479Y0209331D01*
X0310153Y0209331D01*
X0309217Y0210267D01*
X0310177Y0210665D01*
X0310177Y0211195D01*
X0310551Y0211569D01*
X0311081Y0211569D01*
X0311455Y0211195D01*
X0311455Y0210665D01*
X0311081Y0210291D01*
X0310551Y0210291D01*
X0310177Y0210665D01*
X0315968Y0203439D02*
X0315328Y0202799D01*
X0315328Y0204919D01*
X0316827Y0206418D01*
X0318947Y0206418D01*
X0320446Y0204919D01*
X0320446Y0202799D01*
X0318947Y0201300D01*
X0316827Y0201300D01*
X0315328Y0202799D01*
X0316288Y0203196D01*
X0316288Y0204522D01*
X0317224Y0205458D01*
X0318550Y0205458D01*
X0319486Y0204522D01*
X0319486Y0203196D01*
X0318550Y0202260D01*
X0317224Y0202260D01*
X0316288Y0203196D01*
X0317248Y0203594D01*
X0317248Y0204124D01*
X0317622Y0204498D01*
X0318152Y0204498D01*
X0318526Y0204124D01*
X0318526Y0203594D01*
X0318152Y0203220D01*
X0317622Y0203220D01*
X0317248Y0203594D01*
X0323039Y0210510D02*
X0322399Y0209870D01*
X0322399Y0211990D01*
X0323898Y0213489D01*
X0326018Y0213489D01*
X0327517Y0211990D01*
X0327517Y0209870D01*
X0326018Y0208371D01*
X0323898Y0208371D01*
X0322399Y0209870D01*
X0323359Y0210267D01*
X0323359Y0211593D01*
X0324295Y0212529D01*
X0325621Y0212529D01*
X0326557Y0211593D01*
X0326557Y0210267D01*
X0325621Y0209331D01*
X0324295Y0209331D01*
X0323359Y0210267D01*
X0324319Y0210665D01*
X0324319Y0211195D01*
X0324693Y0211569D01*
X0325223Y0211569D01*
X0325597Y0211195D01*
X0325597Y0210665D01*
X0325223Y0210291D01*
X0324693Y0210291D01*
X0324319Y0210665D01*
X0315968Y0217581D02*
X0315328Y0216941D01*
X0315328Y0219061D01*
X0316827Y0220560D01*
X0318947Y0220560D01*
X0320446Y0219061D01*
X0320446Y0216941D01*
X0318947Y0215442D01*
X0316827Y0215442D01*
X0315328Y0216941D01*
X0316288Y0217338D01*
X0316288Y0218664D01*
X0317224Y0219600D01*
X0318550Y0219600D01*
X0319486Y0218664D01*
X0319486Y0217338D01*
X0318550Y0216402D01*
X0317224Y0216402D01*
X0316288Y0217338D01*
X0317248Y0217736D01*
X0317248Y0218266D01*
X0317622Y0218640D01*
X0318152Y0218640D01*
X0318526Y0218266D01*
X0318526Y0217736D01*
X0318152Y0217362D01*
X0317622Y0217362D01*
X0317248Y0217736D01*
X0323039Y0224652D02*
X0322399Y0224012D01*
X0322399Y0226132D01*
X0323898Y0227631D01*
X0326018Y0227631D01*
X0327517Y0226132D01*
X0327517Y0224012D01*
X0326018Y0222513D01*
X0323898Y0222513D01*
X0322399Y0224012D01*
X0323359Y0224409D01*
X0323359Y0225735D01*
X0324295Y0226671D01*
X0325621Y0226671D01*
X0326557Y0225735D01*
X0326557Y0224409D01*
X0325621Y0223473D01*
X0324295Y0223473D01*
X0323359Y0224409D01*
X0324319Y0224807D01*
X0324319Y0225337D01*
X0324693Y0225711D01*
X0325223Y0225711D01*
X0325597Y0225337D01*
X0325597Y0224807D01*
X0325223Y0224433D01*
X0324693Y0224433D01*
X0324319Y0224807D01*
X0330110Y0217581D02*
X0329470Y0216941D01*
X0329470Y0219061D01*
X0330969Y0220560D01*
X0333089Y0220560D01*
X0334588Y0219061D01*
X0334588Y0216941D01*
X0333089Y0215442D01*
X0330969Y0215442D01*
X0329470Y0216941D01*
X0330430Y0217338D01*
X0330430Y0218664D01*
X0331366Y0219600D01*
X0332692Y0219600D01*
X0333628Y0218664D01*
X0333628Y0217338D01*
X0332692Y0216402D01*
X0331366Y0216402D01*
X0330430Y0217338D01*
X0331390Y0217736D01*
X0331390Y0218266D01*
X0331764Y0218640D01*
X0332294Y0218640D01*
X0332668Y0218266D01*
X0332668Y0217736D01*
X0332294Y0217362D01*
X0331764Y0217362D01*
X0331390Y0217736D01*
X0337182Y0224652D02*
X0336542Y0224012D01*
X0336542Y0226132D01*
X0338041Y0227631D01*
X0340161Y0227631D01*
X0341660Y0226132D01*
X0341660Y0224012D01*
X0340161Y0222513D01*
X0338041Y0222513D01*
X0336542Y0224012D01*
X0337502Y0224409D01*
X0337502Y0225735D01*
X0338438Y0226671D01*
X0339764Y0226671D01*
X0340700Y0225735D01*
X0340700Y0224409D01*
X0339764Y0223473D01*
X0338438Y0223473D01*
X0337502Y0224409D01*
X0338462Y0224807D01*
X0338462Y0225337D01*
X0338836Y0225711D01*
X0339366Y0225711D01*
X0339740Y0225337D01*
X0339740Y0224807D01*
X0339366Y0224433D01*
X0338836Y0224433D01*
X0338462Y0224807D01*
X0330110Y0231723D02*
X0329470Y0231083D01*
X0329470Y0233203D01*
X0330969Y0234702D01*
X0333089Y0234702D01*
X0334588Y0233203D01*
X0334588Y0231083D01*
X0333089Y0229584D01*
X0330969Y0229584D01*
X0329470Y0231083D01*
X0330430Y0231480D01*
X0330430Y0232806D01*
X0331366Y0233742D01*
X0332692Y0233742D01*
X0333628Y0232806D01*
X0333628Y0231480D01*
X0332692Y0230544D01*
X0331366Y0230544D01*
X0330430Y0231480D01*
X0331390Y0231878D01*
X0331390Y0232408D01*
X0331764Y0232782D01*
X0332294Y0232782D01*
X0332668Y0232408D01*
X0332668Y0231878D01*
X0332294Y0231504D01*
X0331764Y0231504D01*
X0331390Y0231878D01*
X0337182Y0238794D02*
X0336542Y0238154D01*
X0336542Y0240274D01*
X0338041Y0241773D01*
X0340161Y0241773D01*
X0341660Y0240274D01*
X0341660Y0238154D01*
X0340161Y0236655D01*
X0338041Y0236655D01*
X0336542Y0238154D01*
X0337502Y0238551D01*
X0337502Y0239877D01*
X0338438Y0240813D01*
X0339764Y0240813D01*
X0340700Y0239877D01*
X0340700Y0238551D01*
X0339764Y0237615D01*
X0338438Y0237615D01*
X0337502Y0238551D01*
X0338462Y0238949D01*
X0338462Y0239479D01*
X0338836Y0239853D01*
X0339366Y0239853D01*
X0339740Y0239479D01*
X0339740Y0238949D01*
X0339366Y0238575D01*
X0338836Y0238575D01*
X0338462Y0238949D01*
X0344253Y0231723D02*
X0343613Y0231083D01*
X0343613Y0233203D01*
X0345112Y0234702D01*
X0347232Y0234702D01*
X0348731Y0233203D01*
X0348731Y0231083D01*
X0347232Y0229584D01*
X0345112Y0229584D01*
X0343613Y0231083D01*
X0344573Y0231480D01*
X0344573Y0232806D01*
X0345509Y0233742D01*
X0346835Y0233742D01*
X0347771Y0232806D01*
X0347771Y0231480D01*
X0346835Y0230544D01*
X0345509Y0230544D01*
X0344573Y0231480D01*
X0345533Y0231878D01*
X0345533Y0232408D01*
X0345907Y0232782D01*
X0346437Y0232782D01*
X0346811Y0232408D01*
X0346811Y0231878D01*
X0346437Y0231504D01*
X0345907Y0231504D01*
X0345533Y0231878D01*
X0344253Y0245865D02*
X0343613Y0245225D01*
X0343613Y0247345D01*
X0345112Y0248844D01*
X0347232Y0248844D01*
X0348731Y0247345D01*
X0348731Y0245225D01*
X0347232Y0243726D01*
X0345112Y0243726D01*
X0343613Y0245225D01*
X0344573Y0245622D01*
X0344573Y0246948D01*
X0345509Y0247884D01*
X0346835Y0247884D01*
X0347771Y0246948D01*
X0347771Y0245622D01*
X0346835Y0244686D01*
X0345509Y0244686D01*
X0344573Y0245622D01*
X0345533Y0246020D01*
X0345533Y0246550D01*
X0345907Y0246924D01*
X0346437Y0246924D01*
X0346811Y0246550D01*
X0346811Y0246020D01*
X0346437Y0245646D01*
X0345907Y0245646D01*
X0345533Y0246020D01*
X0346592Y0259922D02*
X0347232Y0259282D01*
X0345112Y0259282D01*
X0343613Y0260781D01*
X0343613Y0262901D01*
X0345112Y0264400D01*
X0347232Y0264400D01*
X0348731Y0262901D01*
X0348731Y0260781D01*
X0347232Y0259282D01*
X0346835Y0260242D01*
X0345509Y0260242D01*
X0344573Y0261178D01*
X0344573Y0262504D01*
X0345509Y0263440D01*
X0346835Y0263440D01*
X0347771Y0262504D01*
X0347771Y0261178D01*
X0346835Y0260242D01*
X0346437Y0261202D01*
X0345907Y0261202D01*
X0345533Y0261576D01*
X0345533Y0262106D01*
X0345907Y0262480D01*
X0346437Y0262480D01*
X0346811Y0262106D01*
X0346811Y0261576D01*
X0346437Y0261202D01*
X0353663Y0266993D02*
X0354303Y0266353D01*
X0352183Y0266353D01*
X0350684Y0267852D01*
X0350684Y0269972D01*
X0352183Y0271471D01*
X0354303Y0271471D01*
X0355802Y0269972D01*
X0355802Y0267852D01*
X0354303Y0266353D01*
X0353906Y0267313D01*
X0352580Y0267313D01*
X0351644Y0268249D01*
X0351644Y0269575D01*
X0352580Y0270511D01*
X0353906Y0270511D01*
X0354842Y0269575D01*
X0354842Y0268249D01*
X0353906Y0267313D01*
X0353508Y0268273D01*
X0352978Y0268273D01*
X0352604Y0268647D01*
X0352604Y0269177D01*
X0352978Y0269551D01*
X0353508Y0269551D01*
X0353882Y0269177D01*
X0353882Y0268647D01*
X0353508Y0268273D01*
X0346592Y0274064D02*
X0347232Y0273424D01*
X0345112Y0273424D01*
X0343613Y0274923D01*
X0343613Y0277043D01*
X0345112Y0278542D01*
X0347232Y0278542D01*
X0348731Y0277043D01*
X0348731Y0274923D01*
X0347232Y0273424D01*
X0346835Y0274384D01*
X0345509Y0274384D01*
X0344573Y0275320D01*
X0344573Y0276646D01*
X0345509Y0277582D01*
X0346835Y0277582D01*
X0347771Y0276646D01*
X0347771Y0275320D01*
X0346835Y0274384D01*
X0346437Y0275344D01*
X0345907Y0275344D01*
X0345533Y0275718D01*
X0345533Y0276248D01*
X0345907Y0276622D01*
X0346437Y0276622D01*
X0346811Y0276248D01*
X0346811Y0275718D01*
X0346437Y0275344D01*
X0339521Y0266993D02*
X0340161Y0266353D01*
X0338041Y0266353D01*
X0336542Y0267852D01*
X0336542Y0269972D01*
X0338041Y0271471D01*
X0340161Y0271471D01*
X0341660Y0269972D01*
X0341660Y0267852D01*
X0340161Y0266353D01*
X0339764Y0267313D01*
X0338438Y0267313D01*
X0337502Y0268249D01*
X0337502Y0269575D01*
X0338438Y0270511D01*
X0339764Y0270511D01*
X0340700Y0269575D01*
X0340700Y0268249D01*
X0339764Y0267313D01*
X0339366Y0268273D01*
X0338836Y0268273D01*
X0338462Y0268647D01*
X0338462Y0269177D01*
X0338836Y0269551D01*
X0339366Y0269551D01*
X0339740Y0269177D01*
X0339740Y0268647D01*
X0339366Y0268273D01*
X0332449Y0274064D02*
X0333089Y0273424D01*
X0330969Y0273424D01*
X0329470Y0274923D01*
X0329470Y0277043D01*
X0330969Y0278542D01*
X0333089Y0278542D01*
X0334588Y0277043D01*
X0334588Y0274923D01*
X0333089Y0273424D01*
X0332692Y0274384D01*
X0331366Y0274384D01*
X0330430Y0275320D01*
X0330430Y0276646D01*
X0331366Y0277582D01*
X0332692Y0277582D01*
X0333628Y0276646D01*
X0333628Y0275320D01*
X0332692Y0274384D01*
X0332294Y0275344D01*
X0331764Y0275344D01*
X0331390Y0275718D01*
X0331390Y0276248D01*
X0331764Y0276622D01*
X0332294Y0276622D01*
X0332668Y0276248D01*
X0332668Y0275718D01*
X0332294Y0275344D01*
X0339521Y0281136D02*
X0340161Y0280496D01*
X0338041Y0280496D01*
X0336542Y0281995D01*
X0336542Y0284115D01*
X0338041Y0285614D01*
X0340161Y0285614D01*
X0341660Y0284115D01*
X0341660Y0281995D01*
X0340161Y0280496D01*
X0339764Y0281456D01*
X0338438Y0281456D01*
X0337502Y0282392D01*
X0337502Y0283718D01*
X0338438Y0284654D01*
X0339764Y0284654D01*
X0340700Y0283718D01*
X0340700Y0282392D01*
X0339764Y0281456D01*
X0339366Y0282416D01*
X0338836Y0282416D01*
X0338462Y0282790D01*
X0338462Y0283320D01*
X0338836Y0283694D01*
X0339366Y0283694D01*
X0339740Y0283320D01*
X0339740Y0282790D01*
X0339366Y0282416D01*
X0332449Y0288207D02*
X0333089Y0287567D01*
X0330969Y0287567D01*
X0329470Y0289066D01*
X0329470Y0291186D01*
X0330969Y0292685D01*
X0333089Y0292685D01*
X0334588Y0291186D01*
X0334588Y0289066D01*
X0333089Y0287567D01*
X0332692Y0288527D01*
X0331366Y0288527D01*
X0330430Y0289463D01*
X0330430Y0290789D01*
X0331366Y0291725D01*
X0332692Y0291725D01*
X0333628Y0290789D01*
X0333628Y0289463D01*
X0332692Y0288527D01*
X0332294Y0289487D01*
X0331764Y0289487D01*
X0331390Y0289861D01*
X0331390Y0290391D01*
X0331764Y0290765D01*
X0332294Y0290765D01*
X0332668Y0290391D01*
X0332668Y0289861D01*
X0332294Y0289487D01*
X0325378Y0281136D02*
X0326018Y0280496D01*
X0323898Y0280496D01*
X0322399Y0281995D01*
X0322399Y0284115D01*
X0323898Y0285614D01*
X0326018Y0285614D01*
X0327517Y0284115D01*
X0327517Y0281995D01*
X0326018Y0280496D01*
X0325621Y0281456D01*
X0324295Y0281456D01*
X0323359Y0282392D01*
X0323359Y0283718D01*
X0324295Y0284654D01*
X0325621Y0284654D01*
X0326557Y0283718D01*
X0326557Y0282392D01*
X0325621Y0281456D01*
X0325223Y0282416D01*
X0324693Y0282416D01*
X0324319Y0282790D01*
X0324319Y0283320D01*
X0324693Y0283694D01*
X0325223Y0283694D01*
X0325597Y0283320D01*
X0325597Y0282790D01*
X0325223Y0282416D01*
X0318307Y0288207D02*
X0318947Y0287567D01*
X0316827Y0287567D01*
X0315328Y0289066D01*
X0315328Y0291186D01*
X0316827Y0292685D01*
X0318947Y0292685D01*
X0320446Y0291186D01*
X0320446Y0289066D01*
X0318947Y0287567D01*
X0318550Y0288527D01*
X0317224Y0288527D01*
X0316288Y0289463D01*
X0316288Y0290789D01*
X0317224Y0291725D01*
X0318550Y0291725D01*
X0319486Y0290789D01*
X0319486Y0289463D01*
X0318550Y0288527D01*
X0318152Y0289487D01*
X0317622Y0289487D01*
X0317248Y0289861D01*
X0317248Y0290391D01*
X0317622Y0290765D01*
X0318152Y0290765D01*
X0318526Y0290391D01*
X0318526Y0289861D01*
X0318152Y0289487D01*
X0325378Y0295278D02*
X0326018Y0294638D01*
X0323898Y0294638D01*
X0322399Y0296137D01*
X0322399Y0298257D01*
X0323898Y0299756D01*
X0326018Y0299756D01*
X0327517Y0298257D01*
X0327517Y0296137D01*
X0326018Y0294638D01*
X0325621Y0295598D01*
X0324295Y0295598D01*
X0323359Y0296534D01*
X0323359Y0297860D01*
X0324295Y0298796D01*
X0325621Y0298796D01*
X0326557Y0297860D01*
X0326557Y0296534D01*
X0325621Y0295598D01*
X0325223Y0296558D01*
X0324693Y0296558D01*
X0324319Y0296932D01*
X0324319Y0297462D01*
X0324693Y0297836D01*
X0325223Y0297836D01*
X0325597Y0297462D01*
X0325597Y0296932D01*
X0325223Y0296558D01*
X0318307Y0302349D02*
X0318947Y0301709D01*
X0316827Y0301709D01*
X0315328Y0303208D01*
X0315328Y0305328D01*
X0316827Y0306827D01*
X0318947Y0306827D01*
X0320446Y0305328D01*
X0320446Y0303208D01*
X0318947Y0301709D01*
X0318550Y0302669D01*
X0317224Y0302669D01*
X0316288Y0303605D01*
X0316288Y0304931D01*
X0317224Y0305867D01*
X0318550Y0305867D01*
X0319486Y0304931D01*
X0319486Y0303605D01*
X0318550Y0302669D01*
X0318152Y0303629D01*
X0317622Y0303629D01*
X0317248Y0304003D01*
X0317248Y0304533D01*
X0317622Y0304907D01*
X0318152Y0304907D01*
X0318526Y0304533D01*
X0318526Y0304003D01*
X0318152Y0303629D01*
X0311236Y0295278D02*
X0311876Y0294638D01*
X0309756Y0294638D01*
X0308257Y0296137D01*
X0308257Y0298257D01*
X0309756Y0299756D01*
X0311876Y0299756D01*
X0313375Y0298257D01*
X0313375Y0296137D01*
X0311876Y0294638D01*
X0311479Y0295598D01*
X0310153Y0295598D01*
X0309217Y0296534D01*
X0309217Y0297860D01*
X0310153Y0298796D01*
X0311479Y0298796D01*
X0312415Y0297860D01*
X0312415Y0296534D01*
X0311479Y0295598D01*
X0311081Y0296558D01*
X0310551Y0296558D01*
X0310177Y0296932D01*
X0310177Y0297462D01*
X0310551Y0297836D01*
X0311081Y0297836D01*
X0311455Y0297462D01*
X0311455Y0296932D01*
X0311081Y0296558D01*
X0304165Y0302349D02*
X0304805Y0301709D01*
X0302685Y0301709D01*
X0301186Y0303208D01*
X0301186Y0305328D01*
X0302685Y0306827D01*
X0304805Y0306827D01*
X0306304Y0305328D01*
X0306304Y0303208D01*
X0304805Y0301709D01*
X0304408Y0302669D01*
X0303082Y0302669D01*
X0302146Y0303605D01*
X0302146Y0304931D01*
X0303082Y0305867D01*
X0304408Y0305867D01*
X0305344Y0304931D01*
X0305344Y0303605D01*
X0304408Y0302669D01*
X0304010Y0303629D01*
X0303480Y0303629D01*
X0303106Y0304003D01*
X0303106Y0304533D01*
X0303480Y0304907D01*
X0304010Y0304907D01*
X0304384Y0304533D01*
X0304384Y0304003D01*
X0304010Y0303629D01*
X0311236Y0309420D02*
X0311876Y0308780D01*
X0309756Y0308780D01*
X0308257Y0310279D01*
X0308257Y0312399D01*
X0309756Y0313898D01*
X0311876Y0313898D01*
X0313375Y0312399D01*
X0313375Y0310279D01*
X0311876Y0308780D01*
X0311479Y0309740D01*
X0310153Y0309740D01*
X0309217Y0310676D01*
X0309217Y0312002D01*
X0310153Y0312938D01*
X0311479Y0312938D01*
X0312415Y0312002D01*
X0312415Y0310676D01*
X0311479Y0309740D01*
X0311081Y0310700D01*
X0310551Y0310700D01*
X0310177Y0311074D01*
X0310177Y0311604D01*
X0310551Y0311978D01*
X0311081Y0311978D01*
X0311455Y0311604D01*
X0311455Y0311074D01*
X0311081Y0310700D01*
X0304165Y0316491D02*
X0304805Y0315851D01*
X0302685Y0315851D01*
X0301186Y0317350D01*
X0301186Y0319470D01*
X0302685Y0320969D01*
X0304805Y0320969D01*
X0306304Y0319470D01*
X0306304Y0317350D01*
X0304805Y0315851D01*
X0304408Y0316811D01*
X0303082Y0316811D01*
X0302146Y0317747D01*
X0302146Y0319073D01*
X0303082Y0320009D01*
X0304408Y0320009D01*
X0305344Y0319073D01*
X0305344Y0317747D01*
X0304408Y0316811D01*
X0304010Y0317771D01*
X0303480Y0317771D01*
X0303106Y0318145D01*
X0303106Y0318675D01*
X0303480Y0319049D01*
X0304010Y0319049D01*
X0304384Y0318675D01*
X0304384Y0318145D01*
X0304010Y0317771D01*
X0297094Y0309420D02*
X0297734Y0308780D01*
X0295614Y0308780D01*
X0294115Y0310279D01*
X0294115Y0312399D01*
X0295614Y0313898D01*
X0297734Y0313898D01*
X0299233Y0312399D01*
X0299233Y0310279D01*
X0297734Y0308780D01*
X0297337Y0309740D01*
X0296011Y0309740D01*
X0295075Y0310676D01*
X0295075Y0312002D01*
X0296011Y0312938D01*
X0297337Y0312938D01*
X0298273Y0312002D01*
X0298273Y0310676D01*
X0297337Y0309740D01*
X0296939Y0310700D01*
X0296409Y0310700D01*
X0296035Y0311074D01*
X0296035Y0311604D01*
X0296409Y0311978D01*
X0296939Y0311978D01*
X0297313Y0311604D01*
X0297313Y0311074D01*
X0296939Y0310700D01*
X0290023Y0316491D02*
X0290663Y0315851D01*
X0288543Y0315851D01*
X0287044Y0317350D01*
X0287044Y0319470D01*
X0288543Y0320969D01*
X0290663Y0320969D01*
X0292162Y0319470D01*
X0292162Y0317350D01*
X0290663Y0315851D01*
X0290266Y0316811D01*
X0288940Y0316811D01*
X0288004Y0317747D01*
X0288004Y0319073D01*
X0288940Y0320009D01*
X0290266Y0320009D01*
X0291202Y0319073D01*
X0291202Y0317747D01*
X0290266Y0316811D01*
X0289868Y0317771D01*
X0289338Y0317771D01*
X0288964Y0318145D01*
X0288964Y0318675D01*
X0289338Y0319049D01*
X0289868Y0319049D01*
X0290242Y0318675D01*
X0290242Y0318145D01*
X0289868Y0317771D01*
X0297094Y0323562D02*
X0297734Y0322922D01*
X0295614Y0322922D01*
X0294115Y0324421D01*
X0294115Y0326541D01*
X0295614Y0328040D01*
X0297734Y0328040D01*
X0299233Y0326541D01*
X0299233Y0324421D01*
X0297734Y0322922D01*
X0297337Y0323882D01*
X0296011Y0323882D01*
X0295075Y0324818D01*
X0295075Y0326144D01*
X0296011Y0327080D01*
X0297337Y0327080D01*
X0298273Y0326144D01*
X0298273Y0324818D01*
X0297337Y0323882D01*
X0296939Y0324842D01*
X0296409Y0324842D01*
X0296035Y0325216D01*
X0296035Y0325746D01*
X0296409Y0326120D01*
X0296939Y0326120D01*
X0297313Y0325746D01*
X0297313Y0325216D01*
X0296939Y0324842D01*
X0290023Y0330633D02*
X0290663Y0329993D01*
X0288543Y0329993D01*
X0287044Y0331492D01*
X0287044Y0333612D01*
X0288543Y0335111D01*
X0290663Y0335111D01*
X0292162Y0333612D01*
X0292162Y0331492D01*
X0290663Y0329993D01*
X0290266Y0330953D01*
X0288940Y0330953D01*
X0288004Y0331889D01*
X0288004Y0333215D01*
X0288940Y0334151D01*
X0290266Y0334151D01*
X0291202Y0333215D01*
X0291202Y0331889D01*
X0290266Y0330953D01*
X0289868Y0331913D01*
X0289338Y0331913D01*
X0288964Y0332287D01*
X0288964Y0332817D01*
X0289338Y0333191D01*
X0289868Y0333191D01*
X0290242Y0332817D01*
X0290242Y0332287D01*
X0289868Y0331913D01*
X0282952Y0323562D02*
X0283592Y0322922D01*
X0281472Y0322922D01*
X0279973Y0324421D01*
X0279973Y0326541D01*
X0281472Y0328040D01*
X0283592Y0328040D01*
X0285091Y0326541D01*
X0285091Y0324421D01*
X0283592Y0322922D01*
X0283195Y0323882D01*
X0281869Y0323882D01*
X0280933Y0324818D01*
X0280933Y0326144D01*
X0281869Y0327080D01*
X0283195Y0327080D01*
X0284131Y0326144D01*
X0284131Y0324818D01*
X0283195Y0323882D01*
X0282797Y0324842D01*
X0282267Y0324842D01*
X0281893Y0325216D01*
X0281893Y0325746D01*
X0282267Y0326120D01*
X0282797Y0326120D01*
X0283171Y0325746D01*
X0283171Y0325216D01*
X0282797Y0324842D01*
X0275881Y0330633D02*
X0276521Y0329993D01*
X0274401Y0329993D01*
X0272902Y0331492D01*
X0272902Y0333612D01*
X0274401Y0335111D01*
X0276521Y0335111D01*
X0278020Y0333612D01*
X0278020Y0331492D01*
X0276521Y0329993D01*
X0276124Y0330953D01*
X0274798Y0330953D01*
X0273862Y0331889D01*
X0273862Y0333215D01*
X0274798Y0334151D01*
X0276124Y0334151D01*
X0277060Y0333215D01*
X0277060Y0331889D01*
X0276124Y0330953D01*
X0275726Y0331913D01*
X0275196Y0331913D01*
X0274822Y0332287D01*
X0274822Y0332817D01*
X0275196Y0333191D01*
X0275726Y0333191D01*
X0276100Y0332817D01*
X0276100Y0332287D01*
X0275726Y0331913D01*
X0282952Y0337704D02*
X0283592Y0337064D01*
X0281472Y0337064D01*
X0279973Y0338563D01*
X0279973Y0340683D01*
X0281472Y0342182D01*
X0283592Y0342182D01*
X0285091Y0340683D01*
X0285091Y0338563D01*
X0283592Y0337064D01*
X0283195Y0338024D01*
X0281869Y0338024D01*
X0280933Y0338960D01*
X0280933Y0340286D01*
X0281869Y0341222D01*
X0283195Y0341222D01*
X0284131Y0340286D01*
X0284131Y0338960D01*
X0283195Y0338024D01*
X0282797Y0338984D01*
X0282267Y0338984D01*
X0281893Y0339358D01*
X0281893Y0339888D01*
X0282267Y0340262D01*
X0282797Y0340262D01*
X0283171Y0339888D01*
X0283171Y0339358D01*
X0282797Y0338984D01*
X0275881Y0344775D02*
X0276521Y0344135D01*
X0274401Y0344135D01*
X0272902Y0345634D01*
X0272902Y0347754D01*
X0274401Y0349253D01*
X0276521Y0349253D01*
X0278020Y0347754D01*
X0278020Y0345634D01*
X0276521Y0344135D01*
X0276124Y0345095D01*
X0274798Y0345095D01*
X0273862Y0346031D01*
X0273862Y0347357D01*
X0274798Y0348293D01*
X0276124Y0348293D01*
X0277060Y0347357D01*
X0277060Y0346031D01*
X0276124Y0345095D01*
X0275726Y0346055D01*
X0275196Y0346055D01*
X0274822Y0346429D01*
X0274822Y0346959D01*
X0275196Y0347333D01*
X0275726Y0347333D01*
X0276100Y0346959D01*
X0276100Y0346429D01*
X0275726Y0346055D01*
X0268810Y0337704D02*
X0269450Y0337064D01*
X0267330Y0337064D01*
X0265831Y0338563D01*
X0265831Y0340683D01*
X0267330Y0342182D01*
X0269450Y0342182D01*
X0270949Y0340683D01*
X0270949Y0338563D01*
X0269450Y0337064D01*
X0269053Y0338024D01*
X0267727Y0338024D01*
X0266791Y0338960D01*
X0266791Y0340286D01*
X0267727Y0341222D01*
X0269053Y0341222D01*
X0269989Y0340286D01*
X0269989Y0338960D01*
X0269053Y0338024D01*
X0268655Y0338984D01*
X0268125Y0338984D01*
X0267751Y0339358D01*
X0267751Y0339888D01*
X0268125Y0340262D01*
X0268655Y0340262D01*
X0269029Y0339888D01*
X0269029Y0339358D01*
X0268655Y0338984D01*
X0261739Y0344775D02*
X0262379Y0344135D01*
X0260259Y0344135D01*
X0258760Y0345634D01*
X0258760Y0347754D01*
X0260259Y0349253D01*
X0262379Y0349253D01*
X0263878Y0347754D01*
X0263878Y0345634D01*
X0262379Y0344135D01*
X0261982Y0345095D01*
X0260656Y0345095D01*
X0259720Y0346031D01*
X0259720Y0347357D01*
X0260656Y0348293D01*
X0261982Y0348293D01*
X0262918Y0347357D01*
X0262918Y0346031D01*
X0261982Y0345095D01*
X0261584Y0346055D01*
X0261054Y0346055D01*
X0260680Y0346429D01*
X0260680Y0346959D01*
X0261054Y0347333D01*
X0261584Y0347333D01*
X0261958Y0346959D01*
X0261958Y0346429D01*
X0261584Y0346055D01*
X0268810Y0351846D02*
X0269450Y0351206D01*
X0267330Y0351206D01*
X0265831Y0352705D01*
X0265831Y0354825D01*
X0267330Y0356324D01*
X0269450Y0356324D01*
X0270949Y0354825D01*
X0270949Y0352705D01*
X0269450Y0351206D01*
X0269053Y0352166D01*
X0267727Y0352166D01*
X0266791Y0353102D01*
X0266791Y0354428D01*
X0267727Y0355364D01*
X0269053Y0355364D01*
X0269989Y0354428D01*
X0269989Y0353102D01*
X0269053Y0352166D01*
X0268655Y0353126D01*
X0268125Y0353126D01*
X0267751Y0353500D01*
X0267751Y0354030D01*
X0268125Y0354404D01*
X0268655Y0354404D01*
X0269029Y0354030D01*
X0269029Y0353500D01*
X0268655Y0353126D01*
X0261739Y0358917D02*
X0262379Y0358277D01*
X0260259Y0358277D01*
X0258760Y0359776D01*
X0258760Y0361896D01*
X0260259Y0363395D01*
X0262379Y0363395D01*
X0263878Y0361896D01*
X0263878Y0359776D01*
X0262379Y0358277D01*
X0261982Y0359237D01*
X0260656Y0359237D01*
X0259720Y0360173D01*
X0259720Y0361499D01*
X0260656Y0362435D01*
X0261982Y0362435D01*
X0262918Y0361499D01*
X0262918Y0360173D01*
X0261982Y0359237D01*
X0261584Y0360197D01*
X0261054Y0360197D01*
X0260680Y0360571D01*
X0260680Y0361101D01*
X0261054Y0361475D01*
X0261584Y0361475D01*
X0261958Y0361101D01*
X0261958Y0360571D01*
X0261584Y0360197D01*
X0254668Y0351846D02*
X0255308Y0351206D01*
X0253188Y0351206D01*
X0251689Y0352705D01*
X0251689Y0354825D01*
X0253188Y0356324D01*
X0255308Y0356324D01*
X0256807Y0354825D01*
X0256807Y0352705D01*
X0255308Y0351206D01*
X0254911Y0352166D01*
X0253585Y0352166D01*
X0252649Y0353102D01*
X0252649Y0354428D01*
X0253585Y0355364D01*
X0254911Y0355364D01*
X0255847Y0354428D01*
X0255847Y0353102D01*
X0254911Y0352166D01*
X0254513Y0353126D01*
X0253983Y0353126D01*
X0253609Y0353500D01*
X0253609Y0354030D01*
X0253983Y0354404D01*
X0254513Y0354404D01*
X0254887Y0354030D01*
X0254887Y0353500D01*
X0254513Y0353126D01*
X0247597Y0358917D02*
X0248237Y0358277D01*
X0246117Y0358277D01*
X0244618Y0359776D01*
X0244618Y0361896D01*
X0246117Y0363395D01*
X0248237Y0363395D01*
X0249736Y0361896D01*
X0249736Y0359776D01*
X0248237Y0358277D01*
X0247840Y0359237D01*
X0246514Y0359237D01*
X0245578Y0360173D01*
X0245578Y0361499D01*
X0246514Y0362435D01*
X0247840Y0362435D01*
X0248776Y0361499D01*
X0248776Y0360173D01*
X0247840Y0359237D01*
X0247442Y0360197D01*
X0246912Y0360197D01*
X0246538Y0360571D01*
X0246538Y0361101D01*
X0246912Y0361475D01*
X0247442Y0361475D01*
X0247816Y0361101D01*
X0247816Y0360571D01*
X0247442Y0360197D01*
X0254668Y0365988D02*
X0255308Y0365348D01*
X0253188Y0365348D01*
X0251689Y0366847D01*
X0251689Y0368967D01*
X0253188Y0370466D01*
X0255308Y0370466D01*
X0256807Y0368967D01*
X0256807Y0366847D01*
X0255308Y0365348D01*
X0254911Y0366308D01*
X0253585Y0366308D01*
X0252649Y0367244D01*
X0252649Y0368570D01*
X0253585Y0369506D01*
X0254911Y0369506D01*
X0255847Y0368570D01*
X0255847Y0367244D01*
X0254911Y0366308D01*
X0254513Y0367268D01*
X0253983Y0367268D01*
X0253609Y0367642D01*
X0253609Y0368172D01*
X0253983Y0368546D01*
X0254513Y0368546D01*
X0254887Y0368172D01*
X0254887Y0367642D01*
X0254513Y0367268D01*
X0247597Y0373059D02*
X0248237Y0372419D01*
X0246117Y0372419D01*
X0244618Y0373918D01*
X0244618Y0376038D01*
X0246117Y0377537D01*
X0248237Y0377537D01*
X0249736Y0376038D01*
X0249736Y0373918D01*
X0248237Y0372419D01*
X0247840Y0373379D01*
X0246514Y0373379D01*
X0245578Y0374315D01*
X0245578Y0375641D01*
X0246514Y0376577D01*
X0247840Y0376577D01*
X0248776Y0375641D01*
X0248776Y0374315D01*
X0247840Y0373379D01*
X0247442Y0374339D01*
X0246912Y0374339D01*
X0246538Y0374713D01*
X0246538Y0375243D01*
X0246912Y0375617D01*
X0247442Y0375617D01*
X0247816Y0375243D01*
X0247816Y0374713D01*
X0247442Y0374339D01*
X0240526Y0365988D02*
X0241166Y0365348D01*
X0239046Y0365348D01*
X0237547Y0366847D01*
X0237547Y0368967D01*
X0239046Y0370466D01*
X0241166Y0370466D01*
X0242665Y0368967D01*
X0242665Y0366847D01*
X0241166Y0365348D01*
X0240769Y0366308D01*
X0239443Y0366308D01*
X0238507Y0367244D01*
X0238507Y0368570D01*
X0239443Y0369506D01*
X0240769Y0369506D01*
X0241705Y0368570D01*
X0241705Y0367244D01*
X0240769Y0366308D01*
X0240371Y0367268D01*
X0239841Y0367268D01*
X0239467Y0367642D01*
X0239467Y0368172D01*
X0239841Y0368546D01*
X0240371Y0368546D01*
X0240745Y0368172D01*
X0240745Y0367642D01*
X0240371Y0367268D01*
X0233454Y0373059D02*
X0234094Y0372419D01*
X0231974Y0372419D01*
X0230475Y0373918D01*
X0230475Y0376038D01*
X0231974Y0377537D01*
X0234094Y0377537D01*
X0235593Y0376038D01*
X0235593Y0373918D01*
X0234094Y0372419D01*
X0233697Y0373379D01*
X0232371Y0373379D01*
X0231435Y0374315D01*
X0231435Y0375641D01*
X0232371Y0376577D01*
X0233697Y0376577D01*
X0234633Y0375641D01*
X0234633Y0374315D01*
X0233697Y0373379D01*
X0233299Y0374339D01*
X0232769Y0374339D01*
X0232395Y0374713D01*
X0232395Y0375243D01*
X0232769Y0375617D01*
X0233299Y0375617D01*
X0233673Y0375243D01*
X0233673Y0374713D01*
X0233299Y0374339D01*
X0240526Y0380130D02*
X0241166Y0379490D01*
X0239046Y0379490D01*
X0237547Y0380989D01*
X0237547Y0383109D01*
X0239046Y0384608D01*
X0241166Y0384608D01*
X0242665Y0383109D01*
X0242665Y0380989D01*
X0241166Y0379490D01*
X0240769Y0380450D01*
X0239443Y0380450D01*
X0238507Y0381386D01*
X0238507Y0382712D01*
X0239443Y0383648D01*
X0240769Y0383648D01*
X0241705Y0382712D01*
X0241705Y0381386D01*
X0240769Y0380450D01*
X0240371Y0381410D01*
X0239841Y0381410D01*
X0239467Y0381784D01*
X0239467Y0382314D01*
X0239841Y0382688D01*
X0240371Y0382688D01*
X0240745Y0382314D01*
X0240745Y0381784D01*
X0240371Y0381410D01*
X0226383Y0380130D02*
X0227023Y0379490D01*
X0224903Y0379490D01*
X0223404Y0380989D01*
X0223404Y0383109D01*
X0224903Y0384608D01*
X0227023Y0384608D01*
X0228522Y0383109D01*
X0228522Y0380989D01*
X0227023Y0379490D01*
X0226626Y0380450D01*
X0225300Y0380450D01*
X0224364Y0381386D01*
X0224364Y0382712D01*
X0225300Y0383648D01*
X0226626Y0383648D01*
X0227562Y0382712D01*
X0227562Y0381386D01*
X0226626Y0380450D01*
X0226228Y0381410D01*
X0225698Y0381410D01*
X0225324Y0381784D01*
X0225324Y0382314D01*
X0225698Y0382688D01*
X0226228Y0382688D01*
X0226602Y0382314D01*
X0226602Y0381784D01*
X0226228Y0381410D01*
D17*
X0091744Y0370348D03*
X0083744Y0366548D03*
X0083744Y0374148D03*
D18*
X0079063Y0418539D03*
X0071189Y0418539D03*
D19*
X0070008Y0407909D03*
X0072567Y0407909D03*
X0075126Y0407909D03*
X0077685Y0407909D03*
X0080244Y0407909D03*
D20*
X0084969Y0407909D03*
X0065283Y0407909D03*
D21*
X0060963Y0418539D03*
X0089289Y0418539D03*
D22*
X0077819Y0402299D03*
X0074669Y0402299D03*
X0074669Y0396197D03*
X0077819Y0396197D03*
D23*
X0063315Y0047850D03*
X0366465Y0047850D03*
D24*
X0344811Y0047850D03*
X0344811Y0038008D03*
X0344811Y0028165D03*
X0333000Y0028165D03*
X0333000Y0038008D03*
X0333000Y0047850D03*
X0333000Y0057693D03*
X0333000Y0067535D03*
X0323157Y0067535D03*
X0323157Y0057693D03*
X0323157Y0047850D03*
X0323157Y0038008D03*
X0323157Y0028165D03*
X0311346Y0028165D03*
X0311346Y0038008D03*
X0311346Y0047850D03*
X0311346Y0057693D03*
X0301504Y0057693D03*
X0301504Y0047850D03*
X0301504Y0038008D03*
X0301504Y0028165D03*
X0289693Y0028165D03*
X0279850Y0028165D03*
X0279850Y0038008D03*
X0279850Y0047850D03*
X0279850Y0057693D03*
X0289693Y0057693D03*
X0289693Y0047850D03*
X0289693Y0038008D03*
X0268039Y0038008D03*
X0268039Y0047850D03*
X0268039Y0057693D03*
X0268039Y0067535D03*
X0279850Y0067535D03*
X0289693Y0067535D03*
X0301504Y0067535D03*
X0311346Y0067535D03*
X0344811Y0067535D03*
X0344811Y0057693D03*
X0268039Y0028165D03*
X0247685Y0034071D03*
X0247685Y0044071D03*
X0237685Y0044071D03*
X0237685Y0034071D03*
X0227685Y0034071D03*
X0227685Y0044071D03*
X0227685Y0054071D03*
X0217685Y0054071D03*
X0207685Y0054071D03*
X0197685Y0054071D03*
X0187685Y0054071D03*
X0177685Y0054071D03*
X0177685Y0044071D03*
X0177685Y0034071D03*
X0187685Y0034071D03*
X0187685Y0044071D03*
X0197685Y0044071D03*
X0197685Y0034071D03*
X0207685Y0034071D03*
X0207685Y0044071D03*
X0217685Y0044071D03*
X0217685Y0034071D03*
X0237685Y0054071D03*
X0247685Y0054071D03*
X0157606Y0054071D03*
X0147606Y0054071D03*
X0137606Y0054071D03*
X0127606Y0054071D03*
X0117606Y0054071D03*
X0107606Y0054071D03*
X0097606Y0054071D03*
X0087606Y0054071D03*
X0087606Y0044071D03*
X0087606Y0034071D03*
X0097606Y0034071D03*
X0097606Y0044071D03*
X0107606Y0044071D03*
X0107606Y0034071D03*
X0117606Y0034071D03*
X0117606Y0044071D03*
X0127606Y0044071D03*
X0127606Y0034071D03*
X0137606Y0034071D03*
X0137606Y0044071D03*
X0147606Y0044071D03*
X0147606Y0034071D03*
X0157606Y0034071D03*
X0157606Y0044071D03*
D25*
X0082894Y0349148D03*
X0073894Y0349148D03*
X0064894Y0349148D03*
D26*
X0073994Y0324348D03*
D27*
X0072744Y0363026D03*
X0072744Y0378970D03*
D28*
X0083494Y0159098D03*
X0088494Y0159098D03*
X0093494Y0159098D03*
X0098494Y0159098D03*
X0098494Y0134898D03*
X0093494Y0134898D03*
X0088494Y0134898D03*
X0083494Y0134898D03*
D29*
X0332636Y0374203D03*
X0334604Y0374203D03*
X0336573Y0374203D03*
X0338541Y0374203D03*
X0340510Y0374203D03*
X0342478Y0374203D03*
X0344447Y0374203D03*
X0346415Y0374203D03*
X0348384Y0374203D03*
X0350352Y0374203D03*
X0350352Y0387293D03*
X0348384Y0387293D03*
X0346415Y0387293D03*
X0344447Y0387293D03*
X0342478Y0387293D03*
X0340510Y0387293D03*
X0338541Y0387293D03*
X0336573Y0387293D03*
X0334604Y0387293D03*
X0332636Y0387293D03*
D30*
X0332193Y0383701D03*
X0332193Y0381732D03*
X0332193Y0379764D03*
X0332193Y0377795D03*
X0350795Y0377795D03*
X0350795Y0379764D03*
X0350795Y0381732D03*
X0350795Y0383701D03*
D31*
X0345970Y0408248D03*
X0326768Y0408248D03*
X0304720Y0408248D03*
X0368018Y0408248D03*
X0166518Y0408248D03*
X0144470Y0408248D03*
X0125518Y0408248D03*
X0103470Y0408248D03*
D32*
X0116748Y0355394D03*
X0129740Y0355394D03*
X0129740Y0336102D03*
X0116748Y0336102D03*
D33*
X0134575Y0373008D03*
X0134575Y0380488D03*
X0125913Y0376748D03*
D34*
X0175744Y0408795D03*
X0175744Y0414701D03*
X0181744Y0414701D03*
X0181744Y0408795D03*
X0187744Y0408795D03*
X0193744Y0408795D03*
X0193744Y0414701D03*
X0187744Y0414701D03*
D35*
X0214744Y0417248D03*
X0224744Y0417248D03*
X0234744Y0417248D03*
X0244744Y0417248D03*
X0254744Y0417248D03*
X0264744Y0417248D03*
X0264744Y0405248D03*
X0254744Y0405248D03*
X0244744Y0405248D03*
X0234744Y0405248D03*
X0224744Y0405248D03*
X0214744Y0405248D03*
X0308244Y0353748D03*
X0308244Y0343748D03*
X0320244Y0343748D03*
X0320244Y0353748D03*
X0065244Y0289248D03*
X0065744Y0214248D03*
X0065744Y0204248D03*
X0065744Y0194248D03*
X0065744Y0184248D03*
X0065744Y0174248D03*
X0065744Y0164248D03*
D36*
X0055244Y0374248D03*
M02*
