%
M48
M72
T01C0.01000
T02C0.02000
T03C0.03000
T04C0.03150
T05C0.03600
T06C0.03937
T07C0.04000
T08C0.04528
T09C0.12598
%
T01
X70244Y98498
X70244Y126498
X113244Y134498
X129244Y159498
X112244Y170498
X83244Y176498
X82244Y207498
X58744Y263248
X58744Y268248
X84244Y307498
X104744Y310248
X104744Y314248
X112744Y310248
X117244Y319498
X122744Y326748
X117744Y329248
X123244Y335498
X134244Y345998
X159744Y384248
X163744Y386248
X159744Y392248
X155244Y408498
X137744Y419498
X114244Y407498
X84244Y382498
X79744Y391248
X82744Y394248
X60244Y393498
X95744Y362248
X98744Y359248
X60244Y313498
X202744Y419498
X262244Y386498
X289244Y387498
X305244Y371498
X309744Y389248
X316744Y389248
X329244Y390498
X341744Y380998
X354744Y383248
X358744Y390248
X358244Y407498
X369244Y370498
X348744Y341248
X341744Y343248
X344244Y332498
X329244Y334498
X315244Y329498
X328244Y315498
X349244Y309498
X369244Y307498
X369244Y336498
X321244Y371498
X315244Y408498
X290244Y413498
X288244Y364498
X281244Y253498
X303244Y253498
X321244Y252498
X354744Y224248
X355744Y229248
X363744Y226248
X361744Y222248
X359744Y218248
X351744Y203248
X341244Y164498
X317244Y164498
X302744Y165248
X302744Y169248
X308744Y185248
X295244Y150498
X296244Y129498
X316244Y129498
X324744Y112248
X328744Y109248
X342244Y104498
X341244Y130498
X316244Y105498
X296244Y104498
X281744Y104248
X278744Y107248
X275744Y110248
X250744Y101248
X244744Y96248
X236744Y104248
X239744Y107248
X242744Y110248
X227744Y113248
X205744Y78248
X190744Y77248
X186744Y77248
X169744Y96248
X167744Y83248
X164744Y80248
X161744Y77248
X138244Y102498
X113244Y101498
X140244Y135498
X165744Y120248
X168744Y123248
X175744Y116248
X172744Y113248
X174744Y140248
X328744Y71248
T02
X218185Y204566
X208677Y214592
X200508Y223658
X209346Y227547
X200508Y236385
X192704Y230047
X186365Y236385
X191669Y245224
X200508Y254063
X209346Y245224
X218185Y236385
X227024Y245224
X235863Y236385
X245586Y231966
X250889Y237269
X255308Y241689
X258844Y245224
X263263Y249644
X264147Y257599
X253541Y254063
X244702Y245224
X235863Y254063
X227024Y262902
X218185Y271741
X227024Y280580
X232327Y289418
X227024Y294722
X221721Y300025
X218185Y303561
X211114Y296490
X204043Y289418
X209346Y280580
X200508Y271741
X194875Y280376
X186365Y271741
X179812Y265188
X174875Y260250
X169395Y255477
X182830Y254063
X178196Y244555
X191669Y262902
X209346Y262902
X218185Y254063
X235863Y271741
X237934Y282562
X246470Y275276
X254273Y266223
X244702Y262902
X218185Y289418
X239398Y225779
X232908Y219288
X218185Y218708
T03
X55244Y374248
T04
X65283Y407909
X84969Y407909
T05
X146767Y332552
X139696Y325481
X132625Y318410
X125554Y311339
X118483Y304268
X111412Y297197
X118483Y290126
X125554Y297197
X132625Y304268
X139696Y311339
X146767Y318410
X153839Y325481
X160910Y332552
X167981Y339623
X160910Y346694
X167981Y353765
X175052Y346694
X182123Y353765
X189194Y360836
X196265Y367907
X203336Y374978
X196265Y382049
X189194Y374978
X182123Y367907
X175052Y360836
X153839Y339623
X203336Y389121
X210407Y382049
X225963Y382049
X233034Y374978
X240106Y367907
X247177Y360836
X254248Y353765
X261319Y346694
X268390Y339623
X275461Y332552
X282532Y325481
X289603Y332552
X282532Y339623
X275461Y346694
X268390Y353765
X261319Y360836
X254248Y367907
X247177Y374978
X240106Y382049
X233034Y389121
X289603Y318410
X296674Y325481
X303745Y318410
X296674Y311339
X303745Y304268
X310816Y311339
X317887Y304268
X310816Y297197
X317887Y290126
X324958Y297197
X332029Y290126
X324958Y283055
X332029Y275983
X339101Y268912
X346172Y261841
X353243Y268912
X346172Y275983
X339101Y283055
X346172Y246285
X353243Y239214
X346172Y232143
X339101Y239214
X332029Y232143
X324958Y225072
X317887Y218001
X310816Y210930
X303745Y203859
X296674Y196787
X289603Y189716
X282532Y182645
X275461Y175574
X282532Y168503
X275461Y161432
X268390Y154361
X261319Y147290
X254248Y140219
X247177Y147290
X254248Y154361
X261319Y161432
X268390Y168503
X289603Y175574
X296674Y182645
X303745Y189716
X310816Y196787
X317887Y203859
X324958Y210930
X332029Y218001
X339101Y225072
X247177Y133148
X240106Y140219
X233034Y133148
X225963Y126077
X233034Y119006
X240106Y126077
X210407Y126077
X203336Y133148
X196265Y140219
X189194Y147290
X182123Y140219
X189194Y133148
X196265Y126077
X203336Y119006
X175052Y147290
X182123Y154361
X175052Y161432
X167981Y154361
X160910Y161432
X167981Y168503
X160910Y175574
X153839Y168503
X146767Y175574
X139696Y182645
X132625Y189716
X125554Y196787
X118483Y203859
X111412Y210930
X118483Y218001
X111412Y225072
X104341Y232143
X97270Y239214
X90199Y246285
X83128Y239214
X90199Y232143
X97270Y225072
X104341Y218001
X125554Y210930
X132625Y203859
X139696Y196787
X146767Y189716
X153839Y182645
X90199Y261841
X97270Y268912
X104341Y275983
X97270Y283055
X104341Y290126
X111412Y283055
X90199Y275983
X83128Y268912
T06
X87606Y54071
X87606Y44071
X87606Y34071
X97606Y34071
X97606Y44071
X97606Y54071
X107606Y54071
X117606Y54071
X117606Y44071
X107606Y44071
X107606Y34071
X117606Y34071
X127606Y34071
X127606Y44071
X137606Y44071
X137606Y34071
X147606Y34071
X147606Y44071
X147606Y54071
X137606Y54071
X127606Y54071
X157606Y54071
X157606Y44071
X157606Y34071
X177685Y34071
X177685Y44071
X177685Y54071
X187685Y54071
X197685Y54071
X207685Y54071
X217685Y54071
X227685Y54071
X237685Y54071
X247685Y54071
X247685Y44071
X237685Y44071
X237685Y34071
X247685Y34071
X227685Y34071
X227685Y44071
X217685Y44071
X207685Y44071
X207685Y34071
X217685Y34071
X197685Y34071
X197685Y44071
X187685Y44071
X187685Y34071
X268039Y38008
X268039Y47850
X268039Y57693
X268039Y67535
X279850Y67535
X289693Y67535
X289693Y57693
X289693Y47850
X289693Y38008
X279850Y38008
X279850Y47850
X279850Y57693
X301504Y57693
X301504Y47850
X301504Y38008
X301504Y28165
X311346Y28165
X311346Y38008
X311346Y47850
X311346Y57693
X311346Y67535
X301504Y67535
X323157Y67535
X323157Y57693
X323157Y47850
X323157Y38008
X323157Y28165
X333000Y28165
X333000Y38008
X333000Y47850
X333000Y57693
X333000Y67535
X344811Y67535
X344811Y57693
X344811Y47850
X344811Y38008
X344811Y28165
X289693Y28165
X279850Y28165
X268039Y28165
T07
X65744Y164248
X65744Y174248
X65744Y184248
X65744Y194248
X65744Y204248
X65744Y214248
X65244Y289248
X214744Y405248
X224744Y405248
X234744Y405248
X244744Y405248
X254744Y405248
X264744Y405248
X264744Y417248
X254744Y417248
X244744Y417248
X234744Y417248
X224744Y417248
X214744Y417248
X308244Y353748
X308244Y343748
X320244Y343748
X320244Y353748
T08
X89289Y418539
X60963Y418539
T09
X63315Y47850
X366465Y47850
M30
