G75*
%MOIN*%
%OFA0B0*%
%FSLAX25Y25*%
%IPPOS*%
%LPD*%
%AMOC8*
5,1,8,0,0,1.08239X$1,22.5*
%
%ADD10C,0.00200*%
D10*
X0181596Y0209080D02*
X0182634Y0210118D01*
X0182115Y0209599D02*
X0180558Y0211156D01*
X0181596Y0211156D01*
X0183159Y0210643D02*
X0184197Y0211681D01*
X0183678Y0211162D02*
X0182121Y0212719D01*
X0183159Y0212719D01*
X0183424Y0213503D02*
X0183424Y0214022D01*
X0183943Y0214541D01*
X0184462Y0214541D01*
X0185500Y0213503D01*
X0185500Y0212984D01*
X0184981Y0212465D01*
X0184462Y0212465D01*
X0186960Y0209486D02*
X0187479Y0210005D01*
X0187998Y0210005D01*
X0189036Y0208967D01*
X0189036Y0208448D01*
X0188517Y0207929D01*
X0187998Y0207929D01*
X0187733Y0207145D02*
X0186695Y0206107D01*
X0187214Y0206626D02*
X0185657Y0208183D01*
X0186695Y0208183D01*
X0186960Y0208967D02*
X0186960Y0209486D01*
X0184872Y0206880D02*
X0184353Y0206880D01*
X0183834Y0206361D01*
X0183834Y0205842D01*
X0184094Y0205583D01*
X0186170Y0205583D01*
X0185132Y0204545D01*
X0171249Y0219946D02*
X0171768Y0220465D01*
X0171768Y0220984D01*
X0169692Y0220984D01*
X0170730Y0219946D01*
X0171249Y0219946D01*
X0171768Y0220984D02*
X0170730Y0222022D01*
X0170211Y0222022D01*
X0169692Y0221503D01*
X0169692Y0220984D01*
X0172552Y0221249D02*
X0173590Y0222287D01*
X0173071Y0221768D02*
X0171514Y0223325D01*
X0172552Y0223325D01*
X0172818Y0224109D02*
X0172818Y0224628D01*
X0173337Y0225147D01*
X0173856Y0225147D01*
X0174893Y0224109D01*
X0174893Y0223590D01*
X0174375Y0223071D01*
X0173856Y0223071D01*
X0204637Y0191809D02*
X0204637Y0191290D01*
X0204637Y0191809D02*
X0205156Y0192328D01*
X0205675Y0192328D01*
X0206713Y0191290D01*
X0206713Y0190771D01*
X0206194Y0190252D01*
X0205675Y0190252D01*
X0205151Y0189727D02*
X0205151Y0189208D01*
X0204632Y0188689D01*
X0204113Y0188689D01*
X0203853Y0188949D01*
X0203853Y0189468D01*
X0204113Y0189727D01*
X0203853Y0189468D02*
X0203334Y0189468D01*
X0203075Y0189727D01*
X0203075Y0190246D01*
X0203594Y0190765D01*
X0204113Y0190765D01*
X0251021Y0213368D02*
X0251540Y0212849D01*
X0252059Y0212849D01*
X0252578Y0213368D02*
X0252319Y0214146D01*
X0252059Y0214406D01*
X0251540Y0214406D01*
X0251021Y0213887D01*
X0251021Y0213368D01*
X0252578Y0213368D02*
X0253357Y0214146D01*
X0252319Y0215184D01*
X0253622Y0213362D02*
X0254141Y0213362D01*
X0254660Y0212843D01*
X0254660Y0212324D01*
X0253622Y0211286D01*
X0253103Y0211286D01*
X0252584Y0211805D01*
X0252584Y0212324D01*
X0262931Y0222671D02*
X0263969Y0221633D01*
X0263969Y0223709D01*
X0264228Y0223969D01*
X0264747Y0223969D01*
X0265266Y0223450D01*
X0265266Y0222931D01*
X0265791Y0222406D02*
X0266310Y0222406D01*
X0266829Y0221887D01*
X0266829Y0221368D01*
X0265791Y0220330D01*
X0265272Y0220330D01*
X0264753Y0220849D01*
X0264753Y0221368D01*
X0262666Y0223456D02*
X0262666Y0225532D01*
X0261628Y0224494D01*
X0261628Y0223975D01*
X0262147Y0223456D01*
X0262666Y0223456D01*
X0263704Y0224494D01*
X0263704Y0225013D01*
X0263185Y0225532D01*
X0262666Y0225532D01*
X0266047Y0228394D02*
X0266566Y0227875D01*
X0267085Y0227875D01*
X0267604Y0228394D02*
X0267345Y0229172D01*
X0267085Y0229432D01*
X0266566Y0229432D01*
X0266047Y0228913D01*
X0266047Y0228394D01*
X0267604Y0228394D02*
X0268383Y0229172D01*
X0267345Y0230210D01*
X0269426Y0228129D02*
X0267869Y0226572D01*
X0268388Y0226053D02*
X0267350Y0227091D01*
X0269426Y0227091D02*
X0269426Y0228129D01*
X0270210Y0226826D02*
X0270729Y0226826D01*
X0271248Y0226307D01*
X0271248Y0225788D01*
X0270210Y0224750D01*
X0269691Y0224750D01*
X0269172Y0225269D01*
X0269172Y0225788D01*
X0273592Y0229688D02*
X0273592Y0230207D01*
X0273592Y0229688D02*
X0274111Y0229169D01*
X0274630Y0229169D01*
X0275668Y0230207D01*
X0275668Y0230726D01*
X0275149Y0231245D01*
X0274630Y0231245D01*
X0273846Y0231510D02*
X0273846Y0232548D01*
X0272289Y0230991D01*
X0272808Y0230472D02*
X0271770Y0231510D01*
X0271505Y0232294D02*
X0270986Y0232294D01*
X0270467Y0232813D01*
X0270467Y0233332D01*
X0271505Y0234370D01*
X0272024Y0234370D01*
X0272543Y0233851D01*
X0272543Y0233332D01*
X0272283Y0233073D01*
X0271764Y0233073D01*
X0270986Y0233851D01*
X0274532Y0236879D02*
X0274532Y0237398D01*
X0274792Y0237658D01*
X0275311Y0237658D01*
X0276089Y0236879D01*
X0275570Y0236360D01*
X0275051Y0236360D01*
X0274532Y0236879D01*
X0276089Y0236879D02*
X0276089Y0237917D01*
X0275830Y0238696D01*
X0277912Y0236614D02*
X0276355Y0235057D01*
X0276874Y0234538D02*
X0275836Y0235576D01*
X0277912Y0235576D02*
X0277912Y0236614D01*
X0278696Y0235311D02*
X0279215Y0235311D01*
X0279734Y0234792D01*
X0279734Y0234273D01*
X0278696Y0233235D01*
X0278177Y0233235D01*
X0277658Y0233754D01*
X0277658Y0234273D01*
X0281547Y0237643D02*
X0281547Y0238162D01*
X0281547Y0237643D02*
X0282066Y0237124D01*
X0282585Y0237124D01*
X0283623Y0238162D01*
X0283623Y0238681D01*
X0283104Y0239200D01*
X0282585Y0239200D01*
X0281801Y0239465D02*
X0281801Y0240503D01*
X0280244Y0238946D01*
X0280763Y0238427D02*
X0279725Y0239465D01*
X0279459Y0240249D02*
X0279719Y0240509D01*
X0279719Y0241028D01*
X0279200Y0241547D01*
X0278681Y0241547D01*
X0278422Y0241287D01*
X0278422Y0240768D01*
X0278941Y0240249D01*
X0279459Y0240249D01*
X0279719Y0241028D02*
X0280238Y0241028D01*
X0280497Y0241287D01*
X0280497Y0241806D01*
X0279978Y0242325D01*
X0279459Y0242325D01*
X0279200Y0242066D01*
X0279200Y0241547D01*
X0277558Y0269221D02*
X0276001Y0270778D01*
X0277558Y0270778D01*
X0276520Y0269740D01*
X0278602Y0270784D02*
X0279121Y0270784D01*
X0279640Y0271303D01*
X0279640Y0271822D01*
X0278602Y0272860D01*
X0278083Y0272860D01*
X0277564Y0272341D01*
X0277564Y0271822D01*
X0261443Y0288462D02*
X0260924Y0288462D01*
X0261443Y0288462D02*
X0261962Y0288981D01*
X0261962Y0289500D01*
X0260924Y0290538D01*
X0260405Y0290538D01*
X0259886Y0290019D01*
X0259886Y0289500D01*
X0259880Y0288456D02*
X0259102Y0287677D01*
X0259102Y0287158D01*
X0259361Y0286899D01*
X0259880Y0286899D01*
X0260399Y0287418D01*
X0260399Y0287937D01*
X0259880Y0288456D01*
X0258842Y0288456D01*
X0258064Y0288196D01*
X0246517Y0301820D02*
X0246257Y0302079D01*
X0244181Y0302079D01*
X0243922Y0302339D01*
X0244960Y0303377D01*
X0245744Y0303642D02*
X0245744Y0304161D01*
X0246263Y0304680D01*
X0246782Y0304680D01*
X0247820Y0303642D01*
X0247820Y0303123D01*
X0247301Y0302604D01*
X0246782Y0302604D01*
X0235374Y0314011D02*
X0236412Y0315049D01*
X0235893Y0314530D02*
X0234336Y0316087D01*
X0235374Y0316087D01*
X0235639Y0316872D02*
X0235639Y0317391D01*
X0236158Y0317910D01*
X0236677Y0317910D01*
X0237715Y0316872D01*
X0237715Y0316353D01*
X0237196Y0315834D01*
X0236677Y0315834D01*
X0234590Y0313746D02*
X0234590Y0313227D01*
X0234071Y0312708D01*
X0233552Y0312708D01*
X0233293Y0312968D01*
X0233293Y0313487D01*
X0233552Y0313746D01*
X0233293Y0313487D02*
X0232774Y0313487D01*
X0232514Y0313746D01*
X0232514Y0314265D01*
X0233033Y0314784D01*
X0233552Y0314784D01*
X0230960Y0317376D02*
X0229922Y0316338D01*
X0230441Y0316857D02*
X0228884Y0318414D01*
X0229922Y0318414D01*
X0230188Y0319198D02*
X0230188Y0319717D01*
X0230707Y0320236D01*
X0231226Y0320236D01*
X0232264Y0319198D01*
X0232264Y0318679D01*
X0231745Y0318160D01*
X0231226Y0318160D01*
X0192805Y0302447D02*
X0192805Y0301928D01*
X0191767Y0300890D01*
X0191248Y0300890D01*
X0190729Y0301409D01*
X0190729Y0301928D01*
X0190205Y0302453D02*
X0190464Y0302713D01*
X0190464Y0303232D01*
X0189945Y0303751D01*
X0189426Y0303751D01*
X0189167Y0303491D01*
X0189167Y0302972D01*
X0189686Y0302453D01*
X0190205Y0302453D01*
X0190464Y0303232D02*
X0190983Y0303232D01*
X0191242Y0303491D01*
X0191242Y0304010D01*
X0190723Y0304529D01*
X0190205Y0304529D01*
X0189945Y0304270D01*
X0189945Y0303751D01*
X0191767Y0302966D02*
X0192286Y0302966D01*
X0192805Y0302447D01*
X0175127Y0284770D02*
X0175127Y0284251D01*
X0174089Y0283213D01*
X0173570Y0283213D01*
X0173051Y0283732D01*
X0173051Y0284251D01*
X0172527Y0284775D02*
X0172008Y0284775D01*
X0171489Y0285294D01*
X0171489Y0285813D01*
X0172527Y0286851D01*
X0173046Y0286851D01*
X0173565Y0286332D01*
X0173565Y0285813D01*
X0173305Y0285554D01*
X0172786Y0285554D01*
X0172008Y0286332D01*
X0174089Y0285289D02*
X0174608Y0285289D01*
X0175127Y0284770D01*
X0163637Y0273279D02*
X0163637Y0272760D01*
X0162599Y0271722D01*
X0162080Y0271722D01*
X0161561Y0272241D01*
X0161561Y0272760D01*
X0160777Y0273025D02*
X0159739Y0274063D01*
X0160258Y0273544D02*
X0161815Y0275101D01*
X0161815Y0274063D01*
X0162599Y0273798D02*
X0163118Y0273798D01*
X0163637Y0273279D01*
X0160771Y0276145D02*
X0159733Y0277183D01*
X0159474Y0276923D01*
X0159474Y0274848D01*
X0159214Y0274588D01*
X0155368Y0269174D02*
X0155887Y0268655D01*
X0155887Y0268136D01*
X0156412Y0267611D02*
X0156931Y0267611D01*
X0157450Y0267092D01*
X0157450Y0266573D01*
X0156412Y0265535D01*
X0155893Y0265535D01*
X0155374Y0266054D01*
X0155374Y0266573D01*
X0154590Y0266838D02*
X0154590Y0268914D01*
X0154849Y0269174D01*
X0155368Y0269174D01*
X0153552Y0267876D02*
X0154590Y0266838D01*
M02*
