G75*
%MOIN*%
%OFA0B0*%
%FSLAX25Y25*%
%IPPOS*%
%LPD*%
%AMOC8*
5,1,8,0,0,1.08239X$1,22.5*
%
%ADD10R,0.01181X0.06299*%
%ADD11R,0.06299X0.01181*%
%ADD12R,0.03937X0.04331*%
%ADD13R,0.06299X0.05906*%
%ADD14R,0.04331X0.03937*%
%ADD15R,0.03500X0.03100*%
%ADD16R,0.05906X0.06102*%
%ADD17R,0.01575X0.05315*%
%ADD18R,0.01772X0.02756*%
%ADD19R,0.05900X0.07900*%
%ADD20R,0.15000X0.07900*%
%ADD21R,0.09449X0.07087*%
%ADD22R,0.02600X0.08000*%
%ADD23R,0.00984X0.02657*%
%ADD24R,0.02657X0.00984*%
%ADD25R,0.07087X0.12598*%
%ADD26R,0.03543X0.05906*%
%ADD27R,0.05512X0.03937*%
%ADD28R,0.03150X0.03150*%
D10*
G36*
X0225978Y0198386D02*
X0225144Y0197552D01*
X0220692Y0202004D01*
X0221526Y0202838D01*
X0225978Y0198386D01*
G37*
G36*
X0227370Y0199778D02*
X0226536Y0198944D01*
X0222084Y0203396D01*
X0222918Y0204230D01*
X0227370Y0199778D01*
G37*
G36*
X0228762Y0201170D02*
X0227928Y0200336D01*
X0223476Y0204788D01*
X0224310Y0205622D01*
X0228762Y0201170D01*
G37*
G36*
X0230154Y0202562D02*
X0229320Y0201728D01*
X0224868Y0206180D01*
X0225702Y0207014D01*
X0230154Y0202562D01*
G37*
G36*
X0231546Y0203954D02*
X0230712Y0203120D01*
X0226260Y0207572D01*
X0227094Y0208406D01*
X0231546Y0203954D01*
G37*
G36*
X0232938Y0205346D02*
X0232104Y0204512D01*
X0227652Y0208964D01*
X0228486Y0209798D01*
X0232938Y0205346D01*
G37*
G36*
X0234330Y0206738D02*
X0233496Y0205904D01*
X0229044Y0210356D01*
X0229878Y0211190D01*
X0234330Y0206738D01*
G37*
G36*
X0235722Y0208130D02*
X0234888Y0207296D01*
X0230436Y0211748D01*
X0231270Y0212582D01*
X0235722Y0208130D01*
G37*
G36*
X0237114Y0209521D02*
X0236280Y0208687D01*
X0231828Y0213139D01*
X0232662Y0213973D01*
X0237114Y0209521D01*
G37*
G36*
X0238506Y0210913D02*
X0237672Y0210079D01*
X0233220Y0214531D01*
X0234054Y0215365D01*
X0238506Y0210913D01*
G37*
G36*
X0239898Y0212305D02*
X0239064Y0211471D01*
X0234612Y0215923D01*
X0235446Y0216757D01*
X0239898Y0212305D01*
G37*
G36*
X0241290Y0213697D02*
X0240456Y0212863D01*
X0236004Y0217315D01*
X0236838Y0218149D01*
X0241290Y0213697D01*
G37*
G36*
X0242682Y0215089D02*
X0241848Y0214255D01*
X0237396Y0218707D01*
X0238230Y0219541D01*
X0242682Y0215089D01*
G37*
G36*
X0244074Y0216481D02*
X0243240Y0215647D01*
X0238788Y0220099D01*
X0239622Y0220933D01*
X0244074Y0216481D01*
G37*
G36*
X0245466Y0217873D02*
X0244632Y0217039D01*
X0240180Y0221491D01*
X0241014Y0222325D01*
X0245466Y0217873D01*
G37*
G36*
X0246858Y0219265D02*
X0246024Y0218431D01*
X0241572Y0222883D01*
X0242406Y0223717D01*
X0246858Y0219265D01*
G37*
G36*
X0248250Y0220657D02*
X0247416Y0219823D01*
X0242964Y0224275D01*
X0243798Y0225109D01*
X0248250Y0220657D01*
G37*
G36*
X0249641Y0222049D02*
X0248807Y0221215D01*
X0244355Y0225667D01*
X0245189Y0226501D01*
X0249641Y0222049D01*
G37*
G36*
X0251033Y0223441D02*
X0250199Y0222607D01*
X0245747Y0227059D01*
X0246581Y0227893D01*
X0251033Y0223441D01*
G37*
G36*
X0252425Y0224833D02*
X0251591Y0223999D01*
X0247139Y0228451D01*
X0247973Y0229285D01*
X0252425Y0224833D01*
G37*
G36*
X0253817Y0226225D02*
X0252983Y0225391D01*
X0248531Y0229843D01*
X0249365Y0230677D01*
X0253817Y0226225D01*
G37*
G36*
X0255209Y0227617D02*
X0254375Y0226783D01*
X0249923Y0231235D01*
X0250757Y0232069D01*
X0255209Y0227617D01*
G37*
G36*
X0256601Y0229009D02*
X0255767Y0228175D01*
X0251315Y0232627D01*
X0252149Y0233461D01*
X0256601Y0229009D01*
G37*
G36*
X0257993Y0230401D02*
X0257159Y0229567D01*
X0252707Y0234019D01*
X0253541Y0234853D01*
X0257993Y0230401D01*
G37*
G36*
X0259385Y0231793D02*
X0258551Y0230959D01*
X0254099Y0235411D01*
X0254933Y0236245D01*
X0259385Y0231793D01*
G37*
G36*
X0260777Y0233185D02*
X0259943Y0232351D01*
X0255491Y0236803D01*
X0256325Y0237637D01*
X0260777Y0233185D01*
G37*
G36*
X0262169Y0234576D02*
X0261335Y0233742D01*
X0256883Y0238194D01*
X0257717Y0239028D01*
X0262169Y0234576D01*
G37*
G36*
X0263561Y0235968D02*
X0262727Y0235134D01*
X0258275Y0239586D01*
X0259109Y0240420D01*
X0263561Y0235968D01*
G37*
G36*
X0264953Y0237360D02*
X0264119Y0236526D01*
X0259667Y0240978D01*
X0260501Y0241812D01*
X0264953Y0237360D01*
G37*
G36*
X0266345Y0238752D02*
X0265511Y0237918D01*
X0261059Y0242370D01*
X0261893Y0243204D01*
X0266345Y0238752D01*
G37*
G36*
X0267737Y0240144D02*
X0266903Y0239310D01*
X0262451Y0243762D01*
X0263285Y0244596D01*
X0267737Y0240144D01*
G37*
G36*
X0269129Y0241536D02*
X0268295Y0240702D01*
X0263843Y0245154D01*
X0264677Y0245988D01*
X0269129Y0241536D01*
G37*
G36*
X0270521Y0242928D02*
X0269687Y0242094D01*
X0265235Y0246546D01*
X0266069Y0247380D01*
X0270521Y0242928D01*
G37*
G36*
X0271913Y0244320D02*
X0271079Y0243486D01*
X0266627Y0247938D01*
X0267461Y0248772D01*
X0271913Y0244320D01*
G37*
G36*
X0273304Y0245712D02*
X0272470Y0244878D01*
X0268018Y0249330D01*
X0268852Y0250164D01*
X0273304Y0245712D01*
G37*
G36*
X0274696Y0247104D02*
X0273862Y0246270D01*
X0269410Y0250722D01*
X0270244Y0251556D01*
X0274696Y0247104D01*
G37*
G36*
X0215678Y0306122D02*
X0214844Y0305288D01*
X0210392Y0309740D01*
X0211226Y0310574D01*
X0215678Y0306122D01*
G37*
G36*
X0214286Y0304730D02*
X0213452Y0303896D01*
X0209000Y0308348D01*
X0209834Y0309182D01*
X0214286Y0304730D01*
G37*
G36*
X0212894Y0303338D02*
X0212060Y0302504D01*
X0207608Y0306956D01*
X0208442Y0307790D01*
X0212894Y0303338D01*
G37*
G36*
X0211502Y0301946D02*
X0210668Y0301112D01*
X0206216Y0305564D01*
X0207050Y0306398D01*
X0211502Y0301946D01*
G37*
G36*
X0210110Y0300555D02*
X0209276Y0299721D01*
X0204824Y0304173D01*
X0205658Y0305007D01*
X0210110Y0300555D01*
G37*
G36*
X0208718Y0299163D02*
X0207884Y0298329D01*
X0203432Y0302781D01*
X0204266Y0303615D01*
X0208718Y0299163D01*
G37*
G36*
X0207326Y0297771D02*
X0206492Y0296937D01*
X0202040Y0301389D01*
X0202874Y0302223D01*
X0207326Y0297771D01*
G37*
G36*
X0205934Y0296379D02*
X0205100Y0295545D01*
X0200648Y0299997D01*
X0201482Y0300831D01*
X0205934Y0296379D01*
G37*
G36*
X0204543Y0294987D02*
X0203709Y0294153D01*
X0199257Y0298605D01*
X0200091Y0299439D01*
X0204543Y0294987D01*
G37*
G36*
X0203151Y0293595D02*
X0202317Y0292761D01*
X0197865Y0297213D01*
X0198699Y0298047D01*
X0203151Y0293595D01*
G37*
G36*
X0201759Y0292203D02*
X0200925Y0291369D01*
X0196473Y0295821D01*
X0197307Y0296655D01*
X0201759Y0292203D01*
G37*
G36*
X0200367Y0290811D02*
X0199533Y0289977D01*
X0195081Y0294429D01*
X0195915Y0295263D01*
X0200367Y0290811D01*
G37*
G36*
X0198975Y0289419D02*
X0198141Y0288585D01*
X0193689Y0293037D01*
X0194523Y0293871D01*
X0198975Y0289419D01*
G37*
G36*
X0197583Y0288027D02*
X0196749Y0287193D01*
X0192297Y0291645D01*
X0193131Y0292479D01*
X0197583Y0288027D01*
G37*
G36*
X0196191Y0286635D02*
X0195357Y0285801D01*
X0190905Y0290253D01*
X0191739Y0291087D01*
X0196191Y0286635D01*
G37*
G36*
X0194799Y0285243D02*
X0193965Y0284409D01*
X0189513Y0288861D01*
X0190347Y0289695D01*
X0194799Y0285243D01*
G37*
G36*
X0193407Y0283851D02*
X0192573Y0283017D01*
X0188121Y0287469D01*
X0188955Y0288303D01*
X0193407Y0283851D01*
G37*
G36*
X0192015Y0282459D02*
X0191181Y0281625D01*
X0186729Y0286077D01*
X0187563Y0286911D01*
X0192015Y0282459D01*
G37*
G36*
X0190623Y0281067D02*
X0189789Y0280233D01*
X0185337Y0284685D01*
X0186171Y0285519D01*
X0190623Y0281067D01*
G37*
G36*
X0189231Y0279675D02*
X0188397Y0278841D01*
X0183945Y0283293D01*
X0184779Y0284127D01*
X0189231Y0279675D01*
G37*
G36*
X0187839Y0278283D02*
X0187005Y0277449D01*
X0182553Y0281901D01*
X0183387Y0282735D01*
X0187839Y0278283D01*
G37*
G36*
X0186447Y0276892D02*
X0185613Y0276058D01*
X0181161Y0280510D01*
X0181995Y0281344D01*
X0186447Y0276892D01*
G37*
G36*
X0185055Y0275500D02*
X0184221Y0274666D01*
X0179769Y0279118D01*
X0180603Y0279952D01*
X0185055Y0275500D01*
G37*
G36*
X0183663Y0274108D02*
X0182829Y0273274D01*
X0178377Y0277726D01*
X0179211Y0278560D01*
X0183663Y0274108D01*
G37*
G36*
X0182271Y0272716D02*
X0181437Y0271882D01*
X0176985Y0276334D01*
X0177819Y0277168D01*
X0182271Y0272716D01*
G37*
G36*
X0180880Y0271324D02*
X0180046Y0270490D01*
X0175594Y0274942D01*
X0176428Y0275776D01*
X0180880Y0271324D01*
G37*
G36*
X0179488Y0269932D02*
X0178654Y0269098D01*
X0174202Y0273550D01*
X0175036Y0274384D01*
X0179488Y0269932D01*
G37*
G36*
X0178096Y0268540D02*
X0177262Y0267706D01*
X0172810Y0272158D01*
X0173644Y0272992D01*
X0178096Y0268540D01*
G37*
G36*
X0176704Y0267148D02*
X0175870Y0266314D01*
X0171418Y0270766D01*
X0172252Y0271600D01*
X0176704Y0267148D01*
G37*
G36*
X0175312Y0265756D02*
X0174478Y0264922D01*
X0170026Y0269374D01*
X0170860Y0270208D01*
X0175312Y0265756D01*
G37*
G36*
X0173920Y0264364D02*
X0173086Y0263530D01*
X0168634Y0267982D01*
X0169468Y0268816D01*
X0173920Y0264364D01*
G37*
G36*
X0172528Y0262972D02*
X0171694Y0262138D01*
X0167242Y0266590D01*
X0168076Y0267424D01*
X0172528Y0262972D01*
G37*
G36*
X0171136Y0261580D02*
X0170302Y0260746D01*
X0165850Y0265198D01*
X0166684Y0266032D01*
X0171136Y0261580D01*
G37*
G36*
X0169744Y0260188D02*
X0168910Y0259354D01*
X0164458Y0263806D01*
X0165292Y0264640D01*
X0169744Y0260188D01*
G37*
G36*
X0168352Y0258796D02*
X0167518Y0257962D01*
X0163066Y0262414D01*
X0163900Y0263248D01*
X0168352Y0258796D01*
G37*
G36*
X0166960Y0257404D02*
X0166126Y0256570D01*
X0161674Y0261022D01*
X0162508Y0261856D01*
X0166960Y0257404D01*
G37*
D11*
G36*
X0166960Y0250722D02*
X0162508Y0246270D01*
X0161674Y0247104D01*
X0166126Y0251556D01*
X0166960Y0250722D01*
G37*
G36*
X0168352Y0249330D02*
X0163900Y0244878D01*
X0163066Y0245712D01*
X0167518Y0250164D01*
X0168352Y0249330D01*
G37*
G36*
X0169744Y0247938D02*
X0165292Y0243486D01*
X0164458Y0244320D01*
X0168910Y0248772D01*
X0169744Y0247938D01*
G37*
G36*
X0171136Y0246546D02*
X0166684Y0242094D01*
X0165850Y0242928D01*
X0170302Y0247380D01*
X0171136Y0246546D01*
G37*
G36*
X0172528Y0245154D02*
X0168076Y0240702D01*
X0167242Y0241536D01*
X0171694Y0245988D01*
X0172528Y0245154D01*
G37*
G36*
X0173920Y0243762D02*
X0169468Y0239310D01*
X0168634Y0240144D01*
X0173086Y0244596D01*
X0173920Y0243762D01*
G37*
G36*
X0175312Y0242370D02*
X0170860Y0237918D01*
X0170026Y0238752D01*
X0174478Y0243204D01*
X0175312Y0242370D01*
G37*
G36*
X0176704Y0240978D02*
X0172252Y0236526D01*
X0171418Y0237360D01*
X0175870Y0241812D01*
X0176704Y0240978D01*
G37*
G36*
X0178096Y0239586D02*
X0173644Y0235134D01*
X0172810Y0235968D01*
X0177262Y0240420D01*
X0178096Y0239586D01*
G37*
G36*
X0179488Y0238194D02*
X0175036Y0233742D01*
X0174202Y0234576D01*
X0178654Y0239028D01*
X0179488Y0238194D01*
G37*
G36*
X0180880Y0236803D02*
X0176428Y0232351D01*
X0175594Y0233185D01*
X0180046Y0237637D01*
X0180880Y0236803D01*
G37*
G36*
X0182271Y0235411D02*
X0177819Y0230959D01*
X0176985Y0231793D01*
X0181437Y0236245D01*
X0182271Y0235411D01*
G37*
G36*
X0183663Y0234019D02*
X0179211Y0229567D01*
X0178377Y0230401D01*
X0182829Y0234853D01*
X0183663Y0234019D01*
G37*
G36*
X0185055Y0232627D02*
X0180603Y0228175D01*
X0179769Y0229009D01*
X0184221Y0233461D01*
X0185055Y0232627D01*
G37*
G36*
X0186447Y0231235D02*
X0181995Y0226783D01*
X0181161Y0227617D01*
X0185613Y0232069D01*
X0186447Y0231235D01*
G37*
G36*
X0187839Y0229843D02*
X0183387Y0225391D01*
X0182553Y0226225D01*
X0187005Y0230677D01*
X0187839Y0229843D01*
G37*
G36*
X0189231Y0228451D02*
X0184779Y0223999D01*
X0183945Y0224833D01*
X0188397Y0229285D01*
X0189231Y0228451D01*
G37*
G36*
X0190623Y0227059D02*
X0186171Y0222607D01*
X0185337Y0223441D01*
X0189789Y0227893D01*
X0190623Y0227059D01*
G37*
G36*
X0192015Y0225667D02*
X0187563Y0221215D01*
X0186729Y0222049D01*
X0191181Y0226501D01*
X0192015Y0225667D01*
G37*
G36*
X0193407Y0224275D02*
X0188955Y0219823D01*
X0188121Y0220657D01*
X0192573Y0225109D01*
X0193407Y0224275D01*
G37*
G36*
X0194799Y0222883D02*
X0190347Y0218431D01*
X0189513Y0219265D01*
X0193965Y0223717D01*
X0194799Y0222883D01*
G37*
G36*
X0196191Y0221491D02*
X0191739Y0217039D01*
X0190905Y0217873D01*
X0195357Y0222325D01*
X0196191Y0221491D01*
G37*
G36*
X0197583Y0220099D02*
X0193131Y0215647D01*
X0192297Y0216481D01*
X0196749Y0220933D01*
X0197583Y0220099D01*
G37*
G36*
X0198975Y0218707D02*
X0194523Y0214255D01*
X0193689Y0215089D01*
X0198141Y0219541D01*
X0198975Y0218707D01*
G37*
G36*
X0200367Y0217315D02*
X0195915Y0212863D01*
X0195081Y0213697D01*
X0199533Y0218149D01*
X0200367Y0217315D01*
G37*
G36*
X0201759Y0215923D02*
X0197307Y0211471D01*
X0196473Y0212305D01*
X0200925Y0216757D01*
X0201759Y0215923D01*
G37*
G36*
X0203151Y0214531D02*
X0198699Y0210079D01*
X0197865Y0210913D01*
X0202317Y0215365D01*
X0203151Y0214531D01*
G37*
G36*
X0204543Y0213139D02*
X0200091Y0208687D01*
X0199257Y0209521D01*
X0203709Y0213973D01*
X0204543Y0213139D01*
G37*
G36*
X0205934Y0211748D02*
X0201482Y0207296D01*
X0200648Y0208130D01*
X0205100Y0212582D01*
X0205934Y0211748D01*
G37*
G36*
X0207326Y0210356D02*
X0202874Y0205904D01*
X0202040Y0206738D01*
X0206492Y0211190D01*
X0207326Y0210356D01*
G37*
G36*
X0208718Y0208964D02*
X0204266Y0204512D01*
X0203432Y0205346D01*
X0207884Y0209798D01*
X0208718Y0208964D01*
G37*
G36*
X0210110Y0207572D02*
X0205658Y0203120D01*
X0204824Y0203954D01*
X0209276Y0208406D01*
X0210110Y0207572D01*
G37*
G36*
X0211502Y0206180D02*
X0207050Y0201728D01*
X0206216Y0202562D01*
X0210668Y0207014D01*
X0211502Y0206180D01*
G37*
G36*
X0212894Y0204788D02*
X0208442Y0200336D01*
X0207608Y0201170D01*
X0212060Y0205622D01*
X0212894Y0204788D01*
G37*
G36*
X0214286Y0203396D02*
X0209834Y0198944D01*
X0209000Y0199778D01*
X0213452Y0204230D01*
X0214286Y0203396D01*
G37*
G36*
X0215678Y0202004D02*
X0211226Y0197552D01*
X0210392Y0198386D01*
X0214844Y0202838D01*
X0215678Y0202004D01*
G37*
G36*
X0273304Y0262414D02*
X0268852Y0257962D01*
X0268018Y0258796D01*
X0272470Y0263248D01*
X0273304Y0262414D01*
G37*
G36*
X0274696Y0261022D02*
X0270244Y0256570D01*
X0269410Y0257404D01*
X0273862Y0261856D01*
X0274696Y0261022D01*
G37*
G36*
X0271913Y0263806D02*
X0267461Y0259354D01*
X0266627Y0260188D01*
X0271079Y0264640D01*
X0271913Y0263806D01*
G37*
G36*
X0270521Y0265198D02*
X0266069Y0260746D01*
X0265235Y0261580D01*
X0269687Y0266032D01*
X0270521Y0265198D01*
G37*
G36*
X0269129Y0266590D02*
X0264677Y0262138D01*
X0263843Y0262972D01*
X0268295Y0267424D01*
X0269129Y0266590D01*
G37*
G36*
X0267737Y0267982D02*
X0263285Y0263530D01*
X0262451Y0264364D01*
X0266903Y0268816D01*
X0267737Y0267982D01*
G37*
G36*
X0266345Y0269374D02*
X0261893Y0264922D01*
X0261059Y0265756D01*
X0265511Y0270208D01*
X0266345Y0269374D01*
G37*
G36*
X0264953Y0270766D02*
X0260501Y0266314D01*
X0259667Y0267148D01*
X0264119Y0271600D01*
X0264953Y0270766D01*
G37*
G36*
X0263561Y0272158D02*
X0259109Y0267706D01*
X0258275Y0268540D01*
X0262727Y0272992D01*
X0263561Y0272158D01*
G37*
G36*
X0262169Y0273550D02*
X0257717Y0269098D01*
X0256883Y0269932D01*
X0261335Y0274384D01*
X0262169Y0273550D01*
G37*
G36*
X0260777Y0274942D02*
X0256325Y0270490D01*
X0255491Y0271324D01*
X0259943Y0275776D01*
X0260777Y0274942D01*
G37*
G36*
X0259385Y0276334D02*
X0254933Y0271882D01*
X0254099Y0272716D01*
X0258551Y0277168D01*
X0259385Y0276334D01*
G37*
G36*
X0257993Y0277726D02*
X0253541Y0273274D01*
X0252707Y0274108D01*
X0257159Y0278560D01*
X0257993Y0277726D01*
G37*
G36*
X0256601Y0279118D02*
X0252149Y0274666D01*
X0251315Y0275500D01*
X0255767Y0279952D01*
X0256601Y0279118D01*
G37*
G36*
X0255209Y0280510D02*
X0250757Y0276058D01*
X0249923Y0276892D01*
X0254375Y0281344D01*
X0255209Y0280510D01*
G37*
G36*
X0253817Y0281901D02*
X0249365Y0277449D01*
X0248531Y0278283D01*
X0252983Y0282735D01*
X0253817Y0281901D01*
G37*
G36*
X0252425Y0283293D02*
X0247973Y0278841D01*
X0247139Y0279675D01*
X0251591Y0284127D01*
X0252425Y0283293D01*
G37*
G36*
X0251033Y0284685D02*
X0246581Y0280233D01*
X0245747Y0281067D01*
X0250199Y0285519D01*
X0251033Y0284685D01*
G37*
G36*
X0249641Y0286077D02*
X0245189Y0281625D01*
X0244355Y0282459D01*
X0248807Y0286911D01*
X0249641Y0286077D01*
G37*
G36*
X0248250Y0287469D02*
X0243798Y0283017D01*
X0242964Y0283851D01*
X0247416Y0288303D01*
X0248250Y0287469D01*
G37*
G36*
X0246858Y0288861D02*
X0242406Y0284409D01*
X0241572Y0285243D01*
X0246024Y0289695D01*
X0246858Y0288861D01*
G37*
G36*
X0245466Y0290253D02*
X0241014Y0285801D01*
X0240180Y0286635D01*
X0244632Y0291087D01*
X0245466Y0290253D01*
G37*
G36*
X0244074Y0291645D02*
X0239622Y0287193D01*
X0238788Y0288027D01*
X0243240Y0292479D01*
X0244074Y0291645D01*
G37*
G36*
X0242682Y0293037D02*
X0238230Y0288585D01*
X0237396Y0289419D01*
X0241848Y0293871D01*
X0242682Y0293037D01*
G37*
G36*
X0241290Y0294429D02*
X0236838Y0289977D01*
X0236004Y0290811D01*
X0240456Y0295263D01*
X0241290Y0294429D01*
G37*
G36*
X0239898Y0295821D02*
X0235446Y0291369D01*
X0234612Y0292203D01*
X0239064Y0296655D01*
X0239898Y0295821D01*
G37*
G36*
X0238506Y0297213D02*
X0234054Y0292761D01*
X0233220Y0293595D01*
X0237672Y0298047D01*
X0238506Y0297213D01*
G37*
G36*
X0237114Y0298605D02*
X0232662Y0294153D01*
X0231828Y0294987D01*
X0236280Y0299439D01*
X0237114Y0298605D01*
G37*
G36*
X0235722Y0299997D02*
X0231270Y0295545D01*
X0230436Y0296379D01*
X0234888Y0300831D01*
X0235722Y0299997D01*
G37*
G36*
X0234330Y0301389D02*
X0229878Y0296937D01*
X0229044Y0297771D01*
X0233496Y0302223D01*
X0234330Y0301389D01*
G37*
G36*
X0232938Y0302781D02*
X0228486Y0298329D01*
X0227652Y0299163D01*
X0232104Y0303615D01*
X0232938Y0302781D01*
G37*
G36*
X0231546Y0304173D02*
X0227094Y0299721D01*
X0226260Y0300555D01*
X0230712Y0305007D01*
X0231546Y0304173D01*
G37*
G36*
X0230154Y0305564D02*
X0225702Y0301112D01*
X0224868Y0301946D01*
X0229320Y0306398D01*
X0230154Y0305564D01*
G37*
G36*
X0228762Y0306956D02*
X0224310Y0302504D01*
X0223476Y0303338D01*
X0227928Y0307790D01*
X0228762Y0306956D01*
G37*
G36*
X0227370Y0308348D02*
X0222918Y0303896D01*
X0222084Y0304730D01*
X0226536Y0309182D01*
X0227370Y0308348D01*
G37*
G36*
X0225978Y0309740D02*
X0221526Y0305288D01*
X0220692Y0306122D01*
X0225144Y0310574D01*
X0225978Y0309740D01*
G37*
D12*
X0087398Y0118248D03*
X0094091Y0118248D03*
G36*
X0187396Y0115622D02*
X0184613Y0118405D01*
X0187674Y0121466D01*
X0190457Y0118683D01*
X0187396Y0115622D01*
G37*
G36*
X0192128Y0110889D02*
X0189345Y0113672D01*
X0192406Y0116733D01*
X0195189Y0113950D01*
X0192128Y0110889D01*
G37*
X0087244Y0318152D03*
X0087244Y0324844D03*
X0062744Y0362152D03*
X0062744Y0368844D03*
X0119148Y0396748D03*
X0125841Y0396748D03*
X0124398Y0364248D03*
X0131091Y0364248D03*
X0139398Y0364248D03*
X0146091Y0364248D03*
X0159148Y0396748D03*
X0165841Y0396748D03*
X0316494Y0383144D03*
X0316494Y0376452D03*
X0321494Y0376452D03*
X0326494Y0376452D03*
X0326494Y0383144D03*
X0321494Y0383144D03*
X0327398Y0395498D03*
X0334091Y0395498D03*
X0339898Y0395498D03*
X0346591Y0395498D03*
X0338994Y0367844D03*
X0338994Y0361152D03*
D13*
G36*
X0327487Y0198767D02*
X0331939Y0194315D01*
X0327763Y0190139D01*
X0323311Y0194591D01*
X0327487Y0198767D01*
G37*
G36*
X0321360Y0183736D02*
X0316908Y0188188D01*
X0321084Y0192364D01*
X0325536Y0187912D01*
X0321360Y0183736D01*
G37*
G36*
X0328319Y0176777D02*
X0323867Y0181229D01*
X0328043Y0185405D01*
X0332495Y0180953D01*
X0328319Y0176777D01*
G37*
G36*
X0334446Y0191807D02*
X0338898Y0187355D01*
X0334722Y0183179D01*
X0330270Y0187631D01*
X0334446Y0191807D01*
G37*
D14*
G36*
X0318524Y0180953D02*
X0321585Y0177892D01*
X0318802Y0175109D01*
X0315741Y0178170D01*
X0318524Y0180953D01*
G37*
G36*
X0313791Y0185686D02*
X0316852Y0182625D01*
X0314069Y0179842D01*
X0311008Y0182903D01*
X0313791Y0185686D01*
G37*
X0337744Y0347402D03*
X0337744Y0354094D03*
X0333994Y0361152D03*
X0333994Y0367844D03*
X0328494Y0367844D03*
X0328494Y0361152D03*
X0347744Y0354094D03*
X0347744Y0347402D03*
X0356494Y0366152D03*
X0356494Y0372844D03*
X0193744Y0396402D03*
X0187744Y0396402D03*
X0181744Y0396402D03*
X0175744Y0396402D03*
X0175744Y0403094D03*
X0181744Y0403094D03*
X0187744Y0403094D03*
X0193744Y0403094D03*
D15*
X0091744Y0370348D03*
X0083744Y0366548D03*
X0083744Y0374148D03*
D16*
X0079063Y0418539D03*
X0071189Y0418539D03*
D17*
X0070008Y0407909D03*
X0072567Y0407909D03*
X0075126Y0407909D03*
X0077685Y0407909D03*
X0080244Y0407909D03*
D18*
X0077819Y0402299D03*
X0074669Y0402299D03*
X0074669Y0396197D03*
X0077819Y0396197D03*
D19*
X0073894Y0349148D03*
X0082894Y0349148D03*
X0064894Y0349148D03*
D20*
X0073994Y0324348D03*
D21*
X0072744Y0363026D03*
X0072744Y0378970D03*
D22*
X0083494Y0159098D03*
X0088494Y0159098D03*
X0093494Y0159098D03*
X0098494Y0159098D03*
X0098494Y0134898D03*
X0093494Y0134898D03*
X0088494Y0134898D03*
X0083494Y0134898D03*
D23*
X0332636Y0374203D03*
X0334604Y0374203D03*
X0336573Y0374203D03*
X0338541Y0374203D03*
X0340510Y0374203D03*
X0342478Y0374203D03*
X0344447Y0374203D03*
X0346415Y0374203D03*
X0348384Y0374203D03*
X0350352Y0374203D03*
X0350352Y0387293D03*
X0348384Y0387293D03*
X0346415Y0387293D03*
X0344447Y0387293D03*
X0342478Y0387293D03*
X0340510Y0387293D03*
X0338541Y0387293D03*
X0336573Y0387293D03*
X0334604Y0387293D03*
X0332636Y0387293D03*
D24*
X0332193Y0383701D03*
X0332193Y0381732D03*
X0332193Y0379764D03*
X0332193Y0377795D03*
X0350795Y0377795D03*
X0350795Y0379764D03*
X0350795Y0381732D03*
X0350795Y0383701D03*
D25*
X0345970Y0408248D03*
X0326768Y0408248D03*
X0304720Y0408248D03*
X0368018Y0408248D03*
X0166518Y0408248D03*
X0144470Y0408248D03*
X0125518Y0408248D03*
X0103470Y0408248D03*
D26*
X0116748Y0355394D03*
X0129740Y0355394D03*
X0129740Y0336102D03*
X0116748Y0336102D03*
D27*
X0134575Y0373008D03*
X0134575Y0380488D03*
X0125913Y0376748D03*
D28*
X0175744Y0408795D03*
X0175744Y0414701D03*
X0181744Y0414701D03*
X0181744Y0408795D03*
X0187744Y0408795D03*
X0193744Y0408795D03*
X0193744Y0414701D03*
X0187744Y0414701D03*
M02*
